<?xml version="1.0" standalone="no"?>
<!DOCTYPE svg PUBLIC "-//W3C//DTD SVG 20010904//EN"
 "http://www.w3.org/TR/2001/REC-SVG-20010904/DTD/svg10.dtd">
<svg version="1.0" xmlns="http://www.w3.org/2000/svg"
 width="900.000000pt" height="900.000000pt" viewBox="0 0 900.000000 900.000000"
 preserveAspectRatio="xMidYMid meet">
<metadata>
Created by potrace 1.10, written by Peter Selinger 2001-2011
</metadata>
<g transform="translate(0.000000,900.000000) scale(0.100000,-0.100000)"
fill="#606060" stroke="none">
<path d="M4205 8991 c10 -17 -12 -22 -152 -31 -143 -10 -231 -22 -343 -45 -36
-7 -85 -16 -110 -20 -25 -3 -58 -10 -75 -15 -16 -5 -50 -13 -75 -19 -182 -39
-446 -123 -660 -210 -167 -68 -462 -215 -600 -300 -118 -73 -192 -120 -225
-143 -22 -16 -62 -44 -90 -63 -155 -106 -376 -295 -560 -480 -185 -184 -374
-405 -480 -560 -19 -27 -47 -68 -63 -90 -16 -23 -52 -79 -81 -125 -97 -157
-111 -182 -177 -306 -31 -60 -61 -116 -65 -124 -4 -8 -20 -42 -34 -75 -15 -33
-36 -80 -47 -105 -23 -50 -27 -60 -58 -140 -12 -30 -26 -64 -31 -75 -14 -34
-105 -316 -124 -385 -38 -146 -44 -168 -58 -240 -49 -242 -50 -249 -67 -425
-6 -60 -16 -153 -21 -205 -20 -181 -2 -745 32 -970 18 -121 65 -363 85 -435 8
-27 25 -90 38 -140 129 -471 359 -953 656 -1375 14 -19 27 -37 30 -40 3 -3 18
-23 33 -46 15 -22 35 -49 45 -60 9 -10 33 -39 52 -64 151 -197 411 -462 630
-643 52 -43 104 -86 115 -96 66 -57 451 -321 469 -321 3 0 25 -12 49 -27 59
-37 270 -147 382 -198 125 -57 167 -75 178 -75 7 0 17 -4 22 -8 40 -34 483
-172 690 -215 218 -46 257 -53 470 -79 127 -15 798 -22 915 -9 279 31 380 44
446 60 27 6 96 22 154 35 214 49 363 93 570 168 47 17 89 35 95 40 5 4 15 8
22 8 30 0 420 191 568 278 441 260 810 567 1146 952 158 181 342 439 481 675
85 145 278 539 278 569 0 7 4 16 8 22 5 5 19 38 31 74 13 36 27 74 32 85 4 11
22 61 38 110 26 79 40 129 89 315 16 59 62 287 81 400 6 36 16 118 21 184 11
122 15 140 31 131 5 -4 9 140 9 368 0 314 -2 376 -14 380 -9 4 -16 29 -20 74
-12 121 -38 317 -51 378 -7 33 -21 98 -30 145 -10 47 -23 105 -30 130 -7 25
-20 74 -30 110 -38 141 -139 433 -157 454 -4 6 -8 16 -8 23 0 11 -16 49 -75
178 -43 94 -151 304 -185 360 -22 36 -40 68 -40 71 0 17 -262 400 -316 464 -8
8 -67 78 -132 156 -180 212 -430 455 -612 594 -25 19 -47 37 -50 40 -16 17
-120 93 -270 195 -361 246 -855 471 -1300 592 -132 36 -401 93 -488 103 -41 5
-81 12 -90 14 -10 3 -82 10 -162 15 -109 8 -148 14 -156 26 -10 13 -53 15
-298 15 -175 0 -285 -4 -281 -9z m675 -461 c47 -5 130 -17 185 -25 55 -9 132
-20 170 -25 39 -5 82 -13 95 -18 14 -5 61 -17 105 -27 83 -17 203 -50 243 -66
13 -5 31 -9 40 -9 9 0 30 -7 46 -15 15 -8 34 -15 42 -15 7 0 28 -6 46 -14 18
-8 87 -36 153 -61 348 -136 726 -357 1040 -610 343 -276 718 -706 920 -1053 6
-10 31 -53 57 -97 25 -44 54 -97 65 -117 10 -21 32 -66 50 -100 52 -104 103
-218 103 -231 0 -7 4 -17 8 -23 4 -5 18 -36 31 -69 12 -33 29 -75 37 -93 8
-18 14 -41 14 -52 0 -10 4 -21 9 -25 5 -3 12 -20 16 -38 4 -17 12 -50 20 -72
21 -66 43 -146 60 -220 9 -38 21 -85 27 -104 6 -19 14 -60 19 -90 16 -113 31
-208 47 -301 24 -138 23 -838 -1 -950 -10 -41 -17 -86 -17 -100 0 -28 -25
-182 -41 -250 -20 -82 -41 -174 -49 -217 -5 -23 -14 -50 -19 -60 -5 -10 -15
-38 -21 -63 -6 -25 -15 -58 -20 -75 -10 -34 -66 -190 -79 -220 -5 -11 -19 -45
-31 -75 -11 -30 -25 -64 -30 -75 -14 -33 -170 -349 -180 -365 -5 -8 -30 -51
-56 -95 -103 -176 -270 -410 -408 -570 -152 -177 -404 -420 -551 -533 -193
-146 -331 -241 -455 -313 -47 -27 -92 -54 -100 -59 -15 -10 -329 -165 -365
-180 -11 -5 -45 -19 -75 -31 -30 -12 -68 -27 -85 -34 -16 -7 -58 -23 -92 -34
-33 -11 -72 -25 -85 -30 -12 -5 -50 -17 -83 -26 -33 -9 -78 -23 -100 -30 -22
-7 -76 -21 -120 -30 -44 -10 -93 -22 -110 -27 -30 -10 -53 -13 -250 -42 -55
-8 -127 -20 -160 -27 -41 -8 -184 -12 -445 -13 -314 0 -403 3 -480 16 -160 28
-232 39 -300 48 -36 5 -76 13 -90 18 -14 6 -61 18 -105 27 -44 9 -98 22 -120
29 -22 7 -67 21 -100 31 -33 9 -71 21 -83 26 -13 5 -52 18 -85 30 -55 18 -158
58 -242 94 -82 35 -378 183 -433 217 -34 21 -64 38 -67 38 -8 0 -318 211 -355
242 -19 16 -91 76 -160 132 -191 158 -445 418 -570 585 -14 19 -40 50 -57 71
-18 21 -33 41 -33 44 0 4 -20 34 -45 66 -25 32 -45 61 -45 63 0 3 -24 41 -54
84 -29 43 -66 101 -80 128 -15 28 -41 73 -57 100 -55 93 -199 396 -199 418 0
7 -4 17 -8 23 -8 9 -38 84 -67 169 -9 28 -20 59 -25 70 -5 11 -18 56 -31 100
-12 44 -27 98 -34 120 -7 22 -21 76 -30 120 -9 44 -21 91 -26 105 -6 13 -14
56 -19 95 -5 38 -17 117 -25 175 -31 201 -34 257 -34 570 0 310 2 351 34 560
8 58 19 134 24 170 4 36 13 81 19 100 6 19 19 71 28 115 16 77 46 185 65 233
5 13 9 30 9 38 0 9 6 30 14 47 8 18 16 41 19 52 7 24 34 102 46 130 5 11 17
40 27 65 9 25 30 73 46 108 15 35 28 66 28 69 0 6 84 173 128 254 42 78 167
282 221 359 43 62 199 270 210 280 3 3 35 39 70 80 123 143 395 408 486 472 6
4 28 22 50 41 238 202 674 456 1015 591 85 34 94 38 155 58 33 11 74 26 92 34
17 8 37 14 45 14 8 0 55 13 104 29 49 16 125 36 169 45 44 9 96 22 115 28 19
6 62 14 95 18 33 4 110 15 170 25 61 9 137 21 170 25 89 11 686 11 785 0z"/>
<path d="M4322 8154 c-12 -8 -22 -24 -22 -34 0 -10 -4 -21 -9 -24 -5 -3 -11
-18 -14 -33 -3 -16 -21 -73 -42 -128 -20 -55 -41 -116 -47 -135 -5 -19 -14
-39 -18 -45 -4 -5 -10 -21 -13 -35 -6 -30 -34 -107 -47 -135 -6 -11 -11 -38
-13 -60 l-2 -40 55 -3 c71 -4 86 8 114 88 l22 65 104 3 c134 4 147 0 155 -40
4 -18 16 -50 26 -70 l19 -38 70 0 c68 0 70 1 70 25 0 13 -7 41 -16 62 -28 64
-41 96 -59 143 -10 25 -23 59 -30 75 -7 17 -21 50 -30 75 -10 25 -23 59 -30
75 -7 17 -21 50 -30 75 -10 25 -23 57 -31 72 -8 14 -14 33 -14 42 0 8 -9 20
-19 26 -30 16 -123 12 -149 -6z m110 -255 c11 -29 22 -63 25 -74 3 -11 10 -25
15 -32 5 -7 7 -17 3 -23 -7 -12 -131 -14 -139 -2 -6 9 6 58 29 122 8 25 18 51
20 58 9 26 28 6 47 -49z"/>
<path d="M4820 8152 c-1 -4 -5 -27 -9 -51 -11 -53 -5 -71 21 -71 25 0 151 -31
160 -39 4 -4 3 -22 -2 -41 -11 -36 -35 -178 -50 -290 -4 -36 -14 -88 -21 -116
-6 -29 -9 -58 -6 -66 4 -13 93 -38 132 -38 13 0 37 104 61 265 9 61 23 145 32
189 l17 78 60 -7 c33 -5 78 -8 100 -9 40 -1 40 -1 46 44 8 59 -3 78 -49 85
-20 3 -75 12 -122 20 -47 8 -105 17 -130 20 -25 4 -58 10 -75 15 -42 12 -165
21 -165 12z"/>
<path d="M3750 8105 c-19 -8 -47 -16 -61 -19 -19 -4 -34 -20 -52 -54 -14 -27
-40 -76 -58 -108 -18 -32 -43 -81 -57 -107 -14 -26 -30 -46 -36 -44 -6 2 -13
21 -16 43 -3 21 -9 44 -13 51 -4 6 -12 35 -17 64 -14 71 -23 80 -74 73 -42 -7
-96 -30 -96 -41 0 -6 11 -50 35 -138 8 -27 21 -79 31 -115 21 -81 42 -160 60
-225 7 -27 18 -71 25 -98 6 -26 16 -50 21 -53 16 -10 119 8 134 24 9 8 12 21
8 31 -4 9 -13 43 -21 76 -8 33 -17 70 -20 82 -6 27 20 88 44 101 13 8 36 -8
107 -71 174 -153 173 -153 209 -138 18 7 51 16 75 21 23 4 45 9 48 13 9 8 -6
47 -17 47 -6 0 -56 40 -112 88 -56 48 -124 106 -152 127 -77 62 -77 61 -44
125 16 30 42 78 58 105 55 93 79 143 73 149 -9 9 -44 5 -82 -9z"/>
<path d="M5725 7916 c-98 -22 -180 -89 -234 -191 -11 -22 -21 -47 -21 -57 0
-9 -4 -20 -10 -23 -6 -3 -10 -48 -10 -100 0 -80 3 -100 25 -142 32 -59 49 -79
100 -119 71 -53 120 -69 215 -68 77 1 90 4 137 32 107 64 167 152 193 283 37
187 -77 348 -274 387 -33 7 -62 11 -65 11 -3 -1 -29 -6 -56 -13z m150 -145
c83 -38 115 -110 94 -209 -43 -203 -230 -282 -337 -142 -33 42 -34 47 -30 115
6 108 53 191 133 234 48 26 87 26 140 2z"/>
<path d="M2800 7780 c-8 -5 -35 -18 -60 -30 -83 -40 -160 -143 -160 -215 0
-39 25 -97 56 -129 59 -61 148 -68 298 -23 22 6 62 11 89 12 42 0 52 -4 69
-26 19 -25 19 -28 3 -62 -38 -81 -162 -113 -231 -60 l-35 26 -57 -31 c-61 -32
-65 -45 -34 -88 23 -30 89 -63 145 -70 172 -24 391 156 363 297 -23 114 -100
176 -210 166 -34 -3 -90 -13 -126 -22 -120 -30 -148 -31 -170 -5 -24 28 -24
24 -3 67 16 35 80 73 123 73 24 0 70 -21 70 -32 0 -4 7 -8 16 -8 22 0 124 51
124 63 0 21 -44 69 -80 87 -41 21 -160 27 -190 10z"/>
<path d="M6432 7467 c-170 -71 -277 -255 -243 -418 26 -126 132 -230 265 -260
103 -23 229 20 309 106 43 47 94 144 107 207 53 239 -212 460 -438 365z m218
-144 c46 -27 80 -86 80 -138 0 -127 -144 -277 -252 -262 -48 6 -118 57 -135
98 -28 67 -12 140 48 224 67 93 178 126 259 78z"/>
<path d="M2119 7311 c-22 -8 -84 -64 -96 -86 -8 -13 -5 -32 9 -69 10 -28 28
-78 39 -111 12 -33 27 -74 35 -92 8 -17 14 -36 14 -42 0 -6 7 -27 16 -48 28
-63 32 -75 60 -153 49 -140 52 -145 71 -148 11 -2 37 14 62 37 39 36 42 43 36
73 -4 18 -14 45 -21 60 -8 15 -14 36 -14 46 0 22 156 162 179 161 9 0 30 -9
46 -20 37 -23 72 -39 89 -39 7 0 30 16 52 35 21 19 42 35 47 35 4 0 7 7 7 15
0 17 -39 43 -155 104 -44 24 -98 53 -120 65 -93 52 -182 100 -207 113 -15 8
-30 18 -33 24 -4 5 -14 9 -24 9 -10 0 -24 6 -30 14 -15 17 -41 25 -62 17z
m175 -238 c47 -27 85 -53 86 -60 0 -15 -81 -92 -98 -93 -12 0 -24 22 -57 110
-9 25 -21 53 -26 62 -21 41 -7 38 95 -19z"/>
<path d="M4394 7145 c-12 -8 -38 -54 -58 -102 -20 -48 -40 -95 -45 -103 -5 -9
-12 -30 -15 -48 -4 -17 -12 -34 -17 -37 -5 -4 -9 -13 -9 -22 0 -8 -6 -29 -14
-46 -8 -18 -24 -61 -36 -97 -12 -36 -25 -69 -30 -75 -4 -5 -10 -21 -13 -35 -3
-14 -22 -70 -42 -125 -20 -55 -41 -116 -46 -135 -5 -19 -14 -44 -18 -55 -16
-41 -33 -91 -43 -130 -6 -22 -15 -44 -19 -50 -5 -5 -9 -18 -9 -30 0 -11 -6
-32 -14 -47 -8 -15 -17 -41 -21 -59 -4 -19 -11 -40 -15 -49 -4 -8 -22 -62 -40
-120 -18 -58 -45 -143 -61 -190 -16 -47 -29 -94 -29 -106 0 -11 -7 -29 -15
-40 -8 -10 -15 -27 -15 -37 0 -10 -13 -60 -30 -110 -16 -51 -37 -112 -45 -137
-8 -25 -17 -62 -21 -83 -3 -20 -10 -40 -15 -43 -5 -3 -9 -19 -9 -35 0 -17 -4
-39 -10 -49 -12 -22 -39 -162 -50 -255 -4 -38 -13 -83 -19 -99 -10 -25 -9 -32
11 -53 25 -27 57 -28 153 -4 28 7 66 17 85 21 317 76 366 88 430 109 30 10 87
28 125 40 39 12 86 28 105 35 19 7 60 21 90 31 30 9 64 21 75 26 11 4 49 18
85 29 36 12 72 25 80 29 8 4 54 20 102 35 49 15 90 32 94 37 3 5 18 9 33 9 15
0 31 4 36 9 6 5 26 14 45 19 41 12 78 25 200 69 30 11 82 29 115 39 33 10 65
21 70 25 6 4 26 11 45 17 19 6 80 26 135 46 55 20 127 46 160 57 33 11 69 24
80 29 11 5 49 19 85 30 36 12 77 28 92 36 14 8 35 14 45 14 11 0 23 3 26 6 7
7 44 21 167 63 36 12 77 29 92 37 14 8 33 14 42 14 9 0 24 4 34 10 9 5 59 26
110 46 139 53 242 126 242 171 0 23 -35 99 -51 109 -5 3 -9 11 -9 19 0 8 -13
34 -30 58 -16 25 -30 48 -30 52 0 4 -13 24 -30 45 -16 21 -30 41 -30 45 0 6
-86 123 -100 135 -3 3 -30 37 -61 75 -31 39 -92 106 -135 149 -88 88 -278 256
-290 256 -4 0 -17 8 -28 19 -24 21 -173 124 -196 134 -8 4 -42 23 -75 42 -100
57 -304 155 -355 169 -14 4 -34 11 -45 15 -64 25 -108 39 -231 70 -18 5 -36
11 -42 15 -14 8 -183 35 -292 46 -47 4 -109 13 -139 19 -82 17 -272 14 -297
-4z"/>
<path d="M7165 6938 c-16 -12 -32 -25 -35 -28 -5 -6 -234 -185 -288 -225 -70
-52 -138 -109 -145 -121 -6 -10 1 -25 17 -45 14 -17 26 -35 26 -40 0 -5 11
-11 24 -15 19 -4 41 8 111 63 48 37 97 75 108 83 12 8 39 29 60 47 20 18 42
33 48 33 15 0 7 -40 -21 -110 -12 -30 -25 -66 -30 -80 -5 -14 -18 -50 -30 -80
-12 -30 -26 -71 -32 -90 -5 -19 -14 -39 -19 -44 -5 -6 -9 -23 -9 -39 0 -36 64
-127 89 -127 9 0 44 22 77 48 32 26 109 86 169 132 61 47 115 89 121 95 6 5
43 35 82 64 40 30 72 62 72 70 0 25 -77 104 -92 95 -15 -9 -177 -133 -261
-200 -56 -44 -83 -52 -61 -16 6 9 19 44 29 77 10 33 22 65 26 70 4 6 19 44 32
85 25 76 31 91 62 168 l18 42 -38 55 c-42 62 -62 68 -110 33z"/>
<path d="M3220 6805 c-30 -19 -61 -35 -67 -35 -7 0 -13 -4 -13 -8 0 -5 -12
-14 -26 -21 -15 -6 -39 -21 -53 -32 -14 -12 -55 -42 -91 -67 -77 -55 -72 -51
-175 -140 -157 -136 -321 -319 -430 -481 -68 -100 -83 -123 -95 -146 -6 -11
-22 -40 -36 -65 -38 -66 -110 -211 -119 -240 -4 -14 -11 -29 -15 -35 -4 -5
-17 -38 -29 -73 -12 -34 -25 -70 -30 -80 -10 -18 -60 -190 -68 -232 -2 -14
-11 -52 -19 -85 -14 -59 -28 -154 -44 -310 -22 -206 2 -600 45 -752 8 -28 15
-61 15 -72 0 -12 4 -29 9 -39 5 -9 20 -57 34 -107 28 -99 42 -142 65 -195 9
-19 21 -48 28 -65 71 -165 204 -406 289 -519 138 -185 354 -410 505 -526 75
-57 208 -150 215 -150 2 0 30 -18 63 -39 65 -43 322 -171 344 -171 7 0 22 -6
33 -13 11 -8 45 -22 75 -32 30 -10 71 -23 90 -30 52 -19 140 -43 185 -51 22
-4 45 -10 50 -14 6 -4 30 -10 55 -13 25 -3 73 -11 108 -17 34 -6 138 -16 230
-24 137 -11 196 -11 332 0 151 11 196 17 345 44 108 20 242 55 292 76 17 8 38
14 46 14 8 0 28 7 43 15 16 8 36 15 44 15 8 0 24 7 34 15 11 8 26 15 34 15 8
0 66 26 130 59 174 88 186 94 200 108 7 7 17 13 22 13 8 0 229 147 240 159 3
3 37 31 75 62 96 77 290 276 374 384 39 50 82 104 96 121 50 63 39 64 -150 24
-132 -27 -187 -35 -455 -65 -321 -35 -694 -35 -1000 1 -264 31 -299 36 -425
64 -55 12 -118 25 -140 30 -22 5 -71 18 -110 30 -38 12 -86 25 -105 30 -19 4
-60 18 -90 30 -30 12 -69 25 -86 30 -17 4 -56 19 -87 34 -31 14 -61 26 -67 26
-7 0 -24 7 -38 15 -15 8 -79 39 -142 69 -136 66 -222 113 -285 155 -25 17 -49
31 -52 31 -3 0 -22 13 -43 30 -21 17 -41 30 -44 30 -13 0 -209 153 -311 241
-197 173 -430 435 -538 606 l-26 42 18 53 c10 29 30 89 45 133 15 44 32 89 37
100 4 11 19 53 32 93 14 40 27 76 31 79 3 4 6 17 6 29 0 13 4 25 9 28 4 3 18
38 30 78 12 40 28 87 36 103 7 17 21 55 30 85 10 30 23 69 31 85 8 17 17 45
20 63 4 18 11 35 15 38 5 3 9 14 9 25 0 11 5 30 12 42 12 22 62 158 78 212 11
39 38 115 50 140 5 11 18 49 30 85 11 36 24 74 29 85 4 11 13 36 20 55 7 19
22 62 33 95 12 33 34 93 50 134 15 40 28 81 28 90 0 9 6 25 13 36 7 11 21 47
31 80 10 33 23 71 29 85 5 14 20 53 33 88 12 35 30 75 39 88 16 24 15 54 -2
54 -4 0 -33 -16 -63 -35z"/>
<path d="M1632 6783 c-58 -20 -147 -110 -178 -179 -35 -78 -33 -165 4 -218 36
-53 104 -89 157 -83 57 6 98 28 185 98 41 33 90 67 107 76 102 49 137 -70 48
-162 -46 -47 -98 -65 -133 -46 -11 6 -27 8 -36 5 -14 -5 -76 -90 -76 -103 1
-15 19 -28 60 -44 59 -22 77 -21 144 5 94 35 178 131 217 247 19 55 20 67 9
106 -26 92 -107 165 -183 165 -52 0 -124 -37 -202 -102 -38 -33 -86 -68 -107
-79 -36 -18 -36 -18 -62 2 -45 35 -28 104 39 155 30 23 41 25 79 20 l45 -7 35
53 c20 29 36 56 36 60 0 15 -80 48 -112 47 -18 0 -52 -7 -76 -16z"/>
<path d="M2815 2121 c-52 -11 -181 -81 -224 -122 -70 -68 -49 -113 60 -130
149 -23 175 -28 202 -38 42 -16 99 -13 127 6 40 29 114 20 360 -42 220 -55
350 -165 264 -222 -39 -25 -183 -30 -281 -8 -43 9 -88 19 -100 21 -37 7 -27
29 25 56 74 39 132 77 132 88 0 17 -43 28 -132 35 -120 9 -206 -6 -317 -53
-39 -16 -74 -13 -176 19 -109 33 -149 35 -175 9 -31 -31 -21 -76 27 -118 44
-39 42 -42 -62 -98 -141 -75 -170 -100 -192 -162 -52 -150 55 -268 327 -361
64 -22 244 -51 317 -51 122 0 261 39 316 89 49 44 61 77 47 127 -7 24 -19 49
-26 55 -8 6 -14 17 -14 24 0 23 -182 179 -272 234 -64 38 -42 55 37 27 39 -14
110 -30 269 -61 252 -49 441 15 489 166 29 89 -13 177 -129 267 -23 18 -44 32
-47 32 -2 0 -26 12 -53 27 -53 30 -79 41 -194 79 -41 13 -84 28 -95 33 -47 20
-224 58 -325 71 -84 10 -140 10 -185 1z m120 -712 c100 -60 197 -142 209 -175
14 -44 -10 -57 -115 -62 -167 -8 -298 29 -377 107 -45 45 -53 79 -24 102 25
20 62 40 91 50 14 4 44 14 66 22 47 18 48 17 150 -44z"/>
<path d="M6380 1903 c-28 -35 -31 -43 -26 -88 4 -27 7 -59 7 -70 2 -24 -15
-108 -29 -150 -15 -43 -42 -167 -42 -188 0 -11 -6 -33 -14 -50 -8 -18 -17 -43
-20 -57 -12 -54 -105 -175 -162 -210 -42 -27 -110 -27 -124 -1 -18 35 -11 52
56 119 66 67 121 143 159 216 15 30 20 59 20 118 0 75 -1 79 -30 103 -37 30
-78 31 -138 5 -167 -74 -287 -264 -287 -454 0 -76 -1 -80 -37 -125 -64 -79
-153 -171 -164 -171 -4 0 -15 7 -23 16 -22 22 -22 191 0 259 22 66 43 123 59
160 7 17 16 39 18 50 7 25 34 103 46 130 42 96 71 198 71 247 0 49 -3 59 -26
77 -15 12 -40 21 -57 21 -56 0 -122 -97 -167 -246 -12 -38 -26 -85 -32 -104
-6 -19 -17 -60 -23 -90 l-11 -55 -42 3 c-78 5 -238 -97 -348 -222 -48 -54
-104 -162 -104 -199 0 -31 -6 -37 -90 -95 -83 -57 -147 -75 -169 -49 -16 20
-1 50 80 159 61 82 71 117 48 159 -8 16 -7 25 5 38 25 27 19 54 -19 91 -33 32
-37 33 -106 32 -101 -2 -259 -59 -411 -148 -55 -33 -143 -111 -187 -166 -55
-70 -95 -92 -228 -124 -67 -15 -74 -15 -97 0 -29 19 -41 65 -29 118 7 32 24
48 138 134 178 133 260 209 330 305 94 127 135 272 85 299 -25 13 -45 8 -135
-37 -128 -63 -208 -123 -338 -251 -159 -157 -222 -269 -273 -484 -17 -75 -17
-79 0 -135 10 -32 28 -69 40 -82 44 -49 123 -63 216 -38 49 13 185 80 211 104
15 12 19 10 38 -20 11 -19 21 -38 21 -42 0 -12 71 -88 94 -102 51 -30 103 -6
250 114 50 40 92 69 94 63 2 -6 -2 -17 -8 -25 -7 -9 -13 -47 -14 -88 -1 -89
19 -117 84 -117 59 0 203 79 306 168 l84 72 10 -25 c5 -14 32 -48 59 -75 82
-82 131 -69 237 62 30 37 59 78 66 93 17 37 31 26 46 -37 8 -34 25 -68 43 -88
28 -30 34 -32 83 -28 40 3 63 12 98 39 45 35 121 121 168 191 14 21 31 38 39
38 8 0 29 -18 48 -40 19 -22 40 -40 48 -40 7 0 18 -7 25 -15 18 -22 142 -21
178 2 55 34 175 160 213 226 22 37 46 67 53 67 7 0 39 -9 72 -20 73 -24 114
-25 184 -1 57 20 140 82 140 106 0 8 6 18 14 22 18 10 106 162 106 183 0 8 6
27 14 41 7 14 16 48 20 75 4 27 9 57 12 66 7 22 -48 83 -68 76 -8 -4 -23 -32
-33 -65 -9 -32 -21 -62 -26 -67 -5 -6 -9 -17 -9 -25 0 -9 -7 -29 -15 -45 -8
-15 -15 -33 -15 -40 -1 -17 -47 -69 -53 -60 -3 5 2 37 11 72 14 59 14 69 -3
145 -24 102 -34 119 -135 223 -70 72 -86 84 -115 84 -27 0 -40 -8 -65 -37z
m124 -314 c20 -22 41 -51 46 -65 16 -40 12 -96 -9 -129 -18 -30 -19 -31 -79
-25 -34 3 -63 8 -66 11 -3 3 -1 21 4 40 17 67 32 134 37 172 3 21 11 37 18 37
7 0 29 -18 49 -41z m-478 -156 c-20 -59 -73 -153 -86 -153 -29 0 18 137 63
181 16 17 32 28 34 25 3 -3 -2 -26 -11 -53z m-2027 -45 c-13 -17 -41 -48 -63
-67 -21 -20 -45 -42 -52 -48 -22 -23 -26 -14 -7 18 19 32 120 129 136 129 4 0
-2 -14 -14 -32z m1302 -297 c-17 -28 -31 -55 -31 -59 0 -11 -123 -154 -143
-166 -56 -34 -30 109 29 166 59 55 159 126 168 118 5 -5 -5 -31 -23 -59z
m-771 -57 c0 -6 -68 -72 -187 -180 -26 -24 -72 -55 -101 -70 -48 -24 -55 -25
-68 -12 -14 14 -13 20 6 59 36 71 101 118 270 193 36 16 80 21 80 10z"/>
</g>
</svg>
