 <svg  version="1.0" xmlns="http://www.w3.org/2000/svg"  width="300.000000pt" height="213.000000pt" viewBox="0 0 300.000000 213.000000"  preserveAspectRatio="xMidYMid meet">  <g transform="translate(0.000000,213.000000) scale(0.100000,-0.100000)" fill="#a8a4a4" stroke="none"> <path d="M1464 2056 c-35 -16 -58 -63 -48 -102 10 -38 -27 -30 -74 16 -36 36 -45 40 -89 40 -69 0 -146 -29 -293 -109 -173 -95 -206 -111 -280 -137 -65 -23 -84 -46 -44 -52 12 -2 27 -14 35 -28 7 -14 26 -35 41 -45 15 -11 41 -33 57 -49 17 -18 40 -30 55 -30 20 0 30 -9 45 -39 18 -34 69 -71 99 -71 6 0 25 -15 44 -34 35 -35 89 -56 145 -56 28 0 34 -5 51 -43 20 -44 57 -78 100 -92 l24 -7 -26 -27 c-63 -66 -55 -138 24 -224 44 -48 48 -56 34 -68 -54 -44 -54 -119 1 -173 l33 -34 -16 -45 c-16 -44 -16 -46 11 -97 20 -39 24 -56 17 -70 -15 -27 -12 -83 5 -106 8 -10 15 -37 15 -59 0 -22 6 -49 14 -60 7 -11 16 -53 18 -93 10 -137 66 -137 76 0 2 40 11 82 18 93 8 11 14 38 14 60 0 22 7 49 15 59 17 23 20 79 5 106 -7 14 -3 31 17 70 27 51 27 53 11 97 l-16 45 34 34 c54 55 57 106 10 161 l-24 28 49 53 c76 83 84 159 23 223 l-26 27 24 7 c43 14 80 48 100 92 17 38 23 43 51 43 56 0 110 21 145 56 19 19 38 34 44 34 29 0 77 35 97 70 17 30 29 40 47 40 15 0 38 12 55 30 16 16 42 38 57 49 15 10 34 31 41 45 8 14 23 26 35 28 40 6 21 29 -44 52 -74 26 -107 42 -280 137 -147 80 -224 109 -293 109 -44 0 -53 -4 -89 -40 -44 -44 -84 -55 -73 -20 23 72 -51 136 -121 106z m86 -36 c43 -43 10 -114 -51 -112 -36 1 -69 30 -69 62 0 9 9 29 21 44 25 32 70 35 99 6z m-232 -65 c25 -21 52 -84 52 -120 0 -9 -82 5 -96 16 -7 5 -14 23 -18 39 -7 40 -31 48 -60 21 -29 -27 -40 -27 -66 6 -23 30 -19 37 30 51 67 19 126 14 158 -13z m516 16 c51 -12 61 -23 45 -50 -20 -31 -40 -34 -72 -11 -32 24 -57 20 -57 -9 0 -30 -32 -59 -72 -67 -36 -6 -38 -5 -38 20 0 39 24 91 51 110 26 18 83 20 143 7z m-735 -65 c10 -11 5 -19 -21 -39 -80 -60 -153 -82 -177 -53 -14 16 -13 17 89 74 60 35 91 40 109 18z m932 -28 c86 -46 99 -71 41 -76 -53 -5 -180 72 -169 102 10 26 44 19 128 -26z m-791 3 c0 -13 -109 -109 -144 -128 -23 -12 -33 -12 -57 -3 -16 7 -29 15 -29 19 1 16 117 85 141 83 15 -1 33 6 44 18 19 21 45 27 45 11z m228 -40 c4 -57 -12 -75 -39 -42 -22 27 -25 61 -7 79 24 24 43 9 46 -37z m117 25 c18 -26 11 -50 -20 -76 -14 -12 -18 -11 -26 1 -13 20 -11 73 3 87 17 17 26 15 43 -12z m223 4 c12 -11 33 -20 47 -20 26 0 135 -67 135 -83 0 -17 -50 -30 -73 -20 -37 17 -158 124 -152 134 9 14 19 11 43 -11z m-298 -296 c0 -194 -3 -293 -10 -289 -6 4 -10 113 -10 296 0 186 4 289 10 289 6 0 10 -105 10 -296z m-243 229 c5 -13 -60 -89 -89 -104 -15 -8 -24 -6 -39 7 -10 9 -19 20 -19 24 0 3 23 25 52 49 50 41 87 50 95 24z m564 -24 c54 -45 60 -62 28 -79 -25 -14 -32 -9 -103 67 -15 17 -25 36 -22 42 14 21 49 10 97 -30z m-957 5 c23 -22 20 -29 -21 -62 -51 -39 -77 -52 -107 -52 -23 0 -56 31 -56 53 0 9 137 76 157 77 6 0 19 -7 27 -16z m466 -17 c0 -6 -18 -34 -40 -64 -42 -55 -67 -65 -90 -37 -11 13 -5 24 45 74 45 46 62 57 72 48 7 -6 13 -15 13 -21z m450 -102 c-22 -27 -51 -13 -93 47 -35 49 -38 59 -27 73 12 15 20 10 74 -44 52 -52 58 -62 46 -76z m458 97 l73 -38 -21 -27 c-31 -39 -66 -35 -133 14 -32 22 -57 43 -57 46 0 14 34 43 49 43 9 -1 49 -18 89 -38z m-781 -39 c21 -32 -2 -39 -32 -9 -14 14 -25 33 -25 42 0 15 2 15 22 2 12 -8 28 -24 35 -35z m102 -9 c-27 -29 -39 -30 -39 -5 0 11 12 29 28 41 24 20 27 20 30 5 2 -9 -6 -28 -19 -41z m-566 10 c15 -3 27 -10 25 -14 -2 -5 -36 -33 -76 -64 -77 -60 -106 -67 -142 -38 l-23 18 79 57 c43 31 86 54 94 52 8 -2 28 -7 43 -11z m387 -17 c0 -28 -26 -67 -45 -67 -27 0 -27 22 0 60 29 42 45 44 45 7z m300 -49 c0 -4 -10 -10 -22 -13 -16 -6 -26 -1 -39 16 -19 25 -25 60 -12 73 7 7 72 -61 73 -76z m438 30 c42 -28 79 -53 81 -54 2 -2 -4 -13 -14 -24 -30 -33 -64 -24 -148 38 l-78 57 38 17 c21 10 39 18 41 18 2 0 38 -23 80 -52z m-1011 -24 c7 -20 -124 -154 -150 -154 -23 0 -79 38 -75 51 2 5 43 38 93 73 72 52 93 62 108 54 10 -5 21 -16 24 -24z m911 -37 c45 -33 82 -63 82 -67 0 -15 -52 -50 -73 -50 -20 0 -150 113 -155 136 -5 18 36 56 51 48 7 -4 49 -34 95 -67z m-592 32 c8 -14 -11 -33 -25 -25 -11 7 -4 36 9 36 5 0 12 -5 16 -11z m164 -9 c0 -22 -1 -23 -24 -14 -18 7 -10 34 10 34 8 0 14 -9 14 -20z m-387 -31 c8 -13 0 -30 -39 -80 -83 -109 -99 -117 -145 -80 l-24 20 80 81 c81 82 106 93 128 59z m702 -59 c78 -78 79 -80 60 -100 -37 -41 -73 -20 -158 94 -29 39 -35 52 -26 67 17 33 43 21 124 -61z m-599 45 c7 -18 -97 -180 -126 -195 -17 -9 -26 -8 -46 5 l-24 16 82 94 c82 94 103 109 114 80z m496 -78 c68 -82 75 -93 61 -104 -9 -7 -30 -13 -45 -13 -25 0 -36 11 -88 91 -32 50 -56 97 -53 105 13 34 49 11 125 -79z m-407 73 c3 -5 -1 -23 -10 -40 -12 -24 -22 -30 -46 -30 -34 0 -33 2 15 58 21 24 32 27 41 12z m245 -22 c37 -41 37 -48 3 -48 -21 0 -33 8 -46 31 -17 30 -15 49 4 49 5 0 23 -15 39 -32z m-182 -16 c2 -7 -3 -12 -12 -12 -9 0 -16 7 -16 16 0 17 22 14 28 -4z m89 -9 c-3 -3 -11 -2 -17 2 -9 6 -9 10 1 16 14 8 27 -7 16 -18z m-113 -82 c3 -5 -2 -19 -12 -31 -24 -29 -108 -41 -118 -16 -16 41 -54 3 -54 -53 0 -56 52 -88 210 -130 166 -45 230 -89 230 -161 0 -39 -34 -101 -73 -132 -26 -21 -27 -21 -51 -3 -18 14 -17 16 18 55 59 66 46 141 -30 170 -14 6 -71 21 -126 36 -56 14 -118 34 -140 45 -93 48 -104 167 -17 194 9 3 20 12 23 20 4 11 23 15 70 15 36 0 67 -4 70 -9z m256 -6 c0 -8 11 -17 25 -21 54 -13 73 -91 36 -143 -11 -15 -43 -40 -71 -55 -47 -25 -54 -27 -82 -15 l-31 13 43 14 c46 16 113 76 122 110 4 13 -1 31 -11 43 -14 18 -21 20 -39 10 -32 -17 -77 -13 -106 10 -46 36 -35 49 44 49 55 0 70 -3 70 -15z m-310 -285 c12 -8 11 -13 -8 -33 -30 -31 -29 -81 1 -111 13 -13 61 -45 107 -71 97 -57 160 -113 160 -144 0 -52 -69 -132 -96 -110 -10 8 -9 17 7 42 44 72 18 112 -116 179 -124 63 -165 103 -165 163 0 62 66 113 110 85z m120 -115 c0 -50 -4 -85 -10 -85 -6 0 -10 35 -10 85 0 50 4 85 10 85 6 0 10 -35 10 -85z m-93 -176 c9 -9 8 -15 -3 -26 -8 -8 -14 -28 -14 -44 0 -24 10 -37 57 -72 98 -72 123 -101 123 -138 0 -42 -38 -109 -50 -89 -5 8 -3 25 6 41 8 16 14 36 14 47 0 23 -50 70 -111 105 -95 54 -125 125 -73 166 31 24 36 25 51 10z m93 -79 c0 -27 -4 -50 -10 -50 -5 0 -10 23 -10 50 0 28 5 50 10 50 6 0 10 -22 10 -50z m-57 -145 c4 -8 2 -17 -3 -20 -6 -4 -10 -19 -10 -35 0 -22 15 -47 60 -96 60 -66 72 -98 48 -122 -20 -20 -31 -14 -24 13 9 35 -7 61 -70 121 -59 56 -67 84 -38 129 19 29 29 31 37 10z m57 -70 c0 -19 -4 -35 -10 -35 -11 0 -14 53 -3 63 11 12 13 8 13 -28z m-48 -159 c-3 -21 7 -40 38 -77 59 -70 45 -82 -18 -15 -38 40 -52 63 -52 84 0 16 3 32 7 36 14 14 28 -2 25 -28z m48 -16 c0 -11 -4 -20 -10 -20 -5 0 -10 9 -10 20 0 11 5 20 10 20 6 0 10 -9 10 -20z m-43 -127 c-16 -16 -17 -16 -17 3 0 26 11 37 24 24 7 -7 5 -16 -7 -27z"/> </g> </svg> 