<?xml version="1.0" standalone="no"?>
<!DOCTYPE svg PUBLIC "-//W3C//DTD SVG 20010904//EN"
 "http://www.w3.org/TR/2001/REC-SVG-20010904/DTD/svg10.dtd">
<svg version="1.0" xmlns="http://www.w3.org/2000/svg"
 width="900.000000pt" height="675.000000pt" viewBox="0 0 900.000000 675.000000"
 preserveAspectRatio="xMidYMid meet">
<metadata>
Created by potrace 1.10, written by Peter Selinger 2001-2011
</metadata>
<g transform="translate(0.000000,675.000000) scale(0.100000,-0.100000)"
fill="#c0c0c0" stroke="none">
<path d="M5480 5465 c-7 -8 -19 -15 -27 -15 -8 0 -35 -13 -60 -30 -24 -16 -46
-30 -50 -30 -3 0 -25 -13 -50 -30 -24 -16 -47 -30 -50 -30 -3 0 -22 -13 -43
-30 -21 -16 -41 -30 -44 -30 -4 0 -49 -32 -102 -72 l-95 -71 -27 24 c-59 53
-156 82 -272 83 -84 0 -108 -5 -198 -47 l-44 -19 -29 21 c-15 11 -37 21 -47
21 -10 0 -27 7 -38 15 -41 31 -152 12 -209 -35 -12 -10 -20 -9 -37 2 -48 30
-132 49 -176 39 -23 -5 -44 -5 -47 -1 -3 5 -4 31 -3 60 2 44 -1 54 -22 71 -66
50 -197 88 -311 89 -52 0 -215 -32 -247 -49 -11 -6 -31 -11 -44 -11 -13 0 -32
-7 -42 -15 -11 -8 -26 -15 -33 -15 -25 0 -170 -75 -264 -136 -123 -81 -228
-179 -287 -268 -44 -66 -47 -75 -47 -136 0 -56 4 -70 28 -102 33 -43 25 -52
-41 -44 -26 4 -368 8 -761 9 -626 2 -715 0 -722 -13 -4 -8 -12 -42 -19 -75 -6
-33 -18 -73 -25 -90 -7 -16 -16 -43 -18 -60 -3 -16 -22 -91 -42 -165 -20 -74
-40 -153 -44 -175 -4 -22 -13 -51 -19 -65 -5 -14 -18 -61 -27 -105 -10 -44
-23 -95 -31 -113 -8 -18 -14 -44 -14 -57 0 -13 -6 -39 -14 -57 -8 -18 -22 -69
-31 -113 -9 -44 -22 -91 -27 -105 -6 -14 -15 -43 -19 -65 -16 -78 -61 -251
-75 -283 -8 -18 -14 -45 -14 -60 0 -16 -4 -32 -8 -38 -5 -5 -19 -54 -31 -109
-13 -55 -27 -111 -33 -125 -6 -14 -14 -41 -19 -60 -4 -19 -17 -66 -29 -105
-12 -38 -25 -86 -29 -105 -4 -19 -13 -45 -20 -58 -7 -13 -12 -63 -12 -120 -1
-107 7 -128 74 -218 79 -107 194 -193 394 -295 64 -32 124 -59 133 -59 10 0
23 -6 29 -14 6 -8 22 -16 34 -19 22 -5 95 -31 132 -46 59 -24 169 -58 228 -71
21 -4 44 -13 50 -19 6 -6 25 -11 42 -11 17 0 40 -7 51 -15 10 -8 28 -14 39
-15 25 0 144 -27 206 -46 26 -8 62 -14 81 -14 19 0 38 -4 43 -9 9 -9 105 -28
270 -52 38 -6 77 -15 87 -20 9 -5 39 -9 67 -9 27 0 62 -5 78 -11 15 -6 64 -15
108 -20 44 -5 132 -15 195 -23 63 -7 120 -11 126 -9 5 2 37 -3 69 -12 33 -8
98 -15 145 -15 47 0 101 -5 120 -10 19 -6 161 -18 315 -27 565 -35 2085 -17
2199 27 15 5 69 10 119 10 51 0 111 5 135 10 24 6 67 12 95 14 108 8 334 37
394 51 34 8 79 15 101 15 21 0 52 4 68 10 26 9 76 18 283 50 29 5 58 13 64 19
6 6 26 11 45 11 18 0 54 6 80 14 26 7 83 21 127 31 44 9 95 23 113 31 18 8 46
14 62 14 16 0 31 4 34 9 3 5 22 12 41 15 38 7 133 37 175 54 14 6 59 23 100
38 135 48 351 151 436 208 100 66 120 82 174 137 73 75 76 79 110 155 24 52
30 80 30 133 0 40 -5 74 -14 86 -7 11 -16 34 -19 50 -10 56 -39 160 -48 170
-5 5 -9 23 -9 40 0 17 -7 40 -15 51 -8 10 -15 28 -15 40 0 11 -6 40 -14 65 -7
24 -21 71 -30 104 -10 33 -22 74 -27 90 -10 27 -28 112 -48 220 -4 22 -13 50
-19 62 -7 12 -12 37 -12 55 0 19 -4 38 -9 43 -8 9 -16 45 -52 213 -4 23 -13
51 -19 61 -5 11 -10 31 -10 45 0 14 -6 40 -14 58 -8 18 -19 60 -26 93 -6 33
-18 87 -26 120 -8 33 -18 78 -23 100 -4 22 -12 56 -18 75 -6 19 -19 71 -28
115 -9 44 -21 94 -27 110 -5 17 -14 51 -18 77 -5 26 -13 56 -19 67 -6 11 -11
35 -11 54 0 65 35 62 -710 61 -371 0 -710 -4 -752 -9 -95 -9 -100 2 -27 58 39
30 49 43 49 67 0 31 5 35 175 150 110 74 163 118 170 140 12 37 -13 76 -66
104 -27 15 -49 29 -49 31 0 3 23 16 50 30 68 35 90 58 90 98 0 24 -9 41 -32
64 -47 45 -99 63 -181 63 -59 0 -77 -4 -116 -28 -25 -16 -53 -31 -61 -35 -8
-4 -27 -15 -42 -25 -15 -9 -55 -35 -90 -56 -35 -22 -79 -52 -99 -68 -20 -15
-40 -28 -43 -28 -4 0 -31 -18 -60 -40 -29 -22 -57 -40 -63 -40 -5 0 -20 11
-33 25 -13 14 -28 25 -33 25 -6 0 -18 7 -28 16 -29 26 -154 23 -207 -6 -32
-17 -53 -21 -83 -17 -22 3 -43 8 -46 10 -12 12 10 46 35 55 36 13 70 47 78 77
9 35 -35 90 -83 105 -21 7 -42 16 -47 21 -6 5 -47 9 -92 9 -60 0 -85 -4 -94
-15z m157 -87 c27 -7 51 -17 55 -22 9 -13 -9 -46 -30 -53 -9 -4 -54 -29 -100
-57 -45 -28 -90 -55 -100 -61 -9 -5 -33 -21 -52 -35 -19 -14 -42 -29 -52 -35
-66 -39 -208 -143 -361 -265 -56 -44 -56 -45 -36 -61 21 -15 21 -16 -8 -34
-71 -48 -127 -67 -180 -62 -55 6 -103 30 -103 54 0 31 232 230 420 361 31 21
69 47 85 59 155 109 353 223 387 223 15 0 49 -6 75 -12z m1118 -2 c22 -8 41
-21 43 -29 3 -13 -55 -67 -83 -78 -9 -4 -167 -95 -253 -146 -20 -13 -44 -26
-52 -29 -8 -4 -31 -20 -51 -36 -20 -15 -42 -28 -48 -28 -6 0 -11 -4 -11 -9 0
-5 -9 -13 -20 -16 -21 -7 -70 -48 -70 -59 0 -3 9 -6 20 -6 11 0 20 -4 20 -10
0 -5 -6 -10 -14 -10 -7 0 -29 -13 -47 -30 -19 -16 -37 -30 -40 -30 -7 0 -150
-108 -159 -119 -39 -50 -114 -64 -176 -35 -42 20 -45 54 -9 82 13 11 52 44 87
75 35 30 99 83 143 117 44 34 82 66 83 71 2 5 8 9 14 9 6 0 27 14 48 30 21 17
40 30 43 30 4 0 35 20 70 45 36 25 67 45 70 45 3 0 34 19 69 43 35 23 75 48
89 56 13 8 48 30 78 48 60 36 94 40 156 19z m-3141 -37 c88 -16 130 -41 134
-78 2 -23 -3 -36 -24 -53 -15 -13 -34 -30 -43 -38 -18 -17 -129 -72 -181 -90
-19 -6 -94 -14 -166 -17 -153 -7 -174 0 -174 52 0 18 5 37 10 40 16 10 11 25
-9 25 -10 0 -24 -7 -31 -15 -7 -8 -16 -15 -21 -15 -4 0 -43 -24 -86 -52 -125
-85 -231 -205 -216 -243 8 -24 68 -48 104 -43 62 10 168 57 307 138 77 46 128
63 184 62 90 -1 112 -34 45 -68 -29 -16 -87 -64 -135 -114 -21 -21 -22 -26 -8
-36 22 -16 21 -20 -21 -45 -21 -13 -74 -50 -117 -83 -75 -57 -82 -61 -131 -60
-57 2 -105 26 -105 53 0 9 12 30 28 47 15 17 32 41 39 52 12 20 11 20 -20 10
-18 -6 -39 -17 -47 -24 -9 -7 -37 -23 -64 -35 -40 -17 -59 -20 -105 -14 -62 8
-121 29 -133 48 -4 7 -8 29 -8 51 0 98 151 265 345 382 57 35 180 94 195 94 5
0 24 6 42 14 147 61 282 79 412 55z m330 -204 c11 -8 32 -15 48 -15 42 0 35
-24 -18 -59 -25 -17 -48 -31 -52 -31 -4 0 -33 -19 -65 -43 -31 -23 -98 -71
-147 -107 -49 -36 -89 -71 -90 -77 -1 -40 121 14 217 94 89 76 257 191 339
233 41 20 43 20 103 4 33 -10 61 -23 61 -29 0 -15 -25 -37 -70 -61 -19 -10
-79 -53 -133 -94 -54 -41 -113 -85 -130 -98 -60 -43 -64 -50 -34 -61 15 -6 27
-14 27 -19 0 -5 -30 -24 -67 -43 -57 -29 -77 -34 -136 -34 -65 0 -70 2 -98 33
-17 19 -36 31 -42 28 -7 -3 -19 -10 -27 -15 -90 -51 -175 -64 -230 -33 -64 35
-57 49 101 187 73 63 310 225 332 225 6 0 21 7 31 15 25 19 55 19 80 0z m772
0 c27 -8 60 -15 73 -15 34 0 91 -38 91 -61 0 -30 -123 -122 -244 -182 -63 -31
-150 -40 -232 -24 -38 8 -44 6 -68 -20 -17 -18 -26 -39 -26 -61 0 -34 1 -34
38 -29 39 5 114 24 147 36 109 42 165 51 165 28 0 -8 -8 -17 -17 -21 -10 -3
-25 -10 -33 -15 -8 -6 -37 -20 -65 -31 -27 -12 -59 -25 -70 -30 -53 -23 -115
-29 -194 -20 -106 12 -143 26 -163 61 -15 26 -15 30 1 62 9 18 29 47 44 63 15
16 27 31 27 34 0 8 124 99 185 135 67 40 230 103 271 104 11 1 43 -6 70 -14z
m955 -6 c31 -15 40 -25 36 -39 -5 -19 -3 -19 32 -4 20 8 40 19 46 25 5 5 18 9
30 9 11 0 29 7 39 15 27 20 108 19 145 -2 30 -18 41 -38 34 -61 -7 -17 -162
-147 -246 -205 -23 -15 -44 -31 -47 -35 -5 -7 -28 -20 -135 -77 -123 -65 -230
-81 -298 -45 -20 11 -42 20 -48 20 -10 0 -94 -70 -198 -166 l-34 -31 32 -11
c32 -11 34 -32 4 -32 -9 0 -24 -6 -32 -14 -21 -18 -108 -46 -143 -46 -41 0
-106 29 -113 51 -3 10 -2 27 4 37 11 20 116 116 198 180 28 23 54 46 58 52 14
22 262 207 405 302 164 109 168 110 231 77z m1053 2 c57 -14 66 -28 36 -53
-21 -17 -123 -85 -206 -138 -53 -34 -173 -126 -173 -133 -1 -4 10 -12 24 -17
14 -5 25 -13 25 -18 0 -5 -34 -26 -74 -47 -69 -35 -80 -37 -136 -32 -45 4 -68
11 -85 27 -23 21 -23 24 -8 47 9 13 44 45 77 71 34 25 72 57 85 69 l25 22 -29
11 c-23 9 -26 13 -15 20 8 6 23 10 33 10 9 0 17 3 17 8 0 8 -2 7 134 75 53 27
98 52 101 58 4 5 16 9 28 9 12 0 31 8 42 16 11 8 29 13 40 10 11 -2 37 -9 59
-15z m-967 -493 c17 -16 23 -32 23 -64 0 -24 5 -46 10 -49 12 -8 13 -55 1 -55
-5 0 -11 14 -14 30 -5 22 -12 30 -27 30 -17 0 -19 4 -14 28 7 25 6 26 -10 13
-12 -10 -20 -11 -28 -3 -8 8 -7 22 7 52 10 22 20 40 23 40 3 0 16 -10 29 -22z
m-1714 0 c23 4 22 -15 -3 -28 -26 -14 -65 7 -48 27 5 7 15 10 22 6 6 -4 19 -6
29 -5z m-2703 -58 c13 -8 13 -15 -1 -57 -10 -26 -22 -73 -29 -103 -7 -30 -16
-65 -21 -78 -5 -13 -9 -35 -9 -50 0 -15 -6 -36 -14 -47 -7 -11 -16 -38 -18
-60 -3 -22 -10 -53 -16 -70 -32 -89 -54 -174 -48 -184 10 -15 46 -13 76 4 15
9 53 14 96 15 l72 0 5 38 c3 20 11 60 17 87 6 28 13 71 17 98 3 26 10 50 14
53 5 3 9 24 9 47 0 23 7 51 15 61 8 11 15 39 15 62 0 24 5 46 10 49 6 3 10 24
10 45 0 21 4 50 10 64 9 26 11 26 115 26 67 0 105 -4 105 -11 0 -5 -11 -50
-25 -99 -14 -49 -25 -105 -25 -124 0 -19 -4 -38 -10 -41 -5 -3 -10 -24 -10
-45 0 -21 -5 -51 -11 -67 -7 -15 -16 -48 -20 -73 -5 -25 -13 -67 -18 -95 -24
-124 -32 -174 -40 -227 -5 -31 -12 -62 -17 -69 -4 -8 -11 -36 -16 -64 -4 -27
-14 -81 -22 -118 -8 -37 -13 -74 -10 -81 3 -8 -2 -28 -10 -45 -9 -16 -16 -45
-16 -64 0 -19 -6 -50 -14 -68 -8 -19 -17 -69 -21 -112 -4 -42 -11 -80 -16 -82
-4 -3 -34 -10 -66 -16 -32 -6 -62 -14 -68 -19 -5 -4 -27 -10 -48 -14 -21 -4
-44 -9 -51 -12 -22 -8 -25 32 -5 63 10 15 19 43 19 61 0 18 4 40 9 50 10 19
40 164 48 232 3 25 12 54 19 65 8 11 14 33 14 50 0 17 7 40 15 51 8 10 15 27
15 38 0 20 3 20 -188 0 -72 -7 -82 -19 -82 -97 -1 -23 -7 -53 -15 -67 -8 -14
-14 -41 -15 -60 0 -20 -4 -40 -10 -46 -9 -9 -30 -106 -49 -224 -4 -25 -13 -55
-19 -67 -7 -12 -12 -39 -12 -60 0 -48 -14 -63 -59 -63 -20 0 -45 -7 -55 -15
-11 -8 -29 -15 -41 -15 -12 0 -30 -7 -41 -15 -10 -8 -29 -15 -41 -15 -26 0
-31 29 -12 77 17 44 39 132 39 157 0 12 7 31 15 42 8 10 15 34 15 52 0 18 5
42 10 52 6 11 17 52 26 92 25 124 30 144 39 158 5 8 12 32 16 55 5 22 18 78
29 125 12 47 25 104 29 128 4 24 13 48 19 54 7 7 12 27 12 45 0 18 4 41 9 51
12 21 51 189 51 218 0 11 7 29 15 40 8 10 15 35 15 55 0 19 4 39 9 45 9 8 34
115 48 201 l5 32 92 4 c50 1 93 4 96 5 3 1 12 -3 20 -8z m1580 -14 c38 -33
125 -45 176 -26 24 10 31 6 72 -35 l45 -46 -11 -107 c-12 -114 -20 -188 -31
-291 -7 -68 1 -58 -121 -163 l-54 -47 27 -80 c15 -44 27 -89 27 -99 0 -9 6
-26 14 -37 7 -11 16 -36 19 -56 5 -34 3 -37 -29 -53 -19 -9 -43 -16 -54 -16
-10 0 -41 -11 -69 -25 -63 -32 -86 -24 -94 32 -3 21 -15 79 -27 128 -13 50
-25 113 -29 140 -6 47 -8 50 -37 53 -40 4 -54 -26 -54 -118 0 -38 -7 -95 -15
-127 -8 -31 -15 -75 -15 -96 0 -22 -4 -56 -10 -76 -5 -20 -11 -47 -14 -61 -6
-31 -53 -56 -120 -64 -27 -3 -55 -11 -62 -17 -18 -15 -54 -1 -54 21 0 10 5 22
10 25 6 3 10 31 10 61 0 31 5 64 11 75 9 17 26 143 48 354 4 39 13 80 19 92 7
12 12 46 12 77 0 30 5 67 11 83 6 15 17 84 25 153 38 313 42 339 54 355 12 15
301 7 320 -9z m1390 6 c3 -4 3 -191 0 -417 l-5 -410 -105 -7 c-75 -4 -108 -3
-115 5 -7 8 -8 77 -3 202 5 105 10 288 13 409 3 120 7 221 9 225 5 8 199 1
206 -7z m390 8 c19 -10 19 -11 0 -44 -27 -45 -13 -84 41 -117 23 -13 48 -31
56 -39 21 -23 145 -18 203 9 27 12 49 16 54 11 11 -11 15 -115 5 -131 -5 -8
-12 -8 -29 1 -14 7 -53 11 -103 8 l-80 -3 -12 34 c-11 33 -14 35 -81 47 -39 6
-80 14 -91 18 -13 4 -24 2 -29 -6 -4 -6 -6 -150 -5 -320 l3 -307 -114 2 -113
2 0 355 0 355 59 62 58 62 77 4 c42 1 77 4 79 5 2 1 12 -3 22 -8z m1844 -10
c5 -5 11 -44 14 -87 2 -43 8 -86 13 -95 5 -9 11 -45 15 -80 3 -35 10 -92 15
-128 6 -36 14 -95 18 -131 5 -36 13 -75 20 -86 6 -12 11 -46 11 -76 0 -30 7
-71 15 -92 9 -20 13 -45 10 -55 -3 -10 1 -44 10 -74 9 -31 14 -60 10 -66 -10
-17 -50 -11 -75 10 -13 11 -29 20 -37 20 -7 0 -21 4 -31 9 -9 6 -51 19 -92 31
-158 44 -165 47 -169 66 -1 11 -8 26 -15 34 -7 8 -20 40 -31 70 -18 54 -52
110 -66 110 -15 0 -17 -46 -3 -75 8 -16 18 -51 21 -77 7 -60 -7 -68 -70 -39
-25 12 -61 21 -79 21 -55 1 -74 25 -83 105 -4 39 -11 108 -16 155 -5 47 -13
130 -17 185 -4 55 -12 107 -17 115 -5 8 -12 53 -16 100 -5 47 -11 98 -15 113
l-6 28 122 -3 c97 -2 124 -6 131 -18 17 -33 39 -89 39 -98 0 -5 7 -15 15 -22
8 -7 15 -23 15 -35 0 -12 7 -28 15 -35 8 -7 15 -17 15 -22 0 -6 13 -38 28 -72
27 -58 50 -110 74 -166 11 -28 39 -90 59 -132 7 -16 20 -28 31 -28 22 0 24 43
3 80 -8 14 -14 42 -15 63 0 21 -7 54 -15 74 -8 19 -15 61 -15 92 -1 31 -7 67
-15 81 -8 14 -14 50 -15 81 0 31 -7 70 -15 85 -20 38 -19 72 2 76 31 6 198 -4
207 -12z m-4473 -10 c-1 -8 -7 -37 -12 -65 -4 -27 -15 -81 -23 -120 -8 -38
-15 -87 -16 -107 0 -20 -4 -40 -10 -43 -5 -3 -10 -29 -10 -56 0 -28 -5 -60
-12 -72 -7 -12 -15 -47 -19 -77 -10 -72 -36 -224 -49 -278 -5 -23 -10 -59 -10
-80 0 -21 -7 -47 -15 -58 -8 -10 -15 -37 -15 -59 0 -22 -7 -51 -16 -63 -9 -13
-13 -29 -10 -37 6 -18 49 -20 79 -4 11 7 52 15 91 19 85 10 96 22 96 103 0 32
5 68 12 80 7 12 16 49 20 82 8 69 22 161 38 255 6 36 14 92 17 125 3 33 10 66
16 74 7 8 15 44 19 80 4 36 12 95 18 131 6 36 14 92 18 125 l7 60 113 3 c120
3 127 -1 102 -48 -5 -10 -15 -49 -20 -87 -6 -37 -15 -97 -21 -133 -18 -113
-30 -203 -37 -275 -4 -38 -11 -77 -17 -85 -5 -8 -13 -44 -17 -80 -4 -36 -12
-96 -18 -135 -17 -100 -30 -200 -36 -273 l-6 -62 -89 -83 c-93 -86 -100 -89
-224 -107 -71 -11 -145 -25 -200 -39 -100 -25 -90 -27 -150 30 -51 50 -55 57
-55 99 0 25 4 50 10 56 9 9 35 151 47 259 3 28 12 59 19 70 8 11 14 39 14 63
0 24 4 52 10 62 9 16 30 133 49 265 4 28 12 60 19 72 7 12 12 38 12 59 0 20 7
57 15 83 18 59 45 209 45 256 l0 36 113 -3 c93 -3 111 -5 108 -18z m1848 -44
l63 -64 -18 -216 -18 -217 -46 -38 c-25 -20 -57 -46 -72 -55 -16 -10 -28 -25
-28 -32 0 -8 14 -43 31 -79 40 -86 37 -109 -16 -112 -22 -1 -64 -8 -93 -14
-69 -15 -102 -2 -102 40 0 16 -7 34 -15 41 -8 7 -15 28 -15 48 0 44 -24 72
-62 72 l-28 0 0 -114 c0 -85 -4 -116 -14 -125 -8 -6 -40 -16 -72 -21 -33 -5
-73 -17 -90 -26 -55 -30 -63 -18 -58 88 3 51 10 115 15 141 5 26 9 83 9 125 0
42 5 93 11 112 11 36 27 209 35 403 l5 107 257 0 258 0 63 -64z m1698 39 c7
-51 27 -131 35 -139 4 -6 8 -24 8 -41 0 -17 5 -36 11 -42 6 -6 15 -29 19 -50
22 -100 43 -179 51 -187 5 -6 9 -24 9 -42 0 -17 7 -37 15 -44 8 -7 15 -24 15
-39 0 -14 7 -46 16 -70 24 -69 3 -89 -60 -56 -16 8 -59 18 -97 21 l-69 7 0 31
c0 18 -5 37 -10 42 -12 12 -40 162 -40 212 0 31 -22 53 -37 38 -9 -9 -24 -103
-31 -201 l-7 -90 -35 2 c-50 3 -131 13 -159 19 -23 5 -24 7 -17 77 3 40 11
106 17 147 6 41 14 111 18 155 3 44 12 90 19 102 6 12 12 56 12 98 l0 76 157
-3 c149 -3 158 -4 160 -23z m1559 14 c3 -6 9 -41 12 -78 3 -36 11 -75 18 -86
7 -11 14 -36 16 -55 l3 -35 -140 0 c-77 0 -152 4 -167 9 -27 8 -28 7 -28 -29
0 -20 5 -46 12 -58 7 -12 15 -49 19 -82 7 -57 23 -132 31 -140 2 -2 63 -6 136
-8 82 -3 137 -9 146 -16 8 -7 17 -38 21 -69 3 -31 10 -64 14 -72 5 -9 12 -44
16 -78 l7 -62 -29 0 c-16 0 -63 9 -104 19 -91 24 -171 30 -177 13 -2 -6 4 -22
12 -34 9 -12 16 -40 16 -61 0 -21 5 -48 12 -60 7 -12 15 -46 18 -74 7 -63 1
-65 -80 -27 -30 15 -64 30 -75 34 -65 24 -74 30 -84 62 -13 41 -43 240 -36
246 2 2 -2 17 -10 33 -8 15 -15 51 -15 79 0 28 -5 61 -11 73 -12 21 -20 74
-42 267 -7 58 -16 112 -22 120 -5 8 -13 42 -16 75 -4 33 -10 70 -14 83 l-7 22
270 0 c187 0 273 -3 278 -11z m650 -69 c74 -76 97 -115 108 -181 5 -32 25 -97
38 -122 5 -10 6 -27 3 -37 -5 -16 -15 -18 -108 -13 -57 3 -105 11 -109 17 -4
6 -8 25 -8 43 0 18 -5 44 -12 58 -11 24 -14 25 -111 25 -90 0 -99 -2 -92 -17
4 -10 9 -34 12 -53 3 -19 12 -44 19 -55 8 -11 14 -32 14 -47 0 -15 4 -47 10
-70 5 -24 12 -55 15 -70 5 -29 -16 -25 222 -44 l81 -6 90 -97 c52 -56 92 -108
96 -126 17 -74 28 -123 33 -158 3 -20 9 -40 14 -43 5 -3 9 -22 9 -43 0 -22 6
-44 15 -51 8 -7 15 -26 15 -43 0 -17 4 -44 10 -61 18 -58 52 -201 52 -219 -1
-10 -12 -29 -25 -41 -13 -12 -32 -36 -42 -54 -28 -46 -52 -45 -205 4 -58 19
-110 34 -117 34 -6 0 -40 20 -75 45 -35 25 -79 53 -98 62 -36 19 -39 21 -114
92 -35 34 -46 51 -46 75 0 17 -9 60 -20 94 -28 90 -27 106 8 98 41 -10 121
-26 172 -34 l45 -7 5 -51 c6 -59 20 -80 58 -87 55 -11 118 -29 144 -42 19 -9
29 -10 37 -2 14 14 14 40 1 53 -11 11 -50 161 -59 232 -8 61 -21 77 -64 78
-209 9 -250 25 -354 131 -46 47 -86 96 -88 107 -8 33 -25 136 -33 192 -5 29
-13 58 -19 65 -6 8 -13 37 -16 64 -2 28 -12 91 -22 141 l-18 91 29 47 c16 26
34 55 39 64 6 9 14 23 18 30 6 9 55 12 186 12 l179 0 78 -80z m-2653 -76 c8
-8 -3 -34 -14 -34 -5 0 -9 9 -9 20 0 19 11 26 23 14z m-20 -167 c2 -7 0 -55
-6 -106 -11 -91 -12 -95 -44 -113 -18 -11 -33 -24 -33 -30 0 -6 -16 -7 -41 -3
-33 6 -43 4 -54 -11 -13 -18 -14 -18 -33 -1 -16 15 -25 16 -41 8 -11 -6 -48
-11 -83 -11 l-63 0 -12 48 c-6 26 -9 59 -7 72 2 14 6 46 9 71 l6 47 47 -13
c27 -6 58 -17 69 -24 42 -22 203 -7 203 19 0 6 11 10 25 10 18 0 25 5 25 18 0
31 23 44 33 19z m2045 -63 c27 -8 30 -43 5 -73 -17 -21 -20 -21 -72 -8 -49 13
-67 27 -70 59 -2 19 91 34 137 22z m-2283 -250 c11 -8 42 -14 70 -15 27 0 73
-5 100 -10 28 -6 84 -16 125 -23 41 -8 88 -18 103 -25 16 -6 52 -11 81 -11 29
0 89 -9 134 -20 82 -21 286 -59 357 -68 22 -2 46 -9 53 -15 7 -5 29 -13 50
-17 20 -5 63 -15 95 -24 32 -9 69 -16 82 -16 13 0 27 -4 30 -10 3 -5 20 -10
37 -10 16 0 42 -6 56 -14 31 -16 160 -56 180 -56 7 0 20 -4 30 -9 24 -12 75
-29 157 -52 39 -11 83 -27 98 -35 16 -8 37 -14 47 -14 9 0 23 -7 30 -15 7 -8
18 -15 24 -15 6 0 23 -6 37 -14 14 -7 52 -21 85 -31 32 -10 70 -24 84 -31 35
-18 266 -127 315 -149 37 -15 72 -33 136 -68 13 -7 51 -30 84 -52 72 -47 95
-62 114 -71 24 -12 194 -127 235 -159 139 -107 229 -241 229 -340 0 -102 -65
-178 -248 -292 -11 -7 -29 -16 -40 -21 -11 -6 -58 -28 -105 -51 -47 -22 -92
-41 -101 -41 -9 0 -22 -6 -28 -14 -6 -8 -24 -16 -39 -19 -33 -6 -88 -25 -125
-43 -16 -8 -37 -14 -47 -14 -10 0 -31 -6 -47 -14 -15 -8 -55 -22 -88 -32 -33
-9 -78 -23 -100 -30 -23 -8 -52 -14 -67 -14 -14 0 -31 -6 -37 -14 -7 -8 -31
-16 -54 -19 -63 -6 -201 -38 -211 -48 -6 -5 -25 -9 -44 -9 -18 0 -42 -5 -54
-11 -11 -6 -45 -15 -77 -20 -31 -5 -103 -18 -161 -30 -58 -11 -133 -24 -166
-28 -34 -5 -67 -12 -74 -16 -13 -8 -57 -15 -230 -35 -52 -6 -124 -18 -160 -26
-36 -8 -93 -14 -128 -14 -35 0 -73 -5 -85 -12 -12 -6 -60 -15 -107 -19 -98 -9
-332 -33 -470 -50 -114 -13 -222 -9 -228 9 -3 9 13 12 58 12 34 0 71 5 82 11
11 6 62 17 112 25 126 18 184 29 231 42 22 6 78 18 125 27 47 10 99 24 117 31
17 8 39 14 49 14 10 0 31 5 48 10 17 6 69 21 116 34 95 27 147 44 172 57 10 5
24 9 32 9 15 0 86 27 196 74 19 8 46 17 60 21 14 4 95 41 180 82 218 107 365
205 478 320 34 35 62 68 62 74 0 5 8 17 19 28 36 36 75 151 79 234 5 98 -5
100 -90 14 -59 -59 -152 -120 -243 -162 -22 -10 -60 -27 -85 -39 -25 -12 -99
-39 -165 -60 -66 -21 -128 -42 -137 -47 -18 -9 -61 -21 -163 -44 -94 -21 -148
-36 -170 -46 -20 -10 -71 -20 -202 -39 -34 -5 -88 -16 -121 -25 -33 -8 -73
-15 -89 -15 -16 0 -34 -5 -40 -11 -6 -6 -44 -14 -84 -19 -41 -5 -128 -16 -195
-24 -67 -7 -130 -17 -142 -20 -11 -4 -58 -11 -104 -15 -45 -5 -101 -14 -123
-20 -22 -6 -84 -11 -137 -11 -53 0 -100 -4 -103 -10 -3 -5 -36 -10 -73 -10
-37 0 -148 -7 -247 -15 -376 -30 -1475 -41 -1475 -14 0 8 170 19 315 19 66 1
170 6 230 11 61 6 171 14 245 19 150 9 291 23 420 40 47 6 121 15 166 19 44 4
87 12 95 17 8 5 46 12 84 16 74 7 156 20 243 37 28 6 74 15 101 20 27 5 59 14
70 20 11 6 35 11 55 11 19 0 38 5 41 10 3 6 17 10 30 10 41 0 55 11 55 42 0
27 -3 30 -22 24 -48 -15 -398 -56 -478 -56 -36 0 -83 -5 -105 -11 -50 -13
-478 -38 -925 -54 -160 -6 -481 -6 -675 -1 -458 14 -592 20 -607 27 -9 5 -70
9 -135 9 -65 0 -136 5 -158 11 -22 6 -83 15 -135 19 -52 5 -117 13 -145 18
-27 6 -86 13 -130 17 -44 4 -84 11 -90 15 -5 5 -37 10 -70 12 -33 3 -73 10
-90 16 -28 10 -114 28 -180 39 -16 2 -43 10 -60 18 -16 7 -48 18 -70 25 -140
44 -271 140 -190 140 14 0 25 5 25 12 0 14 40 58 52 58 5 0 25 11 46 23 20 13
49 27 65 31 15 3 27 10 27 15 0 5 13 12 30 16 16 4 30 11 30 16 0 5 8 9 18 9
23 0 134 39 147 51 5 5 18 9 30 9 11 0 29 7 39 15 11 8 29 15 40 15 12 0 44 7
71 16 49 16 69 24 148 58 21 9 42 16 48 16 6 0 25 6 42 14 18 8 43 17 57 20
61 13 160 40 220 58 36 12 81 24 100 28 19 4 43 11 53 15 27 11 20 -8 -22 -61
-49 -62 -76 -140 -67 -195 7 -47 42 -119 56 -119 15 0 12 -36 -5 -50 -18 -15
-29 -71 -21 -105 4 -15 26 -40 51 -57 25 -18 45 -35 45 -39 0 -17 -44 -19
-112 -5 -40 8 -134 20 -208 26 -74 6 -180 15 -235 20 -55 5 -133 12 -174 16
-41 3 -88 10 -105 15 -17 5 -59 9 -93 9 -34 0 -64 4 -67 9 -3 5 -33 11 -66 13
-84 6 -91 17 -39 67 24 22 51 43 61 47 10 3 18 11 18 18 0 7 12 17 28 23 l27
11 -27 1 c-16 1 -28 -3 -28 -9 0 -5 -8 -10 -18 -10 -9 0 -40 -15 -67 -33 -28
-18 -76 -45 -108 -62 -32 -16 -60 -32 -63 -36 -2 -4 10 -11 28 -14 18 -4 42
-14 53 -21 11 -8 34 -14 53 -14 18 0 42 -5 53 -11 43 -23 318 -62 554 -78 66
-5 138 -13 160 -19 22 -6 135 -13 250 -17 237 -7 438 -15 505 -21 25 -2 288
-6 585 -9 436 -4 572 -2 704 10 90 8 178 17 196 21 29 5 63 39 51 52 -3 3 -97
7 -208 9 -181 3 -321 12 -653 44 -55 6 -138 14 -185 18 -47 5 -105 13 -130 19
-72 17 -274 52 -303 52 -14 0 -29 5 -32 10 -3 5 -20 10 -37 10 -16 0 -44 6
-61 14 -18 8 -41 16 -52 19 -76 20 -170 62 -212 93 -17 13 -36 24 -42 24 -21
0 -61 79 -61 121 0 66 62 149 178 238 55 43 73 37 61 -20 -6 -23 -7 -56 -3
-73 14 -63 97 -147 196 -198 24 -12 45 -26 46 -30 2 -4 13 -8 25 -8 12 -1 40
-9 62 -20 47 -23 85 -26 85 -7 0 19 -36 49 -93 78 -184 92 -158 220 74 374 79
53 200 115 224 115 9 0 23 4 33 9 9 5 44 19 77 31 33 12 74 28 90 35 77 34
117 46 206 64 53 10 106 24 117 30 11 6 36 11 54 11 18 0 42 7 52 15 11 8 31
15 45 15 49 0 266 31 315 46 30 8 93 14 165 14 64 0 148 5 186 11 86 13 516
19 531 7 6 -4 56 -11 112 -14 96 -7 121 -14 87 -28 -8 -3 -122 -6 -253 -7
-285 -2 -422 -8 -422 -20 0 -5 7 -9 15 -9 8 0 15 -4 15 -10 0 -16 -78 -12 -87
4 -7 12 -25 13 -104 6 -53 -4 -106 -13 -117 -19 -11 -6 -48 -11 -81 -11 -40 0
-65 -5 -75 -15 -9 -9 -34 -15 -66 -15 -50 0 -156 -20 -215 -41 -16 -6 -48 -15
-70 -19 -44 -9 -68 -17 -191 -63 -74 -28 -115 -59 -99 -75 3 -3 34 2 69 11 36
9 76 17 90 17 13 0 27 4 30 9 3 4 42 11 87 14 45 3 86 10 92 16 6 6 34 11 62
12 27 0 84 7 125 15 48 9 172 17 343 21 261 6 377 0 542 -29 61 -10 151 -23
265 -37 36 -5 93 -14 127 -21 58 -11 63 -11 92 11 24 17 28 26 21 40 -7 11 -6
27 0 44 5 14 10 44 10 66 l0 39 108 0 c59 0 112 -4 119 -8 9 -6 11 -29 5 -87
l-7 -80 -55 -3 c-75 -4 -94 -13 -50 -23 19 -5 80 -6 135 -3 74 5 125 2 195
-11 186 -34 244 -41 315 -36 11 1 43 -3 70 -8 108 -22 173 -33 236 -39 63 -7
76 -13 124 -57 29 -26 40 -61 22 -68 -17 -7 -129 8 -177 22 -19 6 -66 11 -103
11 -38 0 -77 4 -87 10 -18 10 -188 24 -465 39 -131 7 -143 10 -185 37 -25 16
-54 35 -65 41 -70 43 -182 70 -173 42 2 -8 21 -15 41 -17 25 -2 37 -8 37 -19
0 -20 -45 -15 -203 20 -185 42 -186 7 -2 -47 166 -49 282 -115 310 -177 15
-33 15 -39 2 -65 -8 -16 -35 -43 -59 -61 -75 -53 -323 -149 -358 -138 -25 8
-26 35 -2 35 34 0 129 77 151 123 28 57 26 71 -14 142 -26 46 -39 60 -57 60
-15 0 -22 -5 -19 -15 12 -49 11 -57 -17 -85 -42 -43 -206 -122 -297 -144 -89
-21 -143 -23 -167 -7 -17 12 -35 14 -78 9 -30 -3 -62 -9 -70 -13 -8 -4 -145
-11 -305 -15 -159 -4 -301 -12 -315 -17 -33 -13 -200 -12 -213 1 -15 15 35 31
97 31 30 0 70 7 89 15 21 8 67 15 106 15 38 0 82 5 97 10 15 6 108 13 208 16
100 4 215 11 256 18 98 15 209 13 220 -4 23 -37 158 16 233 91 30 30 37 45 37
76 -1 21 -8 47 -18 58 -56 66 -162 115 -246 115 -23 0 -48 6 -54 13 -25 24
-525 47 -598 27 -25 -7 -89 -14 -142 -15 -152 -4 -154 -4 -150 -17 3 -7 15
-15 29 -19 22 -7 22 -7 -6 -8 -16 0 -50 4 -73 10 -47 10 -115 3 -106 -12 3 -5
16 -9 29 -9 13 0 31 -3 40 -6 13 -5 14 -8 3 -15 -22 -14 -94 -10 -108 6 -16
19 -82 19 -135 0 -22 -8 -57 -15 -77 -15 -20 0 -40 -4 -43 -10 -3 -5 -17 -10
-31 -10 -25 0 -142 -37 -159 -50 -5 -5 -36 -17 -67 -28 -49 -17 -124 -61 -179
-105 -40 -31 -56 -85 -51 -168 3 -44 84 -124 165 -163 116 -56 194 -77 348
-95 36 -4 71 -11 78 -16 13 -8 39 -11 286 -39 276 -31 332 -36 473 -41 79 -3
153 -10 165 -14 33 -13 482 -13 647 0 80 6 213 14 295 19 194 11 352 26 440
40 39 7 93 15 120 19 28 4 57 11 65 16 8 5 35 13 60 17 95 15 154 28 204 43
113 35 152 47 171 55 11 5 32 11 46 14 23 5 94 35 129 55 8 5 32 17 54 27 38
19 96 79 96 100 0 6 7 17 15 24 11 9 15 34 15 97 0 79 -2 87 -35 139 -20 30
-57 76 -84 103 -58 55 -194 151 -215 151 -8 0 -18 4 -21 10 -8 13 -145 80
-165 80 -9 0 -20 4 -25 9 -15 14 -117 51 -141 51 -12 0 -27 7 -34 15 -7 8 -25
15 -39 15 -15 0 -36 7 -47 15 -10 8 -29 15 -40 15 -12 0 -38 7 -57 15 -20 8
-47 15 -61 15 -13 0 -37 7 -52 15 -16 8 -39 15 -52 15 -13 0 -32 5 -43 11 -50
26 -414 84 -616 97 -56 4 -105 10 -109 14 -13 13 14 56 38 61 47 9 134 4 153
-9z m-122 -126 c2 -18 3 -35 1 -37 -8 -8 -22 13 -29 42 -6 20 -4 27 8 27 9 0
17 -13 20 -32z m273 -63 c23 -5 33 -28 26 -59 -3 -16 -10 -17 -50 -11 -26 3
-77 10 -114 13 -76 8 -95 20 -80 49 10 17 20 19 104 16 51 -2 103 -6 114 -8z
m206 4 c23 -13 121 -37 181 -46 20 -3 37 -9 37 -13 0 -5 18 -11 40 -15 24 -4
40 -12 40 -21 0 -20 -39 -27 -90 -15 -36 8 -48 7 -62 -6 -12 -11 -27 -13 -50
-9 -18 4 -59 11 -91 16 -84 14 -97 24 -97 69 0 21 3 41 7 44 10 11 62 8 85 -4z
m2168 -89 c78 -50 79 -102 3 -147 -48 -28 -51 -28 -200 3 -12 2 -35 18 -53 35
-39 39 -27 59 36 59 45 0 72 16 134 81 17 18 26 23 28 14 2 -8 25 -28 52 -45z
m-1790 31 c0 -6 -5 -13 -10 -16 -15 -9 -43 3 -35 15 8 13 45 13 45 1z m61 -36
c0 -13 -41 -19 -41 -7 0 11 20 22 33 18 5 -1 8 -6 8 -11z m24 -58 c33 -16 70
-32 83 -38 61 -25 73 -35 91 -73 11 -23 22 -60 26 -83 6 -40 5 -43 -17 -43
-61 2 -189 27 -201 40 -15 16 -67 173 -67 201 0 17 10 31 19 26 3 -1 33 -15
66 -30z m160 2 c10 -16 -1 -22 -26 -14 -17 6 -19 9 -8 16 19 12 26 11 34 -2z
m-802 -21 c8 -25 -6 -47 -46 -74 -23 -16 -52 -36 -64 -47 -19 -17 -27 -18 -76
-7 -83 17 -190 30 -312 39 -118 8 -185 31 -185 62 0 24 41 28 324 29 138 0
252 3 255 5 10 11 100 4 104 -7z m-969 -4 c30 -12 16 -24 -28 -24 -44 0 -68
13 -44 23 19 8 54 8 72 1z m1856 -9 c7 -8 20 -15 29 -15 9 -1 48 -18 88 -38
151 -77 239 -137 314 -211 85 -85 109 -136 109 -229 0 -47 -2 -53 -15 -42 -8
7 -15 19 -15 26 0 8 -4 22 -9 32 -5 9 -19 41 -32 70 -26 59 -110 151 -204 223
-59 45 -107 72 -257 144 -43 21 -78 41 -78 46 0 15 57 10 70 -6z m-1996 -24
c9 -14 -14 -18 -79 -15 -80 4 -81 6 -10 14 33 4 65 7 72 8 6 1 14 -2 17 -7z
m326 -4 c0 -29 -23 -35 -90 -24 -73 12 -74 12 -67 24 3 4 39 9 81 11 60 2 76
0 76 -11z m-521 -26 c11 -7 5 -11 -22 -16 -40 -8 -67 -2 -67 15 0 12 70 13 89
1z m-111 -33 c-5 -15 -52 -23 -76 -13 -15 6 -15 8 3 15 32 14 77 12 73 -2z
m2389 -32 c4 -8 32 -26 60 -41 29 -14 67 -39 85 -55 26 -24 29 -30 15 -36 -9
-3 -26 1 -39 10 -14 10 -44 16 -83 16 -34 0 -66 5 -73 12 -7 7 -12 34 -12 60
0 41 3 48 20 48 10 0 23 -6 27 -14z m1158 -31 c22 -8 60 -15 85 -15 25 -1 61
-9 80 -18 29 -15 35 -22 37 -57 4 -66 1 -67 -84 -23 -43 22 -114 55 -158 73
-43 18 -81 37 -83 44 -5 16 74 14 123 -4z m-3048 -29 c3 -3 -44 -6 -106 -6
-65 0 -110 4 -107 9 7 10 203 8 213 -3z m-347 -32 c0 -2 -24 -3 -52 -3 -48 2
-49 2 -18 8 33 6 70 3 70 -5z m563 -1 c-13 -2 -35 -2 -50 0 -16 2 -5 4 22 4
28 0 40 -2 28 -4z m109 -5 c-8 -8 -17 -8 -34 0 -22 10 -21 11 12 11 26 1 31
-2 22 -11z m-209 -27 c16 -6 59 -11 97 -11 63 0 94 -10 72 -24 -5 -3 -129 -6
-276 -7 -146 0 -279 -4 -294 -8 l-27 -8 25 -5 c14 -3 164 -6 335 -7 352 -3
467 -17 504 -62 28 -34 26 -52 -9 -73 -27 -16 -49 -17 -198 -12 -231 7 -666
-9 -917 -34 -115 -12 -247 -25 -291 -29 -45 -5 -87 -12 -94 -16 -6 -4 -39 -11
-73 -16 -70 -9 -218 -41 -292 -63 -27 -8 -60 -18 -72 -22 -31 -9 -30 10 3 53
44 58 186 135 354 193 36 12 79 29 97 36 17 8 41 14 54 14 12 0 36 4 53 9 66
21 218 51 253 51 21 1 49 7 63 15 16 9 55 15 105 15 44 1 93 6 108 13 36 15
380 14 420 -2z m341 4 c3 -8 15 -15 26 -15 20 0 62 -25 104 -62 32 -29 12 -31
-28 -4 -20 14 -53 30 -71 36 -19 6 -35 16 -35 21 0 5 -15 9 -34 9 -42 0 -68 9
-60 21 9 16 91 11 98 -6z m-1219 -30 c0 -5 -22 -11 -50 -13 -27 -2 -54 -7 -60
-11 -16 -13 -93 -22 -99 -12 -3 5 17 11 46 13 33 4 54 11 60 22 7 13 21 16 56
14 26 -2 47 -7 47 -13z m-237 -57 c-3 -7 -21 -14 -41 -16 -20 -2 -37 -7 -37
-12 0 -4 -12 -11 -27 -15 -94 -23 -234 -103 -300 -172 -41 -42 -43 -43 -43
-18 0 38 76 108 157 145 37 18 85 40 106 51 21 10 46 19 56 19 10 0 32 7 47
15 36 18 87 20 82 3z m-695 -25 c-9 -16 -28 -42 -41 -60 -16 -22 -26 -51 -29
-93 -3 -33 -9 -60 -12 -60 -11 0 -55 55 -75 93 -17 32 -17 39 -4 79 l15 43 65
5 c37 3 70 8 74 13 18 18 23 4 7 -20z m2991 -69 c27 -8 66 -14 85 -14 20 0 65
-6 101 -14 36 -8 94 -20 130 -26 122 -22 155 -29 215 -44 33 -8 85 -22 116
-29 30 -8 65 -19 77 -26 11 -6 27 -11 35 -11 26 0 137 -54 137 -67 0 -16 -41
-34 -185 -79 -66 -20 -124 -40 -130 -44 -5 -4 -28 -10 -50 -13 -22 -2 -80 -14
-130 -26 -49 -13 -113 -26 -142 -31 -28 -4 -58 -12 -65 -17 -7 -4 -47 -11 -88
-14 -41 -4 -108 -12 -148 -19 l-73 -13 -35 42 c-20 22 -44 41 -54 41 -10 0
-22 5 -25 10 -3 6 -22 10 -41 10 -34 0 -35 -1 -29 -33 10 -52 -11 -63 -77 -42
-29 10 -60 24 -70 32 -12 11 -18 11 -24 2 -4 -7 0 -17 9 -24 50 -36 -32 -94
-97 -69 -18 7 -22 24 -5 24 15 0 69 56 62 64 -13 13 -43 5 -43 -10 0 -13 -7
-15 -31 -10 -17 3 -38 6 -45 6 -8 0 -19 12 -24 26 -13 34 4 57 38 51 14 -3 59
4 101 14 184 47 203 50 221 34 9 -8 23 -15 31 -15 8 0 31 -9 52 -20 20 -11 43
-20 49 -20 7 0 35 -11 63 -24 53 -26 65 -25 65 3 0 26 -94 69 -171 78 -56 7
-64 11 -67 30 -3 17 5 26 33 37 38 16 79 53 107 97 l17 26 122 -5 c101 -4 121
-2 117 9 -3 9 -22 15 -49 16 -77 5 -190 34 -196 52 -3 9 -9 26 -15 38 -22 46
10 50 126 17z m860 -78 c-3 -9 3 -17 16 -21 12 -4 20 -13 18 -23 -5 -25 -24
-25 -47 -1 -27 29 -28 59 -1 59 13 0 17 -5 14 -14z m-1347 -43 c3 -7 -16 -33
-42 -57 -36 -35 -62 -50 -115 -66 -37 -11 -73 -27 -80 -35 -7 -8 -26 -15 -42
-15 -17 0 -52 -11 -80 -25 -27 -14 -62 -25 -78 -25 -42 0 -60 -10 -60 -32 0
-16 4 -19 23 -14 33 10 257 25 273 19 8 -3 14 -19 14 -38 0 -30 -5 -36 -52
-59 -93 -45 -159 -52 -418 -45 -274 8 -562 25 -675 40 -44 6 -118 15 -165 19
-47 5 -107 13 -135 19 -72 15 -259 41 -294 41 -32 0 -38 13 -21 40 6 9 34 17
77 21 260 25 316 31 379 40 40 5 279 9 566 9 419 -1 501 1 525 13 15 8 56 21
91 27 42 9 66 19 73 31 5 11 17 19 26 19 23 0 146 61 156 77 10 17 49 13 54
-4z m-3829 -31 c3 -16 -7 -26 -38 -42 -23 -12 -45 -19 -48 -15 -4 3 -1 10 6
14 9 5 11 17 6 36 -6 25 -5 28 15 22 11 -3 24 -1 27 4 9 16 29 4 32 -19z
m2042 -80 c0 -14 -11 -21 -26 -15 -8 3 -11 9 -8 14 7 11 34 12 34 1z m5073
-23 c16 -15 18 -23 9 -26 -14 -5 -7 -69 10 -90 5 -7 8 -20 6 -29 -3 -15 -8
-13 -38 12 -19 17 -42 33 -50 36 -9 3 -22 17 -29 32 -13 24 -13 28 5 40 10 8
28 21 39 30 25 19 22 20 48 -5z m-5187 0 c9 -16 -18 -30 -33 -17 -7 6 -10 14
-7 19 7 13 31 11 40 -2z m-68 -37 c2 -7 -7 -12 -22 -12 -27 0 -35 15 -13 23
17 7 30 3 35 -11z m-2270 -24 c18 -18 15 -48 -5 -55 -10 -4 -20 -10 -23 -15
-4 -4 -20 -11 -38 -14 -41 -8 -42 8 -2 38 17 12 30 30 30 40 0 21 20 24 38 6z
m1348 -43 c4 -8 14 -15 25 -15 10 0 22 -6 26 -13 9 -14 147 -77 170 -77 8 0
27 -6 41 -14 36 -19 118 -44 173 -51 24 -4 53 -11 64 -15 19 -8 54 -15 210
-41 128 -20 293 -39 355 -39 37 0 70 -4 75 -9 6 -5 80 -11 165 -14 177 -6 172
-6 145 -16 -22 -9 -731 -3 -755 6 -8 3 -42 9 -75 13 -56 7 -224 52 -305 81
-145 51 -350 174 -350 209 0 16 30 12 36 -5z m4914 -135 c0 -21 -14 -42 -61
-87 -33 -32 -66 -60 -72 -63 -7 -3 -31 -17 -54 -32 -24 -16 -45 -28 -48 -28
-3 0 -33 -13 -67 -29 -35 -16 -92 -39 -128 -52 -36 -12 -69 -26 -74 -31 -6 -4
-21 -8 -33 -8 -13 0 -34 -6 -46 -14 -12 -7 -66 -24 -120 -36 -54 -13 -100 -27
-103 -32 -3 -4 -23 -8 -45 -8 -21 0 -47 -4 -57 -9 -23 -13 -133 -39 -214 -51
-37 -6 -79 -15 -93 -20 -15 -6 -42 -10 -61 -10 -20 0 -56 -6 -82 -14 -26 -8
-110 -21 -187 -30 -77 -9 -169 -21 -205 -27 -36 -6 -115 -14 -175 -18 -61 -4
-117 -11 -124 -16 -15 -8 -157 -17 -646 -39 -274 -12 -1111 -12 -1180 0 -108
19 -298 24 -314 8 -3 -2 4 -11 15 -20 21 -16 49 -17 -470 2 -151 6 -178 5
-174 -7 3 -10 33 -16 109 -20 57 -3 124 -11 149 -17 116 -28 1559 -51 1875
-29 61 4 201 12 312 17 111 6 225 15 254 20 28 6 78 10 111 10 32 0 103 7 156
15 53 8 162 21 242 30 80 9 177 22 215 31 39 8 81 14 94 14 13 0 53 7 90 15
77 17 306 63 371 75 25 5 77 18 115 29 39 12 90 26 115 32 25 6 53 15 62 20
10 5 27 9 39 9 11 0 33 7 47 15 51 28 182 73 188 64 3 -5 1 -9 -4 -9 -6 0 -24
-13 -42 -30 -34 -32 -357 -194 -460 -230 -36 -13 -87 -33 -115 -45 -27 -12
-103 -39 -168 -60 -64 -20 -120 -41 -123 -46 -3 -5 -18 -9 -34 -9 -16 0 -39
-4 -52 -9 -13 -6 -68 -22 -123 -37 -55 -15 -104 -31 -109 -35 -6 -5 -25 -9
-44 -9 -18 0 -43 -5 -55 -12 -12 -6 -51 -17 -87 -24 -103 -21 -174 -38 -188
-48 -8 -5 -39 -12 -70 -17 -123 -18 -180 -29 -206 -39 -15 -5 -60 -13 -99 -16
-40 -4 -84 -13 -99 -20 -15 -8 -56 -14 -91 -14 -36 0 -82 -6 -103 -14 -35 -12
-174 -27 -279 -31 -22 -1 -53 -7 -68 -13 -31 -13 -385 -9 -662 9 -88 5 -226
14 -307 18 -81 5 -152 12 -159 17 -7 4 -60 11 -118 15 -58 5 -151 15 -206 23
-55 7 -140 19 -190 26 -49 7 -113 19 -142 26 -28 8 -66 14 -85 14 -19 0 -54 6
-79 14 -24 7 -87 21 -139 31 -52 9 -106 21 -120 27 -14 6 -43 14 -65 19 -22 4
-65 14 -95 23 -30 8 -75 20 -100 27 -25 6 -58 17 -75 24 -16 7 -41 18 -55 23
-14 6 -36 14 -50 17 -23 6 -40 13 -125 49 -232 100 -405 231 -471 356 -16 30
-35 59 -41 63 -7 4 -13 15 -13 22 0 21 -16 19 -24 -2 -3 -10 -11 -26 -18 -35
-10 -14 -9 -20 5 -36 9 -10 17 -25 17 -33 0 -8 5 -20 10 -25 12 -12 -9 -64
-27 -64 -7 0 -17 9 -23 20 -9 17 -7 22 12 29 22 8 21 9 -12 16 -19 5 -42 9
-50 9 -21 1 -32 69 -27 154 5 68 -5 95 -20 55 -4 -10 -13 -23 -21 -28 -15 -12
-20 -183 -5 -194 4 -3 21 -25 37 -48 39 -59 96 -109 196 -174 84 -55 312 -160
400 -185 25 -7 77 -24 115 -37 39 -14 97 -32 130 -41 33 -10 82 -24 109 -32
26 -7 58 -14 70 -14 12 0 26 -4 31 -9 6 -6 35 -14 65 -20 87 -16 197 -38 305
-61 55 -12 127 -24 160 -27 33 -3 64 -9 70 -14 5 -5 28 -9 51 -9 23 0 78 -7
122 -15 45 -9 120 -20 169 -25 48 -5 126 -14 173 -20 141 -18 261 -30 340 -35
41 -2 172 -11 290 -19 344 -24 568 -31 1010 -30 460 2 732 9 920 25 69 6 224
17 345 25 264 17 385 28 485 42 41 7 121 19 178 27 57 8 138 18 180 22 42 3
82 9 87 13 6 4 41 10 79 13 37 4 73 10 80 15 6 5 31 12 56 15 62 8 243 43 315
61 33 8 80 19 105 25 25 6 54 15 65 20 11 5 43 13 70 19 78 16 134 31 153 42
9 5 65 25 124 44 60 20 116 40 125 45 19 10 98 46 123 55 8 3 42 21 75 41 33
19 68 38 78 41 9 3 17 10 17 15 0 5 7 9 15 9 19 0 165 144 165 163 0 8 7 20
15 27 23 19 21 183 -2 209 -30 33 -43 50 -43 56 0 4 -6 12 -12 19 -42 43 -88
106 -88 121 0 3 8 5 19 5 28 0 143 -118 170 -175 13 -28 28 -58 32 -67 5 -10
9 -43 9 -74 0 -126 -120 -279 -300 -383 -98 -57 -143 -81 -152 -81 -5 0 -22
-6 -36 -14 -49 -26 -174 -76 -189 -76 -8 0 -27 -6 -41 -14 -24 -13 -70 -27
-287 -91 -27 -8 -93 -24 -145 -36 -52 -11 -105 -25 -118 -30 -13 -5 -36 -9
-52 -9 -16 0 -41 -5 -57 -11 -15 -7 -48 -15 -73 -20 -25 -4 -101 -17 -170 -29
-69 -12 -157 -26 -197 -30 -40 -5 -78 -12 -85 -16 -6 -4 -48 -11 -92 -15 -45
-5 -117 -13 -161 -19 -140 -18 -256 -30 -408 -40 -82 -5 -154 -13 -160 -17
-10 -6 -83 -10 -607 -32 -296 -13 -878 -13 -1165 -1 -419 18 -590 28 -605 34
-8 3 -80 10 -160 16 -147 10 -237 19 -410 40 -52 7 -124 16 -160 20 -36 4 -94
13 -130 19 -56 10 -279 48 -420 71 -25 4 -67 13 -95 20 -84 20 -116 28 -220
50 -55 12 -108 26 -118 31 -10 5 -37 14 -60 18 -58 12 -227 64 -312 95 -75 28
-100 39 -241 103 -93 43 -227 129 -293 190 -91 83 -141 179 -141 272 0 34 4
61 10 61 6 0 10 11 10 24 0 13 7 29 15 36 8 7 15 18 15 25 0 20 59 95 75 95 9
0 18 7 21 15 4 8 13 15 21 15 12 0 15 -9 11 -44 -4 -35 -2 -46 11 -50 26 -10
74 -38 100 -57 20 -16 21 -20 7 -25 -23 -9 -20 -24 6 -24 12 0 29 -6 37 -14
47 -41 159 -89 306 -130 33 -9 83 -23 110 -31 28 -8 64 -16 80 -19 17 -2 84
-16 150 -30 66 -14 134 -26 152 -26 17 0 44 -5 60 -11 15 -7 66 -16 113 -20
168 -17 256 -28 300 -39 25 -6 65 -13 90 -16 25 -4 64 -12 88 -20 23 -8 65
-14 92 -14 27 0 60 -4 73 -9 14 -6 75 -13 136 -17 101 -6 113 -5 125 11 12 17
31 18 226 16 119 -1 221 -6 231 -12 44 -23 1338 19 1554 50 39 6 106 13 150
17 44 3 89 10 100 15 11 5 67 13 125 19 186 17 452 59 466 73 4 4 20 7 35 7
53 0 344 59 394 80 11 5 44 12 72 15 29 4 55 11 59 16 3 5 15 9 28 9 25 0 155
38 171 50 6 5 28 11 50 15 22 4 45 11 50 15 6 4 26 11 45 15 19 4 41 11 50 15
8 4 35 16 60 27 152 69 190 88 190 93 0 3 17 14 38 23 20 9 57 34 81 56 25 22
48 38 53 35 4 -3 8 -18 8 -34z m-4809 -65 c35 -19 30 -35 -12 -35 -24 0 -29 4
-29 25 0 29 2 30 41 10z m6093 -137 c9 -37 7 -128 -4 -149 -6 -10 -17 -19 -24
-19 -9 0 -12 -7 -10 -17 6 -22 -88 -123 -115 -123 -6 0 -17 -11 -23 -25 -6
-14 -19 -25 -28 -25 -10 0 -23 -7 -30 -15 -7 -8 -19 -15 -28 -15 -8 0 -37 -14
-64 -30 -27 -17 -54 -28 -59 -24 -11 6 -75 -21 -84 -36 -3 -6 -16 -10 -29 -10
-13 0 -31 -9 -40 -19 -10 -11 -32 -23 -50 -26 -47 -10 -112 -33 -159 -56 -23
-11 -62 -22 -87 -25 -25 -3 -65 -12 -90 -19 -98 -30 -196 -56 -225 -60 -111
-17 -298 -58 -340 -75 -11 -4 -39 -8 -62 -8 -23 -1 -50 -5 -60 -10 -10 -6 -49
-13 -88 -16 -38 -4 -86 -11 -105 -16 -19 -6 -96 -17 -170 -25 -74 -8 -168 -19
-208 -24 -166 -22 -528 -35 -538 -20 -9 15 15 19 167 29 85 5 181 15 214 21
33 6 89 15 125 19 36 5 103 16 150 24 80 15 144 25 287 45 34 5 84 16 110 24
51 16 72 22 253 63 63 14 151 37 195 49 129 37 161 45 181 45 10 0 44 12 74
27 65 31 66 32 194 72 55 18 111 38 125 45 41 22 98 46 109 46 5 0 15 7 23 16
8 10 21 13 36 9 19 -4 23 -2 21 12 -2 13 5 19 27 21 17 2 39 12 50 22 26 23
100 60 120 60 9 0 18 7 21 15 4 9 31 33 61 54 59 43 90 78 90 102 0 20 54 89
69 89 7 0 14 -10 18 -22z m-7164 -23 c0 -10 -10 -15 -30 -15 -29 0 -38 9 -23
23 13 13 53 7 53 -8z m115 -29 c11 -7 38 -16 60 -18 83 -11 251 -39 281 -49
17 -5 54 -9 83 -9 29 0 83 -6 120 -14 91 -20 451 -52 676 -61 711 -27 1045
-23 1685 20 103 7 104 6 75 -11 -19 -11 -65 -20 -125 -25 -52 -4 -138 -12
-190 -18 -170 -18 -333 -33 -460 -41 -69 -5 -150 -13 -180 -19 -73 -13 -530
-14 -650 -1 -83 9 -230 22 -541 50 -48 4 -93 11 -100 16 -8 5 -48 12 -89 15
-76 6 -230 31 -308 49 -23 5 -54 10 -68 10 -14 0 -34 5 -45 11 -11 6 -41 14
-67 19 -127 24 -254 62 -260 78 -5 17 79 15 103 -2z m3066 -127 c-16 -6 -28
-6 -35 1 -7 7 1 10 25 9 32 0 33 -1 10 -10z m-1636 -199 c18 -7 18 -8 -7 -15
-29 -7 -52 1 -43 16 7 11 23 11 50 -1z m2865 -521 c0 -5 -9 -9 -20 -9 -22 0
-27 16 -7 23 15 5 27 -1 27 -14z m-615 -29 c11 -17 -104 -33 -180 -24 -73 9
-58 22 30 27 39 1 87 4 107 5 20 1 40 -2 43 -8z m217 -2 c-9 -9 -15 -9 -24 0
-9 9 -7 12 12 12 19 0 21 -3 12 -12z"/>
<path d="M3295 5228 c-16 -5 -43 -13 -60 -17 -48 -11 -37 -35 20 -43 65 -8
280 0 322 13 32 10 32 11 17 35 -16 23 -19 24 -143 23 -69 0 -139 -5 -156 -11z"/>
<path d="M4683 5063 c-13 -2 -23 -9 -23 -14 0 -5 -6 -9 -12 -9 -19 0 -150 -69
-162 -85 -6 -7 -20 -15 -31 -17 -12 -2 -20 -11 -20 -23 0 -14 6 -19 20 -17 21
3 209 96 229 113 6 5 20 16 30 23 17 12 15 38 -2 35 -4 -1 -17 -4 -29 -6z"/>
<path d="M5695 5024 c-33 -19 -73 -41 -90 -50 -16 -8 -43 -23 -60 -34 -16 -11
-37 -23 -45 -27 -8 -4 -43 -26 -77 -50 -35 -24 -67 -43 -71 -43 -14 0 -53 -46
-45 -53 13 -14 41 -6 129 37 156 78 363 224 349 246 -10 15 -25 11 -90 -26z"/>
<path d="M2843 4353 l-62 -4 -15 -69 c-9 -38 -16 -83 -16 -101 0 -18 -5 -48
-12 -66 -17 -47 -2 -54 97 -47 132 9 125 5 125 78 0 35 7 80 16 101 8 20 14
53 12 73 -3 36 -4 37 -43 38 -22 0 -68 -1 -102 -3z"/>
<path d="M3551 4360 c-5 -3 -11 -41 -14 -85 -4 -44 -10 -101 -13 -127 l-7 -48
113 3 112 2 1 129 2 130 -93 1 c-52 0 -97 -2 -101 -5z"/>
<path d="M3475 3979 c-10 -15 3 -25 16 -12 7 7 7 13 1 17 -6 3 -14 1 -17 -5z"/>
<path d="M4497 3014 c-11 -11 3 -24 24 -24 12 0 19 5 17 13 -5 14 -31 21 -41
11z"/>
</g>
</svg>
