<?xml version="1.0" standalone="no"?>
<!DOCTYPE svg PUBLIC "-//W3C//DTD SVG 20010904//EN"
 "http://www.w3.org/TR/2001/REC-SVG-20010904/DTD/svg10.dtd">
<svg version="1.0" xmlns="http://www.w3.org/2000/svg"
 width="300.000000pt" height="225.000000pt" viewBox="0 0 300.000000 225.000000"
 preserveAspectRatio="xMidYMid meet">
<metadata>
Created by potrace 1.10, written by Peter Selinger 2001-2011
</metadata>
<g transform="translate(0.000000,225.000000) scale(0.100000,-0.100000)"
fill="#c0c0c0" stroke="none">
<path d="M1775 1794 c-33 -20 -73 -46 -88 -59 -29 -22 -29 -22 -65 -3 -28 15
-48 18 -82 13 -25 -4 -55 -6 -67 -6 -22 1 -69 2 -113 2 -66 -1 -80 4 -80 26 0
26 -22 40 -79 49 -151 24 -416 -167 -339 -244 10 -10 -44 -12 -250 -9 -144 2
-262 2 -262 0 0 -6 -151 -573 -176 -663 -13 -46 -24 -97 -24 -113 0 -148 340
-277 890 -339 179 -20 789 -17 965 5 430 53 694 134 802 244 44 47 49 84 22
174 -12 41 -56 213 -98 384 l-77 309 -252 0 c-235 -1 -251 0 -237 16 8 9 15
21 15 26 0 5 12 17 28 26 15 9 42 30 61 45 l34 29 -22 21 -23 21 21 11 c26 15
27 47 2 61 -40 21 -77 11 -158 -43 -73 -48 -83 -52 -99 -39 -14 10 -34 12 -71
8 -29 -4 -53 -3 -53 0 0 3 10 14 23 24 20 17 21 20 6 35 -9 9 -34 19 -55 21
-32 4 -50 -1 -99 -32z m115 -4 c17 -11 21 -7 -56 -53 -76 -46 -179 -125 -179
-138 0 -15 -27 -29 -57 -29 -29 0 -41 10 -30 26 30 42 261 204 291 204 9 0 23
-4 31 -10z m369 1 c11 -7 0 -18 -45 -46 -131 -82 -148 -95 -135 -95 8 0 -11
-18 -43 -40 -56 -40 -89 -49 -101 -30 -9 14 50 64 173 147 107 73 125 80 151
64z m-1016 -20 c30 -30 -56 -80 -135 -81 -40 0 -47 3 -50 21 -3 20 -4 20 -46
-8 -69 -47 -90 -93 -42 -93 10 0 50 15 89 34 42 20 80 32 92 29 19 -5 17 -8
-15 -35 -20 -16 -34 -33 -31 -38 7 -11 -70 -60 -94 -60 -29 0 -35 18 -14 42
l18 21 -33 -17 c-18 -10 -48 -16 -65 -14 -26 2 -33 8 -35 29 -9 76 194 197
308 184 24 -3 48 -9 53 -14z m87 -62 c8 -6 11 -12 5 -15 -30 -13 -126 -89
-117 -92 7 -2 43 19 80 46 84 63 115 77 137 65 14 -8 6 -18 -50 -59 -37 -26
-62 -50 -55 -52 7 -3 4 -9 -7 -18 -21 -16 -79 -19 -88 -4 -4 7 -12 7 -25 0
-23 -12 -77 -13 -84 -2 -7 12 48 63 114 106 59 39 67 41 90 25z m292 -5 c17
-11 7 -25 -39 -54 -33 -21 -59 -30 -90 -30 -30 0 -45 -5 -50 -15 -9 -25 0 -26
53 -10 67 20 77 18 30 -7 -44 -22 -119 -26 -142 -7 -12 10 -12 16 3 38 22 35
38 47 98 77 47 23 106 27 137 8z m298 5 c8 0 30 3 47 7 25 5 34 2 39 -11 8
-21 -38 -62 -120 -106 -46 -25 -66 -30 -97 -26 -33 4 -43 0 -76 -29 -23 -20
-32 -33 -23 -34 22 -1 -31 -29 -56 -30 -12 0 -27 6 -33 14 -10 12 4 27 71 84
120 99 189 144 213 136 11 -3 27 -6 35 -5z m330 0 c8 -6 11 -12 5 -15 -31 -13
-126 -89 -116 -92 21 -7 -22 -31 -56 -32 -46 0 -48 14 -8 49 20 17 30 31 23
31 -14 1 111 69 127 69 6 1 17 -4 25 -10z m-316 -192 c7 -28 7 -28 -14 -9 -13
12 -18 25 -14 36 8 21 19 10 28 -27z m-1489 -19 c-4 -18 -16 -66 -27 -106 -12
-40 -19 -74 -17 -76 2 -2 21 -1 41 1 32 4 38 9 43 37 3 17 13 64 22 104 17 72
17 72 50 72 18 0 33 -5 33 -11 0 -5 -9 -52 -20 -102 -11 -51 -33 -157 -49
-236 l-28 -144 -42 -13 c-42 -12 -43 -12 -37 9 3 12 13 56 22 97 9 41 18 79
21 83 3 5 -14 7 -37 5 -42 -3 -43 -4 -55 -53 -7 -27 -18 -77 -25 -111 -12 -59
-13 -61 -53 -71 -23 -7 -43 -11 -43 -10 -1 1 18 79 42 172 24 94 56 218 70
278 l27 107 34 0 c34 0 34 -1 28 -32z m245 0 c-4 -18 -15 -78 -25 -133 -10
-55 -23 -126 -30 -159 l-13 -58 30 6 c17 3 36 6 43 6 7 0 17 33 25 88 7 48 19
118 26 155 8 38 14 82 14 98 0 27 2 29 41 29 34 0 39 -3 35 -17 -5 -18 -28
-168 -47 -303 -8 -66 -14 -78 -41 -102 -18 -16 -48 -30 -68 -33 -19 -3 -50
-10 -69 -15 -27 -7 -37 -5 -53 10 -21 20 -22 17 49 373 l17 87 37 0 c37 0 37
0 29 -32z m330 19 c49 -5 53 -13 47 -101 -6 -73 -9 -82 -36 -103 -29 -23 -29
-23 -15 -70 8 -25 14 -50 14 -54 0 -7 -54 -29 -71 -29 -4 0 -13 27 -20 60 -15
79 -34 78 -42 0 -11 -97 -16 -110 -48 -117 -33 -6 -45 -3 -42 12 4 18 33 218
44 295 17 131 11 123 82 116 34 -3 73 -7 87 -9z m289 -11 c21 -22 22 -30 16
-93 -5 -55 -11 -72 -31 -89 -22 -18 -24 -24 -14 -49 13 -33 12 -34 -32 -41
-32 -6 -35 -4 -44 27 -14 49 -34 49 -34 0 0 -38 -2 -41 -37 -50 -20 -6 -39 -9
-41 -6 -2 2 3 70 12 152 9 81 16 154 16 161 0 9 23 12 83 12 75 0 86 -2 106
-24z m131 -116 l0 -140 -41 0 -42 0 7 92 c3 50 6 113 6 140 l0 48 35 0 35 0 0
-140z m131 126 c-10 -12 -8 -19 9 -36 18 -18 30 -21 66 -17 40 4 44 3 44 -17
0 -20 -4 -22 -32 -18 -18 3 -42 11 -53 18 -11 8 -29 14 -40 14 -19 0 -20 -5
-17 -105 l4 -105 -41 0 -41 0 0 117 c0 106 2 119 22 140 25 27 101 35 79 9z
m309 -2 c0 -9 14 -64 30 -122 17 -57 29 -106 27 -108 -2 -2 -19 -1 -40 3 -35
5 -37 8 -48 62 -9 44 -13 52 -20 36 -4 -11 -8 -35 -8 -54 -1 -26 -4 -32 -17
-27 -9 3 -24 6 -35 6 -23 0 -24 19 -7 138 l11 82 54 0 c42 0 53 -3 53 -16z
m175 -4 c12 -39 86 -192 90 -188 2 2 -4 48 -15 102 -11 54 -20 100 -20 102 0
2 17 4 39 4 l39 0 7 -65 c3 -36 15 -110 25 -165 9 -55 16 -100 14 -100 -2 0
-33 10 -68 21 -59 19 -66 25 -80 60 -20 49 -29 50 -20 3 6 -33 5 -36 -15 -30
-11 3 -30 9 -41 12 -16 4 -20 14 -21 47 0 23 -6 81 -13 130 l-12 87 42 0 c34
0 44 -4 49 -20z m345 -2 c0 -13 3 -34 7 -47 6 -22 4 -23 -51 -20 l-57 4 6 -35
c12 -67 13 -69 63 -72 47 -3 47 -3 56 -46 5 -23 6 -45 3 -48 -3 -3 -26 -1 -52
4 -37 8 -45 7 -41 -3 14 -37 18 -85 7 -85 -32 0 -70 32 -76 63 -3 17 -16 94
-28 170 l-24 137 94 0 c90 0 93 -1 93 -22z m218 -12 c24 -28 51 -101 40 -111
-2 -1 -17 0 -35 2 -20 3 -33 12 -36 24 -4 14 -14 19 -36 19 -35 0 -36 -3 -20
-65 11 -44 11 -44 64 -50 46 -6 56 -12 84 -48 17 -22 31 -48 31 -56 0 -9 10
-53 22 -99 l21 -83 -20 -21 c-20 -19 -24 -20 -72 -7 -72 18 -143 74 -154 122
-5 21 -8 39 -6 41 2 2 21 1 41 -1 28 -4 38 -10 40 -27 2 -14 14 -25 38 -32 19
-7 36 -9 37 -5 4 11 -22 112 -29 113 -113 10 -147 43 -172 168 -16 75 -17 95
-6 120 12 29 15 30 75 30 59 0 65 -2 93 -34z m-910 -142 c-7 -7 -36 -16 -65
-19 -50 -6 -53 -5 -59 20 -11 45 0 55 54 48 37 -4 52 -2 63 10 12 13 14 11 17
-15 2 -17 -2 -37 -10 -44z m702 37 c0 -15 -16 -22 -34 -15 -25 9 -19 24 9 24
14 0 25 -4 25 -9z m-670 -90 c336 -57 516 -112 730 -222 187 -96 274 -181 253
-247 -31 -94 -361 -202 -798 -262 -169 -22 -336 -35 -265 -19 25 5 88 19 140
30 214 47 408 130 498 213 31 27 62 88 62 121 0 31 -3 31 -33 1 -74 -74 -304
-140 -647 -187 -109 -15 -217 -21 -435 -23 -159 -2 -261 -2 -225 0 323 17 660
66 660 95 0 5 -10 7 -22 4 -79 -17 -391 -36 -612 -35 -376 0 -640 31 -758 89
-29 14 -38 15 -38 5 0 -7 9 -18 20 -24 19 -10 19 -13 5 -32 -13 -19 -13 -25
-1 -43 12 -18 12 -22 1 -22 -8 0 -12 4 -9 9 3 4 -4 8 -15 8 -17 0 -21 6 -21
36 0 21 -4 33 -10 29 -21 -13 -10 -64 21 -100 173 -196 1112 -299 1864 -204
342 43 576 116 653 204 41 46 41 80 1 128 -17 20 -26 37 -21 37 16 0 61 -59
69 -88 15 -63 -64 -140 -196 -191 -258 -100 -610 -146 -1106 -146 -532 0 -931
58 -1161 170 -133 64 -173 120 -140 194 25 54 44 63 102 45 96 -29 297 -45
639 -50 273 -5 346 -4 370 7 30 14 29 14 -30 16 -348 15 -585 66 -601 130 -7
27 16 65 54 91 21 14 22 13 22 -16 0 -35 40 -74 95 -92 46 -15 56 -6 16 14
-61 32 -59 74 6 119 71 49 216 98 378 126 90 16 303 23 360 13 44 -9 36 -10
-68 -11 -65 0 -116 -4 -114 -8 3 -5 -27 -9 -66 -10 -84 -1 -264 -45 -287 -69
-14 -15 -13 -16 5 -10 10 4 38 10 62 13 23 3 41 8 39 12 -9 15 321 12 417 -3
54 -9 103 -14 108 -11 5 4 9 19 9 36 0 27 2 29 40 29 38 0 40 -2 40 -30 0 -26
-4 -30 -27 -31 -16 -1 15 -6 67 -11 220 -21 268 -28 281 -44 19 -23 6 -26 -77
-15 -44 5 -115 13 -159 17 -44 3 -92 13 -107 20 -31 16 -41 18 -34 5 3 -4 -22
-2 -55 6 -34 8 -63 12 -65 10 -3 -2 23 -14 57 -26 67 -25 102 -53 93 -75 -6
-17 -73 -51 -119 -61 -30 -7 -30 -7 -8 9 36 27 47 55 32 82 -15 28 -27 31 -25
7 1 -12 -15 -26 -48 -42 -40 -20 -67 -25 -150 -27 -56 -2 -146 -5 -201 -8
l-100 -4 80 14 c44 7 135 16 203 18 135 5 176 19 170 58 -5 37 -47 57 -142 68
-96 12 -267 3 -244 -12 8 -5 -2 -7 -27 -3 -27 3 -33 2 -20 -3 14 -6 2 -9 -40
-9 -64 0 -161 -29 -205 -62 -28 -20 -38 -65 -19 -87 40 -48 171 -76 443 -95
339 -25 726 29 808 112 82 81 -23 186 -257 258 -96 29 -252 61 -301 61 -13 0
-24 5 -24 10 0 14 30 13 160 -9z m-45 -52 c4 -6 5 -12 3 -14 -7 -8 -78 7 -78
16 0 13 68 11 75 -2z m109 -6 c59 -17 60 -17 29 -24 -46 -9 -97 3 -101 24 -4
21 -2 21 72 0z m696 -45 c0 -22 -37 -32 -72 -19 -33 12 -45 31 -20 31 10 0 27
8 37 18 18 16 21 16 37 3 10 -9 18 -23 18 -33z m-606 36 c9 -3 14 -10 11 -14
-3 -4 9 -13 26 -20 29 -12 49 -37 49 -60 0 -7 -15 -10 -37 -8 -36 3 -38 5 -47
48 -5 25 -14 48 -20 52 -13 9 -3 10 18 2z m157 -66 c73 -38 117 -84 124 -128
l5 -35 -19 40 c-24 52 -53 78 -142 126 -41 22 -63 37 -49 33 14 -3 50 -20 81
-36z m-351 23 c0 -5 -9 -15 -21 -22 -17 -12 -36 -12 -112 -2 -51 6 -93 12 -94
12 -2 1 -3 6 -3 11 0 6 45 10 115 10 63 0 115 -4 115 -9z m354 -54 l29 -23
-37 4 c-27 3 -36 9 -36 23 0 25 9 24 44 -4z m409 -3 c9 -3 17 -14 17 -24 0
-17 -4 -16 -52 8 -29 14 -55 27 -58 30 -5 5 63 -6 93 -14z m-1080 -1 c-13 -2
-33 -2 -45 0 -13 2 -3 4 22 4 25 0 35 -2 23 -4z m190 -30 c38 -19 34 -26 -5
-9 -90 38 -86 36 -53 29 17 -3 42 -12 58 -20z m-118 8 c33 -7 21 -9 -65 -12
l-105 -3 143 -5 c109 -5 145 -9 152 -21 5 -8 7 -17 5 -21 -3 -3 -98 -9 -212
-12 -191 -6 -374 -28 -438 -53 -18 -6 -18 -5 3 19 68 74 373 137 517 108z
m-629 -43 c-9 -12 -16 -30 -16 -40 0 -24 -17 -23 -30 1 -14 27 -3 49 28 54 15
2 28 5 30 6 2 0 -4 -9 -12 -21z m184 -4 c-30 -14 -65 -35 -77 -46 -13 -12 -23
-17 -23 -11 0 23 102 83 140 82 8 0 -10 -11 -40 -25z m875 -18 c112 -20 211
-46 231 -61 15 -11 9 -15 -47 -33 -68 -21 -180 -48 -239 -55 -25 -4 -42 1 -59
14 -28 23 -41 24 -41 4 0 -20 -29 -19 -53 3 -19 16 -20 16 -9 -4 12 -23 7 -34
-16 -34 -12 0 -12 2 -1 17 8 9 9 14 2 10 -13 -8 -43 1 -43 13 0 4 26 13 58 19
51 11 62 11 105 -8 26 -11 47 -16 47 -11 0 13 -34 30 -59 30 -28 0 -26 6 7 35
18 16 40 25 67 26 l40 1 -42 9 c-22 6 -44 16 -47 24 -7 18 -1 18 99 1z m-1211
-21 c-11 -17 -14 -35 -10 -57 4 -18 7 -46 7 -62 0 -17 7 -38 16 -49 17 -18 16
-18 -32 -12 -28 3 -113 12 -189 20 -77 9 -141 17 -143 19 -2 2 10 15 27 30 40
33 27 33 -25 1 -43 -26 -55 -30 -55 -16 0 4 28 21 63 36 70 32 313 114 340
114 16 1 16 -1 1 -24z m976 -28 c-14 -12 -54 -31 -88 -42 -34 -11 -62 -22 -62
-25 0 -3 22 -3 50 -2 40 3 50 1 50 -12 0 -32 -72 -40 -265 -27 -99 7 -198 16
-220 21 -22 5 -55 10 -73 10 -18 0 -31 4 -28 9 11 17 73 23 306 30 229 7 236
8 285 34 61 32 78 34 45 4z m-1260 4 c0 -5 -6 -11 -13 -14 -8 -3 -14 1 -14 9
0 8 6 14 14 14 7 0 13 -4 13 -9z m2375 -55 c0 -21 -2 -23 -15 -13 -8 6 -17 13
-19 14 -2 1 2 9 9 18 16 19 23 13 25 -19z m-2505 -7 c0 -5 -2 -9 -4 -9 -2 0
-11 -2 -19 -5 -7 -3 -14 0 -14 8 0 7 9 14 19 14 10 1 18 -2 18 -8z m593 -61
c45 -11 141 -26 212 -33 l130 -12 -125 -1 c-80 -1 -148 4 -188 13 -69 16 -165
60 -185 83 -7 10 4 7 31 -7 24 -12 80 -31 125 -43z m1486 10 c-2 -47 -187
-123 -398 -163 -208 -40 -332 -50 -668 -50 -182 0 -329 -3 -326 -8 2 -4 -46
-5 -109 -3 -98 5 -106 4 -58 -5 31 -6 215 -11 420 -12 295 -1 394 2 515 16
184 22 376 60 470 92 85 29 65 9 -40 -40 -158 -74 -392 -140 -625 -175 -333
-51 -886 18 -1118 140 -64 33 -135 110 -118 127 3 3 24 -4 48 -15 55 -26 136
-46 268 -67 58 -8 130 -21 160 -27 122 -24 692 -14 930 18 298 39 531 100 603
158 36 28 47 32 46 14z m431 -88 c0 -16 -5 -30 -11 -30 -5 0 -8 -4 -5 -9 10
-16 -68 -74 -119 -87 -5 -1 -30 -11 -55 -22 -41 -19 -241 -74 -314 -86 -173
-30 -376 -50 -376 -36 0 5 19 10 43 10 131 1 534 97 644 154 17 8 33 12 37 9
3 -4 6 -2 6 4 0 6 15 17 33 24 39 16 85 56 92 80 10 29 25 22 25 -11z m-2335
1 c131 -32 305 -45 637 -45 185 -1 336 -2 335 -2 -1 -1 -87 -10 -192 -19 -208
-19 -366 -16 -560 11 -117 17 -260 49 -285 65 -16 11 -19 11 65 -10z"/>
<path d="M1085 1741 c-18 -7 -18 -8 5 -14 14 -3 34 -4 45 -2 11 2 33 4 48 4
16 1 26 5 22 11 -7 12 -91 12 -120 1z"/>
<path d="M1523 1669 c-24 -12 -43 -25 -43 -30 0 -9 54 16 90 40 26 18 -3 12
-47 -10z"/>
<path d="M1895 1673 c-56 -29 -126 -76 -121 -80 8 -8 88 34 126 66 39 34 38
37 -5 14z"/>
<path d="M953 1453 c-22 -4 -25 -10 -38 -75 -2 -15 4 -18 36 -18 31 0 39 4 39
19 0 10 3 33 6 50 7 32 5 33 -43 24z"/>
<path d="M1180 1415 c0 -45 0 -45 35 -45 35 0 35 0 35 45 0 45 0 45 -35 45
-35 0 -35 0 -35 -45z"/>
</g>
</svg>
