<?xml version="1.0" standalone="no"?>
<!DOCTYPE svg PUBLIC "-//W3C//DTD SVG 20010904//EN"
 "http://www.w3.org/TR/2001/REC-SVG-20010904/DTD/svg10.dtd">
<svg version="1.0" xmlns="http://www.w3.org/2000/svg"
 width="300.000000pt" height="225.000000pt" viewBox="0 0 300.000000 225.000000"
 preserveAspectRatio="xMidYMid meet">
<metadata>
Created by potrace 1.10, written by Peter Selinger 2001-2011
</metadata>
<g transform="translate(0.000000,225.000000) scale(0.100000,-0.100000)"
fill="#c0c0c0" stroke="none">
<path d="M1776 1795 c-32 -20 -74 -48 -92 -62 -19 -14 -34 -21 -34 -15 0 5
-21 15 -46 22 -36 10 -56 11 -89 2 -32 -8 -50 -8 -73 0 -23 9 -37 9 -57 0 -19
-9 -32 -9 -47 -1 -11 6 -29 9 -39 6 -15 -4 -19 0 -19 19 0 28 -21 41 -86 49
-152 21 -408 -167 -332 -243 10 -10 -43 -12 -250 -10 -144 2 -262 2 -262 0 0
-6 -153 -579 -176 -661 -13 -46 -24 -97 -24 -115 0 -159 408 -300 1000 -346
201 -15 712 -4 895 19 404 52 672 137 767 244 40 44 43 82 17 168 -12 41 -56
213 -98 382 l-76 309 -260 -1 c-236 -1 -257 1 -237 15 12 8 22 21 22 27 0 7
28 31 61 55 52 37 58 45 49 62 -6 11 -18 20 -28 20 -12 1 -9 5 11 16 15 8 27
23 27 33 0 19 -38 41 -70 41 -20 0 -103 -45 -155 -85 -28 -21 -33 -21 -50 -8
-15 11 -35 13 -80 8 l-60 -6 30 25 c28 23 29 26 14 41 -9 9 -34 19 -55 21 -32
4 -49 -1 -98 -31z m113 -4 c9 -6 -14 -27 -85 -75 -123 -82 -164 -116 -144
-116 9 -1 5 -6 -10 -15 -27 -16 -76 -20 -84 -7 -11 18 67 85 198 171 79 51 99
58 125 42z m371 -1 c17 -11 21 -7 -56 -53 -66 -39 -80 -45 -67 -24 4 6 -6 3
-22 -7 -50 -32 -144 -106 -151 -119 -9 -14 17 5 59 42 18 17 30 22 37 15 12
-12 -71 -74 -100 -74 -61 0 -9 54 154 162 102 68 119 75 146 58z m-1017 -19
c30 -30 -56 -80 -136 -81 -41 0 -48 3 -45 18 2 12 14 17 43 18 92 2 106 4 100
14 -3 6 -27 10 -53 10 -57 0 -135 -35 -180 -80 -63 -63 -17 -77 87 -27 42 21
80 33 92 30 18 -5 17 -8 -15 -35 -20 -16 -34 -33 -31 -38 7 -11 -70 -60 -94
-60 -29 0 -35 18 -14 42 l18 21 -33 -17 c-18 -10 -48 -16 -65 -14 -26 2 -33 8
-35 29 -9 76 194 197 308 184 24 -3 48 -9 53 -14z m87 -61 c13 -9 13 -11 0
-19 -54 -33 -120 -86 -111 -89 6 -2 42 19 79 46 88 65 106 74 132 64 20 -7 16
-13 -44 -57 -37 -27 -62 -51 -56 -55 14 -8 -33 -30 -65 -30 -13 0 -27 5 -30
10 -4 7 -12 7 -25 0 -23 -12 -77 -13 -84 -2 -7 12 46 61 114 106 59 39 67 41
90 26z m292 -6 c17 -11 7 -25 -39 -55 -36 -23 -58 -29 -87 -27 -28 2 -42 -2
-50 -14 -17 -27 -1 -31 54 -13 62 21 77 14 20 -9 -48 -19 -123 -21 -138 -3
-35 42 112 143 192 132 22 -3 43 -8 48 -11z m298 5 c8 0 29 3 45 6 17 3 37 1
45 -5 12 -8 8 -16 -25 -45 -51 -44 -146 -95 -176 -95 -13 0 -34 3 -47 6 -19 6
-20 9 -10 22 22 27 -45 -23 -72 -55 -18 -21 -15 -19 12 6 21 19 40 32 44 29 3
-4 -9 -20 -28 -37 -21 -20 -28 -31 -18 -31 23 -1 -31 -29 -56 -30 -12 0 -27 6
-33 13 -11 15 9 37 103 113 96 77 160 115 181 108 11 -3 27 -6 35 -5z m330 1
c8 -5 12 -11 10 -13 -3 -2 -33 -23 -68 -47 -35 -24 -58 -46 -52 -50 14 -8 -33
-30 -65 -30 -38 0 -38 16 3 51 20 18 36 36 35 40 -2 7 96 58 112 58 6 1 17 -3
25 -9z m-140 -30 c-17 -13 -20 -20 -10 -20 12 0 11 -3 -3 -11 -9 -5 -22 -7
-29 -3 -12 8 37 54 57 54 6 0 -1 -9 -15 -20z m-1072 -12 c-6 -17 -38 -23 -38
-8 0 6 5 8 10 5 6 -3 10 -1 10 4 0 6 5 11 11 11 6 0 9 -6 7 -12z m320 -135
c-13 -12 -16 -12 -27 0 -9 12 -8 18 5 32 16 16 18 16 27 0 6 -12 5 -21 -5 -32z
m566 25 c-3 -4 2 -8 10 -8 9 0 13 -7 11 -18 -2 -10 0 -46 4 -79 4 -33 4 -69 0
-79 -7 -17 -8 -17 -10 4 -2 25 -3 31 -12 52 -4 8 -8 24 -10 35 -1 11 -7 26
-11 34 -7 10 -5 12 5 6 8 -5 1 4 -14 20 -20 20 -24 31 -15 36 15 10 48 7 42
-3z m-804 -1 c0 -10 -38 -46 -43 -41 -9 9 4 35 14 28 5 -3 9 0 9 5 0 6 5 11
10 11 6 0 10 -2 10 -3z m437 -3 c-3 -3 -12 -4 -19 -1 -8 3 -5 6 6 6 11 1 17
-2 13 -5z m-67 -8 c0 -2 -7 -9 -15 -16 -13 -11 -14 -10 -9 4 5 14 24 23 24 12z
m593 -16 c3 -11 1 -18 -4 -14 -5 3 -9 12 -9 20 0 20 7 17 13 -6z m-1599 -57
c-4 -26 -8 -50 -9 -53 -1 -3 -5 -20 -9 -37 -4 -18 -12 -33 -18 -33 -6 0 -8 9
-4 23 4 12 9 36 11 52 1 17 4 30 5 30 3 0 11 40 13 63 1 13 5 18 10 13 6 -6 6
-30 1 -58z m1954 42 c-3 -3 -9 2 -12 12 -6 14 -5 15 5 6 7 -7 10 -15 7 -18z
m-1993 -17 c-4 -18 -16 -66 -27 -106 -12 -40 -19 -74 -17 -76 2 -2 21 -1 41 1
32 4 38 9 43 37 3 17 13 64 22 104 l17 72 38 0 c24 0 37 -4 33 -10 -3 -5 -8
-20 -10 -32 -3 -13 -12 -54 -20 -93 -9 -38 -28 -135 -44 -215 l-28 -144 -34
-9 c-19 -4 -42 -17 -51 -29 -10 -11 -18 -17 -18 -13 0 4 -10 1 -22 -7 -33 -21
-58 -29 -58 -18 0 5 9 11 19 15 10 3 21 15 24 26 4 14 10 18 19 13 10 -6 11
-5 1 7 -7 9 -8 20 -3 29 5 8 7 17 5 20 -2 4 2 30 9 58 8 28 11 53 8 56 -3 3 0
6 6 6 18 0 21 -13 11 -65 -17 -86 -19 -115 -10 -115 12 0 16 13 36 113 9 43
19 85 22 94 4 11 2 14 -5 9 -6 -3 -27 -7 -46 -8 -30 -1 -35 -5 -39 -32 -3 -17
-13 -67 -22 -112 l-17 -81 -42 -11 c-22 -6 -42 -10 -43 -9 0 1 16 70 37 152
50 195 87 343 94 378 6 23 11 27 42 27 35 0 35 -1 29 -32z m244 -1 c-5 -19
-11 -47 -13 -63 -9 -67 -47 -268 -53 -277 -4 -6 6 -8 27 -4 18 4 38 7 45 7 7
0 17 33 25 88 7 48 19 118 26 155 8 38 14 82 14 98 0 27 2 29 41 29 34 0 39
-3 35 -17 -3 -10 -7 -36 -10 -59 -2 -22 -9 -67 -15 -100 -6 -32 -13 -77 -16
-99 -16 -138 -37 -170 -114 -180 -25 -4 -59 -11 -75 -16 -23 -7 -31 -5 -47 14
-11 13 -17 32 -14 47 2 14 21 112 41 218 l37 192 38 0 37 0 -9 -33z m47 6 c-3
-16 -8 -52 -11 -80 -4 -29 -11 -53 -17 -53 -5 0 -7 -4 -3 -9 8 -14 -17 -154
-31 -170 -15 -17 -12 24 10 139 8 41 12 79 9 84 -4 5 -1 6 7 1 10 -6 12 -4 7
8 -3 10 -2 17 2 17 5 0 9 17 9 38 0 50 0 52 13 52 6 0 8 -11 5 -27z m284 14
c49 -5 53 -13 47 -100 -6 -74 -9 -82 -38 -106 l-31 -26 20 -52 20 -52 -31 -10
c-50 -18 -55 -15 -68 49 -15 79 -34 78 -44 -2 -4 -35 -7 -71 -7 -80 0 -9 -5
-21 -11 -26 -17 -14 -66 -19 -67 -7 -1 17 11 118 20 166 5 25 14 85 20 135 16
133 11 127 83 120 34 -3 73 -7 87 -9z m289 -11 c21 -22 22 -30 15 -95 -6 -60
-11 -75 -32 -91 -22 -18 -24 -23 -13 -46 14 -32 13 -33 -31 -40 -32 -6 -35 -4
-44 27 -14 49 -34 49 -34 0 0 -43 -2 -44 -54 -56 l-29 -6 6 58 c4 32 12 106
18 166 l12 107 82 0 c73 0 84 -2 104 -24z m131 -115 l0 -139 -36 -4 c-19 -2
-37 -1 -40 4 -3 4 -2 69 2 143 l7 135 33 0 34 0 0 -139z m131 125 c-10 -12 -8
-19 9 -36 18 -18 30 -21 66 -17 41 4 44 3 44 -19 0 -24 19 -44 21 -22 1 7 1
16 0 21 0 4 4 7 11 7 6 0 4 6 -7 13 -13 10 -15 16 -6 21 6 4 9 11 6 16 -3 4 2
13 10 20 12 10 16 9 21 -5 4 -9 1 -22 -6 -28 -10 -9 -11 -9 -6 0 3 6 2 14 -3
17 -10 7 -9 -13 1 -30 7 -10 3 -63 -8 -115 -5 -25 -8 -26 -77 -27 l-73 0 -1
49 c0 26 4 46 8 43 5 -3 9 0 9 5 0 6 9 2 20 -9 22 -22 84 -28 78 -7 -3 6 -19
13 -36 15 -18 2 -32 7 -32 11 0 5 -17 13 -38 18 l-38 10 3 -109 2 -108 -39 0
-40 0 0 117 c0 106 2 119 22 140 25 27 101 35 79 9z m307 -3 c0 -10 14 -65 31
-122 18 -57 30 -105 28 -107 -1 -2 -19 -1 -39 2 -37 7 -41 13 -55 84 -7 40
-12 36 -19 -18 l-6 -50 -37 5 c-20 3 -36 6 -37 7 0 1 6 49 14 109 l14 107 54
0 c44 0 53 -3 52 -17z m177 -3 c10 -33 86 -192 90 -188 2 2 -3 37 -11 78 -7
41 -16 87 -19 103 -4 26 -3 27 34 27 l38 0 7 -52 c4 -29 10 -71 12 -93 3 -22
11 -71 19 -110 7 -38 12 -71 10 -73 -1 -2 -32 6 -67 18 -55 18 -67 26 -81 55
-9 19 -14 43 -11 52 5 15 4 16 -5 3 -6 -8 -8 -30 -5 -47 7 -36 2 -38 -45 -22
-28 10 -31 15 -31 52 0 23 -6 81 -14 130 l-13 87 43 0 c34 0 44 -4 49 -20z
m345 -2 c0 -13 3 -34 7 -47 6 -22 4 -23 -51 -20 l-57 4 6 -35 c12 -69 13 -70
60 -70 50 0 52 -2 61 -59 l7 -42 -44 7 c-24 4 -49 11 -55 16 -8 6 -7 -4 2 -29
7 -21 13 -46 14 -55 0 -16 14 -22 103 -42 18 -4 27 -13 27 -26 0 -19 -1 -19
-32 -2 -18 10 -66 31 -105 48 -68 27 -73 31 -78 64 -13 83 -38 228 -45 268
l-8 42 94 0 c91 0 94 -1 94 -22z m213 -6 c24 -25 47 -77 47 -107 0 -19 -68 -5
-73 15 -3 11 -17 19 -39 22 l-35 4 15 -57 14 -57 47 -7 c30 -4 57 -16 77 -35
32 -28 39 -41 48 -90 3 -14 12 -56 22 -93 17 -67 17 -69 -3 -88 -18 -18 -24
-19 -69 -8 -47 12 -117 52 -141 81 -6 7 -14 29 -18 49 l-7 35 37 -4 c27 -3 39
-11 45 -28 8 -21 71 -50 77 -35 4 11 -22 112 -29 113 -112 10 -147 45 -173
169 -15 74 -16 94 -5 119 12 29 15 30 74 30 55 0 65 -3 89 -28z m-188 -130
c-4 -11 -46 -13 -81 -2 -1 0 -4 9 -7 20 -4 14 0 20 11 21 27 1 53 7 60 14 9 9
24 -36 17 -53z m180 -7 c14 2 25 -1 25 -7 0 -6 6 -5 15 2 20 16 32 5 39 -35 5
-27 4 -28 -9 -11 -8 10 -19 15 -26 10 -8 -4 -10 -3 -5 4 5 8 -2 12 -18 12 -14
0 -26 5 -26 11 0 8 -4 8 -14 0 -12 -10 -17 -8 -25 7 -12 22 -1 40 11 19 4 -8
19 -13 33 -12z m-648 -37 c-3 -8 -6 -5 -6 6 -1 11 2 17 5 13 3 -3 4 -12 1 -19z
m-889 -68 c-1 -44 -4 -58 -12 -51 -16 14 -19 62 -5 89 7 12 13 22 15 22 1 0 2
-27 2 -60z m268 25 c-4 -14 -11 -25 -16 -25 -5 0 -6 7 -3 17 4 11 3 14 -5 9
-17 -10 -15 0 4 19 21 20 28 13 20 -20z m431 10 c317 -53 494 -108 713 -221
181 -94 264 -176 243 -242 -32 -96 -379 -207 -833 -266 -63 -9 -151 -18 -195
-20 -85 -6 -79 -3 65 25 165 32 417 128 485 184 27 22 16 18 -95 -37 -145 -71
-340 -128 -595 -174 -136 -25 -460 -25 -634 0 -372 52 -570 127 -628 239 -14
28 -14 29 3 22 71 -31 167 -57 279 -75 72 -11 165 -27 208 -35 42 -8 94 -14
115 -14 l37 2 -35 8 c-36 8 9 6 170 -6 96 -8 470 11 620 31 317 41 552 108
628 177 l22 20 0 -20 c0 -51 -176 -126 -399 -168 -209 -40 -332 -50 -668 -50
-182 0 -326 -3 -320 -8 11 -7 -103 -2 -202 8 -61 7 -43 -7 22 -16 100 -15 569
-21 737 -10 274 17 542 59 660 103 30 11 67 21 81 21 15 1 36 10 48 21 26 24
61 95 61 125 l0 23 -31 -27 c-96 -80 -298 -138 -646 -186 -112 -15 -219 -21
-438 -23 -159 -2 -261 -2 -225 0 152 8 351 26 435 40 115 18 225 44 225 53 0
4 -55 1 -122 -6 -503 -52 -1087 -21 -1269 66 l-36 18 -21 -32 c-36 -51 -29
-87 24 -133 235 -208 1272 -296 2004 -171 252 44 425 105 497 177 44 44 45 88
2 137 -17 19 -27 35 -21 35 15 0 61 -58 68 -86 25 -99 -133 -196 -421 -260
-263 -58 -500 -79 -880 -79 -532 0 -931 58 -1161 170 -167 81 -196 163 -89
250 62 51 127 77 424 170 l23 7 -22 -30 c-18 -24 -21 -38 -16 -64 4 -18 7 -46
7 -62 0 -17 7 -39 17 -49 17 -19 16 -19 -23 -14 -22 4 -78 9 -125 13 -47 3
-92 8 -100 9 -8 1 -40 6 -70 10 l-54 7 32 29 c40 36 35 36 -31 2 l-52 -27 45
-13 c105 -31 310 -46 662 -47 239 -1 350 2 358 10 8 8 -30 13 -138 18 -216 9
-432 49 -479 88 -7 6 -16 8 -19 5 -11 -10 76 -48 159 -68 45 -12 143 -27 217
-34 l135 -14 -155 3 c-170 3 -245 20 -324 74 -33 23 -40 33 -43 68 -3 37 0 44
34 75 l38 33 3 -31 c4 -38 32 -65 95 -92 51 -22 65 -11 17 14 -110 57 -9 145
245 215 130 35 404 58 500 42 42 -7 25 -9 -105 -14 -200 -8 -390 -46 -430 -85
-13 -13 -13 -14 6 -9 119 36 369 46 522 21 51 -9 97 -13 100 -11 6 4 124 -5
257 -18 86 -9 141 -19 153 -28 22 -18 13 -31 -17 -25 -16 3 -89 11 -162 18
-74 6 -146 18 -161 25 -31 16 -41 18 -34 5 3 -4 -22 -2 -55 6 -34 8 -63 12
-65 10 -3 -2 23 -14 57 -26 67 -25 102 -53 93 -75 -6 -17 -73 -51 -119 -61
-30 -7 -30 -7 -8 9 36 27 47 55 32 82 -15 28 -27 31 -25 7 1 -12 -15 -26 -49
-42 -42 -20 -68 -25 -160 -27 -60 -2 -148 -6 -195 -10 -47 -3 -111 -8 -142 -9
-32 -2 -72 -10 -89 -19 -27 -14 -34 -14 -58 -1 -16 9 -20 15 -11 16 58 5 83 9
147 22 46 9 70 11 66 4 -4 -7 10 -8 43 -3 97 13 290 26 314 21 32 -7 90 28 90
54 0 55 -139 89 -309 75 -83 -7 -91 -9 -56 -16 31 -5 27 -6 -20 -3 -93 6 -259
-38 -307 -82 -10 -9 -18 -28 -18 -43 0 -50 57 -81 190 -103 269 -45 630 -45
835 -1 127 28 223 64 245 91 63 81 -38 181 -247 247 -113 35 -195 53 -280 61
-40 4 -70 11 -67 16 8 13 28 11 191 -16z m-150 -18 c10 4 14 2 10 -4 -8 -13
14 -23 49 -23 13 0 24 -4 24 -9 0 -12 -74 -1 -78 11 -2 4 -10 8 -18 8 -8 0
-14 8 -13 18 0 9 3 12 5 5 3 -7 12 -9 21 -6z m187 -34 c59 -17 60 -17 29 -24
-46 -9 -97 3 -101 24 -4 21 -2 21 72 0z m724 -48 c-41 -35 -132 -40 -155 -8
-17 22 -8 32 26 28 21 -3 35 3 52 21 l23 24 28 -31 c16 -17 28 -32 26 -34z
m-634 39 c9 -3 14 -10 11 -14 -3 -4 9 -13 26 -20 16 -7 37 -26 45 -42 l15 -29
-42 4 c-40 4 -43 6 -55 45 -6 23 -9 42 -5 42 3 0 -1 5 -9 10 -17 11 -10 13 14
4z m130 -53 c111 -54 157 -98 155 -151 0 -22 -3 -20 -18 16 -24 52 -67 88
-165 136 -44 21 -74 38 -67 38 7 0 50 -18 95 -39z m-587 23 c-3 -3 -12 -4 -19
-1 -8 3 -5 6 6 6 11 1 17 -2 13 -5z m-11 -14 c8 0 14 -4 14 -9 0 -5 -18 -5
-42 1 -51 11 -67 24 -19 14 18 -3 40 -6 47 -6z m274 1 c0 -5 -9 -15 -21 -22
-17 -12 -36 -12 -112 -2 -51 6 -93 12 -94 12 -2 1 -3 6 -3 11 0 6 45 10 115
10 63 0 115 -4 115 -9z m102 -21 c-4 -31 -16 -35 -59 -24 -16 4 -23 14 -23 30
0 22 4 24 43 24 43 0 43 -1 39 -30z m64 6 c2 -15 -28 -17 -38 -2 -4 6 0 14 10
17 19 7 25 4 28 -15z m719 14 c4 -6 11 -7 17 -4 7 4 8 2 4 -4 -4 -7 -2 -12 3
-12 6 0 11 -8 11 -17 -1 -15 -4 -14 -22 7 -11 14 -27 24 -34 22 -8 -2 -14 2
-14 8 0 13 27 13 35 0z m-1246 -4 c-2 -2 -26 -6 -54 -9 -34 -4 -42 -3 -25 3
25 8 87 13 79 6z m-112 -22 c-3 -3 -12 -4 -19 -1 -8 3 -5 6 6 6 11 1 17 -2 13
-5z m831 -30 c20 -15 29 -24 19 -20 -10 3 -30 6 -43 6 -17 0 -24 6 -24 20 0
26 4 25 48 -6z m-675 -1 c-13 -2 -33 -2 -45 0 -13 2 -3 4 22 4 25 0 35 -2 23
-4z m147 -13 c58 -16 75 -32 61 -58 -11 -21 -18 -22 -149 -22 -200 0 -421 -24
-507 -56 -20 -7 -20 -7 0 15 62 71 329 133 494 115 l76 -9 -115 -6 -115 -5
125 -2 c69 -1 141 -6 160 -12 l35 -9 -23 19 c-13 10 -44 22 -70 25 -62 9 -74
13 -37 14 17 1 46 -4 65 -9z m-347 -7 c-7 -2 -19 -2 -25 0 -7 3 -2 5 12 5 14
0 19 -2 13 -5z m-108 -27 c-81 -26 -111 -41 -142 -69 -13 -11 -23 -16 -23 -10
0 25 59 59 145 84 87 25 102 21 20 -5z m-245 -11 c-7 -8 -16 -30 -19 -48 l-7
-32 -17 26 c-22 33 -13 57 21 62 15 2 29 5 31 6 2 0 -2 -6 -9 -14z m1195 -62
c50 -13 94 -28 98 -32 15 -15 -170 -68 -296 -86 -29 -4 -42 0 -57 15 -11 11
-28 20 -37 20 -17 -1 -17 -1 0 -11 22 -13 13 -29 -18 -29 -15 0 -29 9 -36 22
-10 18 -13 19 -23 7 -6 -8 -21 -19 -33 -26 -20 -11 -21 -10 -14 15 4 15 10 26
14 25 4 -1 29 5 56 12 28 7 51 10 53 6 5 -11 88 -40 88 -31 0 13 -35 30 -59
30 -27 0 -26 3 7 37 23 23 36 28 73 26 l44 -2 -44 10 c-39 7 -60 21 -61 40 0
8 140 -19 245 -48z m67 13 c5 -8 8 -7 8 2 0 6 11 12 25 12 20 0 25 -5 25 -25
0 -30 -5 -31 -48 -5 -18 11 -39 20 -47 20 -8 0 -15 4 -15 9 0 12 43 1 52 -13z
m-437 -26 c-10 -11 -24 -20 -30 -20 -7 0 -18 -6 -24 -14 -6 -8 -32 -17 -56
-20 -65 -10 -64 -23 2 -18 44 4 55 2 51 -9 -11 -34 -49 -40 -197 -35 -149 6
-391 34 -391 46 0 13 96 22 315 29 211 6 222 7 275 33 67 32 78 34 55 8z
m1108 -42 c-2 -5 0 -8 5 -8 6 0 13 -11 16 -24 3 -13 9 -32 12 -43 6 -15 3 -14
-15 5 -12 12 -28 22 -36 22 -8 0 -15 4 -15 9 0 5 -7 17 -16 25 -14 15 -14 17
3 23 10 3 22 13 27 22 8 13 10 12 16 -4 4 -11 6 -23 3 -27z m-2478 -18 c-10
-11 -22 -17 -28 -13 -5 3 -7 1 -3 -5 3 -6 -7 -20 -23 -31 l-29 -21 3 22 c10
61 11 63 44 65 18 1 35 4 38 7 16 16 14 -6 -2 -24z m458 -65 c20 -10 37 -22
37 -26 0 -15 -63 -2 -76 16 -15 20 -19 39 -6 33 4 -2 24 -12 45 -23z m932 15
c-3 -5 -16 -10 -28 -10 -18 0 -19 2 -7 10 20 13 43 13 35 0z m-1395 -50 c19
-10 19 -11 0 -30 -16 -16 -18 -25 -11 -39 6 -10 7 -22 3 -26 -4 -5 -2 -5 4 -2
9 5 54 -42 54 -57 0 -12 -50 23 -74 51 -28 33 -34 81 -14 101 15 15 15 15 38
2z m2488 -51 c-2 -22 -8 -33 -16 -31 -8 1 -11 -2 -7 -8 9 -14 -12 -33 -66 -60
-24 -13 -44 -22 -44 -22 0 1 -10 -1 -22 -4 -13 -4 -23 -10 -23 -14 0 -6 -68
-31 -100 -35 -8 -1 -22 -5 -30 -8 -8 -3 -49 -13 -90 -22 -99 -22 -107 -24
-155 -30 -22 -4 -51 -8 -65 -10 -79 -11 -215 -26 -280 -30 -166 -9 -413 -13
-385 -6 17 4 73 9 125 10 106 3 117 4 280 20 245 25 470 73 622 133 46 18 89
32 95 32 7 -1 10 2 7 7 -3 5 0 9 6 9 6 0 16 4 23 10 59 48 75 58 81 52 4 -4 6
-2 5 3 -5 16 25 55 34 46 5 -5 7 -24 5 -42z m-2333 12 c155 -39 606 -58 940
-39 152 8 74 -5 -165 -28 -194 -18 -366 -14 -555 12 -117 17 -260 49 -285 65
-16 11 -18 11 65 -10z m-75 -121 c0 -5 -2 -10 -4 -10 -3 0 -8 5 -11 10 -3 6
-1 10 4 10 6 0 11 -4 11 -10z m50 -26 c0 -2 -7 -4 -15 -4 -8 0 -15 4 -15 10 0
5 7 7 15 4 8 -4 15 -8 15 -10z"/>
<path d="M1719 1683 c-13 -16 -12 -17 4 -4 9 7 17 15 17 17 0 8 -8 3 -21 -13z"/>
<path d="M1065 1598 c-34 -35 -40 -44 -19 -29 26 19 82 82 72 81 -2 0 -25 -24
-53 -52z"/>
<path d="M1269 1673 c-13 -16 -12 -17 4 -4 16 13 21 21 13 21 -2 0 -10 -8 -17
-17z"/>
<path d="M1229 1643 c-13 -16 -12 -17 4 -4 9 7 17 15 17 17 0 8 -8 3 -21 -13z"/>
<path d="M1309 1623 c-13 -16 -12 -17 4 -4 16 13 21 21 13 21 -2 0 -10 -8 -17
-17z"/>
<path d="M1193 1615 c-3 -9 -3 -18 -1 -21 3 -3 8 4 11 16 6 23 -1 27 -10 5z"/>
<path d="M1550 1684 c-14 -8 -31 -12 -38 -9 -7 3 -10 0 -7 -5 3 -6 -1 -13 -9
-16 -9 -3 -16 -10 -16 -16 0 -5 23 3 50 18 28 15 50 31 50 36 0 9 2 10 -30 -8z"/>
<path d="M1442 1637 c-31 -33 -27 -42 4 -10 14 14 23 27 21 29 -2 2 -13 -6
-25 -19z"/>
<path d="M1811 1661 c-17 -16 -31 -33 -31 -38 0 -4 8 1 18 12 9 11 26 28 37
38 10 9 17 17 13 17 -3 0 -20 -13 -37 -29z"/>
<path d="M1867 1679 c-9 -6 -15 -14 -12 -19 3 -4 -16 -20 -41 -35 -25 -15 -43
-29 -41 -32 8 -7 69 24 124 63 48 34 50 46 3 19 -33 -19 -49 -19 -24 0 22 17
17 19 -9 4z"/>
<path d="M1949 1663 c-13 -16 -12 -17 4 -4 9 7 17 15 17 17 0 8 -8 3 -21 -13z"/>
<path d="M1885 1620 c-3 -6 1 -7 9 -4 18 7 21 14 7 14 -6 0 -13 -4 -16 -10z"/>
<path d="M2120 1625 c-7 -9 -11 -17 -9 -20 3 -2 10 5 17 15 14 24 10 26 -8 5z"/>
<path d="M387 1423 c-9 -37 -18 -77 -22 -88 -6 -17 -5 -18 4 -4 13 20 44 149
38 156 -3 2 -12 -27 -20 -64z"/>
<path d="M542 1460 c0 -14 2 -19 5 -12 2 6 2 18 0 25 -3 6 -5 1 -5 -13z"/>
<path d="M528 1410 c-7 -24 -3 -38 8 -28 3 4 4 17 2 30 l-3 23 -7 -25z"/>
<path d="M516 1355 c-3 -8 -1 -15 4 -15 6 0 10 7 10 15 0 8 -2 15 -4 15 -2 0
-6 -7 -10 -15z"/>
<path d="M505 1314 c-4 -10 -10 -39 -12 -62 -2 -24 -7 -51 -12 -60 -5 -10 -5
-25 -2 -35 5 -13 11 2 20 47 7 36 11 72 8 80 -3 8 -1 16 5 18 6 2 9 10 6 18
-3 10 -7 9 -13 -6z"/>
<path d="M368 1298 c5 -5 16 -8 23 -6 8 3 3 7 -10 11 -17 4 -21 3 -13 -5z"/>
<path d="M380 1254 c-37 -12 -45 -29 -71 -149 -7 -33 -16 -68 -21 -77 -5 -11
-5 -18 1 -18 11 0 14 9 31 90 31 146 27 137 81 144 26 4 51 10 53 15 8 12 -33
9 -74 -5z"/>
<path d="M465 1098 c-4 -18 -13 -36 -19 -40 -7 -5 -5 -8 6 -8 12 0 19 11 24
35 8 46 -2 57 -11 13z"/>
<path d="M796 1493 c-11 -36 -37 -224 -33 -236 2 -7 10 29 16 78 7 50 17 108
21 130 9 41 6 61 -4 28z"/>
<path d="M649 1499 c-6 -32 -9 -47 -14 -66 -3 -13 -3 -23 -1 -23 8 0 28 81 22
88 -3 3 -6 3 -7 1z"/>
<path d="M630 1396 c0 -4 -9 -51 -19 -104 -28 -140 -32 -166 -25 -159 9 9 55
259 49 265 -3 3 -5 2 -5 -2z"/>
<path d="M745 1211 c-3 -10 -4 -23 -3 -28 2 -4 -7 -21 -19 -37 -13 -16 -23
-26 -23 -23 0 3 -12 0 -27 -8 -29 -15 -69 -3 -57 17 4 7 2 8 -5 4 -9 -6 -9
-11 0 -22 9 -11 8 -14 -7 -15 -11 -1 -23 -1 -29 1 -6 1 -6 -3 1 -9 14 -15 111
7 147 34 20 15 29 31 33 63 5 44 0 56 -11 23z"/>
<path d="M989 1496 c-3 -3 -24 -6 -47 -7 -23 -2 -42 -6 -42 -10 0 -10 82 1 95
12 5 5 7 9 4 9 -3 0 -8 -2 -10 -4z"/>
<path d="M1010 1483 c0 -6 5 -15 11 -19 6 -3 9 -22 7 -40 -2 -19 -1 -34 3 -34
4 0 9 20 10 44 2 24 0 42 -5 39 -4 -3 -12 1 -17 8 -6 9 -9 10 -9 2z"/>
<path d="M886 1423 c-9 -60 -7 -80 10 -87 14 -5 15 -4 4 8 -8 11 -10 31 -5 66
8 58 1 69 -9 13z"/>
<path d="M930 1450 c-1 -3 -5 -24 -9 -47 l-8 -43 38 0 c31 0 39 4 39 19 0 10
3 32 6 49 6 30 5 31 -30 29 -20 -1 -36 -4 -36 -7z m38 -51 c-3 -8 -7 -3 -11
10 -4 17 -3 21 5 13 5 -5 8 -16 6 -23z"/>
<path d="M1005 1350 c-11 -16 -26 -30 -32 -30 -7 0 -13 -4 -13 -10 0 -18 15
-11 44 19 16 16 27 34 25 40 -2 6 -13 -3 -24 -19z"/>
<path d="M872 1308 c-5 -7 -13 -44 -17 -83 -3 -38 -11 -75 -17 -82 -8 -10 -6
-13 5 -13 12 0 17 15 22 58 10 94 15 109 38 120 l22 11 -21 0 c-12 1 -26 -5
-32 -11z"/>
<path d="M974 1265 c1 -16 8 -39 14 -50 11 -18 12 -17 6 10 -4 17 -11 39 -15
50 -6 16 -7 14 -5 -10z"/>
<path d="M1179 1493 c-21 -3 -28 -11 -31 -33 -2 -16 -1 -27 4 -24 4 3 8 14 8
25 0 15 7 19 35 19 19 0 35 5 35 10 0 10 -4 10 -51 3z"/>
<path d="M1273 1475 c7 -5 16 -17 20 -25 3 -8 5 -3 4 12 -1 19 -6 26 -20 25
-15 -1 -16 -3 -4 -12z"/>
<path d="M1180 1415 c0 -45 0 -45 35 -45 35 0 35 0 35 45 0 45 0 45 -35 45
-35 0 -35 0 -35 -45z m50 5 c0 -5 -5 -10 -11 -10 -5 0 -7 5 -4 10 3 6 8 10 11
10 2 0 4 -4 4 -10z"/>
<path d="M1140 1391 c0 -17 4 -32 8 -35 4 -2 6 11 4 30 -5 42 -12 45 -12 5z"/>
<path d="M1280 1405 c0 -8 2 -15 4 -15 2 0 6 7 10 15 3 8 1 15 -4 15 -6 0 -10
-7 -10 -15z"/>
<path d="M1258 1352 c-19 -19 -27 -37 -26 -59 1 -18 5 -30 10 -27 4 3 8 0 8
-7 0 -7 2 -10 5 -7 3 3 1 17 -6 31 -10 23 -8 29 20 56 17 17 31 33 31 36 0 11
-16 3 -42 -23z"/>
<path d="M1164 1338 c-3 -5 -10 -5 -16 -2 -6 4 -8 2 -4 -4 3 -6 2 -13 -4 -17
-13 -8 -13 -25 1 -25 5 0 8 4 5 8 -3 5 4 16 15 25 10 9 19 13 19 8 0 -5 7 -12
16 -15 13 -5 14 -4 6 7 -7 8 -10 16 -7 19 3 2 -2 5 -10 5 -9 0 -18 -4 -21 -9z"/>
<path d="M1132 1260 c0 -14 2 -19 5 -12 2 6 2 18 0 25 -3 6 -5 1 -5 -13z"/>
<path d="M1404 1380 c0 -58 1 -81 3 -52 2 28 2 76 0 105 -2 28 -3 5 -3 -53z"/>
<path d="M1518 1483 c7 -3 16 -2 19 1 4 3 -2 6 -13 5 -11 0 -14 -3 -6 -6z"/>
<path d="M1508 1377 c4 -125 10 -133 11 -15 1 53 -3 99 -7 102 -4 2 -6 -37 -4
-87z"/>
<path d="M1846 1475 c4 -16 7 -35 7 -42 0 -7 4 -13 8 -13 11 0 0 62 -13 75 -6
6 -7 -1 -2 -20z"/>
<path d="M1825 1429 c-4 -6 -5 -12 -2 -15 2 -3 7 2 10 11 7 17 1 20 -8 4z"/>
<path d="M1789 1381 c-2 -28 -1 -51 2 -51 10 0 16 79 8 92 -4 6 -8 -12 -10
-41z"/>
<path d="M1873 1380 c6 -16 13 -27 15 -25 7 7 -8 55 -17 55 -5 0 -4 -13 2 -30z"/>
<path d="M1885 1330 c3 -5 8 -10 11 -10 2 0 4 5 4 10 0 6 -5 10 -11 10 -5 0
-7 -4 -4 -10z"/>
<path d="M2020 1491 c0 -5 5 -13 10 -16 6 -3 10 -2 10 4 0 5 -4 13 -10 16 -5
3 -10 2 -10 -4z"/>
<path d="M2162 1445 c0 -16 2 -22 5 -12 2 9 2 23 0 30 -3 6 -5 -1 -5 -18z"/>
<path d="M2042 1445 c2 -11 7 -23 12 -26 4 -4 3 -15 -2 -26 -13 -24 -4 -72 9
-51 12 18 11 31 -1 23 -13 -8 -13 -2 1 29 9 19 8 29 -5 48 -16 21 -17 21 -14
3z"/>
<path d="M2175 1343 c2 -40 8 -80 13 -89 11 -19 5 68 -8 126 -6 25 -7 15 -5
-37z"/>
<path d="M2070 1385 c0 -12 27 -62 43 -80 13 -14 11 -5 -8 33 -23 46 -35 62
-35 47z"/>
<path d="M2021 1350 c0 -8 4 -24 9 -35 9 -20 9 -20 9 0 0 11 -4 27 -9 35 -9
13 -10 13 -9 0z"/>
<path d="M2359 1505 c-1 -5 -1 -13 0 -17 0 -5 -18 -9 -41 -10 l-43 -1 50 -6
c28 -4 51 -6 53 -5 1 1 -2 12 -7 25 -5 13 -11 20 -12 14z"/>
<path d="M2268 1415 c2 -14 6 -25 8 -25 2 0 4 11 4 25 0 14 -4 25 -9 25 -4 0
-6 -11 -3 -25z"/>
<path d="M2384 1299 c-3 -6 -22 -9 -40 -7 -19 2 -34 0 -34 -5 0 -4 -3 -6 -7
-4 -5 3 -8 -8 -8 -24 0 -16 3 -29 8 -29 4 0 7 12 7 26 0 26 2 26 45 22 39 -5
45 -3 45 13 0 21 -6 24 -16 8z"/>
<path d="M2586 1477 c3 -9 11 -17 18 -17 7 0 6 -3 -2 -9 -11 -7 -11 -9 0 -14
21 -8 18 20 -4 40 -18 16 -18 16 -12 0z"/>
<path d="M2485 1470 c3 -5 2 -10 -3 -12 -4 -1 -5 -16 -1 -33 l7 -30 1 33 c1
29 4 32 33 32 17 0 29 2 26 5 -8 9 -68 13 -63 5z"/>
<path d="M2495 1340 c-3 -5 -1 -10 4 -10 6 0 11 5 11 10 0 6 -2 10 -4 10 -3 0
-8 -4 -11 -10z"/>
<path d="M2510 1310 c0 -5 5 -10 11 -10 5 0 7 5 4 10 -3 6 -8 10 -11 10 -2 0
-4 -4 -4 -10z"/>
<path d="M2540 1257 c0 -5 9 -7 20 -4 11 3 23 1 26 -4 3 -5 15 -9 27 -8 14 0
17 2 7 6 -8 2 -22 7 -30 10 -26 10 -50 10 -50 0z"/>
<path d="M2666 1217 c3 -10 9 -15 12 -12 3 3 0 11 -7 18 -10 9 -11 8 -5 -6z"/>
<path d="M2682 1180 c0 -8 4 -26 8 -40 6 -20 8 -21 8 -5 0 11 -3 29 -8 40 -5
12 -8 14 -8 5z"/>
<path d="M2693 1095 c0 -8 4 -15 9 -15 4 0 8 4 8 9 0 6 -4 12 -8 15 -5 3 -9
-1 -9 -9z"/>
<path d="M2703 1058 c1 -6 -8 -17 -21 -23 -22 -12 -22 -13 -3 -18 10 -2 24 0
30 6 14 14 14 47 1 47 -5 0 -9 -5 -7 -12z"/>
<path d="M2630 1040 c0 -5 5 -10 10 -10 6 0 10 5 10 10 0 6 -4 10 -10 10 -5 0
-10 -4 -10 -10z"/>
<path d="M1718 1123 c7 -3 16 -2 19 1 4 3 -2 6 -13 5 -11 0 -14 -3 -6 -6z"/>
<path d="M915 1080 c-3 -6 1 -7 9 -4 18 7 21 14 7 14 -6 0 -13 -4 -16 -10z"/>
<path d="M1935 1160 c-3 -5 -1 -10 4 -10 6 0 11 5 11 10 0 6 -2 10 -4 10 -3 0
-8 -4 -11 -10z"/>
<path d="M905 1761 c-3 -5 -2 -12 3 -15 5 -3 9 1 9 9 0 17 -3 19 -12 6z"/>
<path d="M130 710 c-8 -5 -12 -12 -9 -15 4 -3 12 1 19 10 14 17 11 19 -10 5z"/>
<path d="M2736 588 c3 -5 10 -6 15 -3 13 9 11 12 -6 12 -8 0 -12 -4 -9 -9z"/>
</g>
</svg>
