 <svg  version="1.0" xmlns="http://www.w3.org/2000/svg"  width="2500.000000pt" height="2500.000000pt" viewBox="0 0 256.000000 229.000000"  preserveAspectRatio="xMidYMid meet">  <g transform="translate(0.000000,229.000000) scale(0.100000,-0.100000)" fill="#535353" stroke="none"> <path d="M1176 2175 c-43 -12 -81 -27 -85 -32 -3 -6 -17 -16 -30 -22 -19 -11 -93 -64 -156 -113 -5 -5 -28 -22 -50 -39 -44 -34 -49 -47 -22 -63 14 -9 21 -7 31 7 7 9 16 17 20 17 5 0 41 27 82 60 41 33 76 60 80 60 3 0 20 11 38 25 78 60 242 84 340 51 26 -9 52 -16 59 -16 10 0 49 -72 74 -135 2 -7 -36 -11 -114 -10 -129 0 -140 -4 -214 -71 -48 -43 -70 -90 -77 -157 -3 -40 -9 -57 -17 -53 -8 3 -12 -5 -11 -22 1 -25 -2 -27 -31 -24 -18 2 -33 1 -33 -2 0 -3 15 -10 33 -15 23 -7 10 -8 -53 -4 -104 7 -104 -2 0 -11 60 -5 80 -3 95 9 20 15 20 15 0 8 -18 -6 -18 -5 -7 10 8 9 11 21 7 27 -3 5 -2 10 3 10 11 0 19 -37 14 -62 -2 -12 -13 -18 -30 -18 -20 0 -23 -3 -13 -9 9 -6 22 -6 32 0 15 8 20 1 33 -45 9 -30 16 -57 16 -60 0 -22 83 -141 131 -188 33 -31 59 -65 59 -75 0 -66 -113 -103 -222 -73 -38 11 -101 72 -113 109 -3 12 -11 21 -16 21 -19 0 -8 -30 30 -77 31 -40 49 -53 92 -66 30 -9 68 -18 86 -19 25 -2 30 -5 21 -15 -7 -9 -7 -13 0 -13 6 0 16 8 21 18 7 13 32 23 83 32 40 7 90 22 112 32 56 28 77 18 132 -62 29 -43 55 -70 65 -70 24 0 52 30 101 108 46 72 62 68 41 -11 -8 -31 -11 -71 -7 -99 6 -47 13 -54 52 -49 6 1 12 -5 12 -12 0 -8 12 -19 28 -25 59 -24 81 -24 125 -3 44 21 65 51 74 102 5 31 -28 101 -68 144 -15 17 -46 65 -67 108 -22 43 -46 84 -53 93 -7 9 -12 36 -10 68 2 40 -3 58 -19 78 -14 19 -19 35 -14 52 7 29 -8 27 219 30 74 0 131 5 133 11 2 5 -2 11 -10 13 -9 2 -8 0 2 -8 11 -9 -17 -10 -119 -7 -90 3 -136 8 -139 15 -2 7 -12 12 -22 12 -29 0 -50 11 -50 26 0 8 5 14 11 14 5 0 3 10 -5 22 -9 12 -16 33 -16 46 0 53 -79 145 -125 145 -25 0 -26 2 -20 36 11 61 35 137 49 157 13 17 27 19 113 18 88 -2 104 -5 162 -33 35 -18 70 -30 77 -27 43 17 -24 69 -135 105 -54 18 -180 13 -226 -8 -22 -10 -45 -24 -52 -32 -12 -15 -40 -105 -50 -162 -8 -43 -35 -30 -48 23 -7 25 -23 69 -36 98 -28 61 -68 85 -170 101 -131 20 -152 20 -233 -4z m132 -2 c-16 -2 -40 -2 -55 0 -16 2 -3 4 27 4 30 0 43 -2 28 -4z m-118 -10 c-8 -3 -32 -14 -52 -25 -21 -10 -38 -16 -38 -13 0 8 74 44 90 44 13 -1 13 -1 0 -6z m666 -14 c-38 -4 -73 -12 -79 -18 -6 -6 -18 -11 -26 -11 -9 0 -4 6 11 14 38 20 56 24 113 24 45 -1 43 -1 -19 -9z m-297 -60 l11 -32 -23 24 c-13 13 -22 26 -20 28 1 2 -3 11 -10 19 -10 13 -9 14 9 4 12 -6 27 -26 33 -43z m179 -36 c-27 -74 -33 -80 -33 -37 0 19 5 34 12 34 6 0 14 14 18 30 4 17 11 30 15 30 5 0 0 -26 -12 -57z m372 37 c13 -11 19 -20 13 -20 -5 0 -18 9 -28 20 -10 11 -16 20 -13 20 3 0 15 -9 28 -20z m-524 -65 c4 -14 4 -29 0 -32 -3 -4 -6 1 -6 10 0 8 -7 23 -16 31 -14 14 -14 16 0 16 9 0 18 -11 22 -25z m17 -52 c3 -5 8 -28 11 -53 5 -33 4 -41 -3 -30 -6 8 -11 25 -11 38 0 12 -7 25 -15 28 -8 4 -12 10 -9 15 6 11 21 12 27 2z m106 -25 c-1 -13 -5 -34 -9 -48 -7 -19 -8 -15 -7 22 1 27 5 48 10 48 4 0 7 -10 6 -22z m-205 -10 c-3 -4 9 -5 26 -2 19 4 30 2 30 -5 0 -21 3 -26 42 -71 51 -57 73 -105 73 -155 0 -35 -3 -40 -23 -39 -20 1 -21 -1 -9 -14 22 -21 57 1 57 37 0 15 -3 31 -7 35 -4 3 -6 30 -6 59 0 32 -1 39 -4 19 l-4 -33 -29 43 c-21 33 -27 51 -23 76 6 35 26 39 32 6 2 -10 11 -27 21 -36 17 -16 18 -16 23 1 6 24 52 32 74 14 17 -14 17 -14 1 -9 -23 7 -23 -25 -2 -114 9 -36 22 -114 29 -175 7 -60 13 -91 14 -67 1 48 8 51 40 20 22 -19 23 -27 18 -90 -7 -78 -45 -171 -113 -279 -49 -78 -75 -109 -89 -109 -12 0 -38 29 -56 62 -6 13 -15 25 -19 28 -4 3 -24 32 -45 65 -21 33 -41 62 -45 65 -4 3 -9 10 -11 17 -7 19 -118 141 -154 169 -20 15 -42 24 -50 20 -13 -5 -12 -13 9 -55 28 -55 100 -122 156 -147 21 -10 49 -31 61 -47 l22 -30 -39 7 c-91 17 -198 103 -260 209 -45 77 -54 137 -25 166 11 11 29 21 39 20 56 -1 150 -67 214 -149 15 -19 28 -30 28 -24 0 5 -23 36 -51 68 -56 63 -139 116 -181 116 -23 0 -29 7 -43 51 -25 75 -17 157 21 212 43 61 82 77 181 74 44 -1 79 -5 77 -9z m-300 -113 c-19 -46 -17 -99 5 -163 l18 -54 -22 -24 -23 -24 -6 34 c-16 84 -7 184 20 239 20 38 26 34 8 -8z m612 -66 c5 -77 -11 -51 -22 33 -5 41 -4 50 6 42 6 -7 14 -40 16 -75z m112 -136 c-10 -2 -28 -2 -40 0 -13 2 -5 4 17 4 22 1 32 -1 23 -4z m-447 -335 c13 -24 7 -23 -27 8 -16 14 -39 29 -51 34 -13 5 -23 17 -23 25 0 9 -4 14 -9 10 -13 -7 -31 27 -31 57 1 20 11 13 66 -46 36 -38 70 -78 75 -88z m451 18 c12 -28 24 -54 26 -58 2 -5 -1 -8 -6 -8 -5 0 -23 26 -40 58 -23 43 -28 59 -17 59 8 0 24 -23 37 -51z m-32 -53 c0 -18 -37 -16 -43 1 -3 8 -3 24 0 36 l6 23 18 -24 c10 -13 19 -30 19 -36z m94 -51 c2 -4 -14 -6 -37 -3 -38 3 -40 2 -25 -13 18 -18 33 -22 23 -6 -10 16 11 11 25 -5 7 -9 19 -14 26 -11 7 3 17 -1 22 -7 8 -9 -3 -12 -41 -12 -39 0 -60 6 -84 24 -18 13 -30 28 -27 33 6 10 111 11 118 0z m-116 -60 c23 -18 23 -18 4 -35 -27 -25 -49 -13 -44 23 5 35 9 36 40 12z m92 -22 c-8 -5 -22 -10 -30 -10 -13 0 -13 1 0 10 8 5 22 10 30 10 13 0 13 -1 0 -10z m50 -29 c14 -27 13 -51 -3 -51 -12 0 -21 12 -45 63 -8 17 38 5 48 -12z m42 -16 c4 -16 5 -31 3 -34 -9 -8 -23 13 -31 43 -9 39 17 31 28 -9z m-125 -24 c15 -32 9 -41 -28 -41 -27 0 -29 3 -29 36 0 31 3 35 22 32 12 -2 28 -14 35 -27z m21 8 c19 -30 8 -34 -12 -4 -9 14 -13 25 -9 25 5 0 14 -9 21 -21z m-98 2 c0 -18 -18 -21 -30 -6 -10 13 -9 15 9 15 11 0 21 -4 21 -9z m110 -70 c-6 -12 -15 -21 -20 -21 -14 0 -12 7 7 30 21 24 29 19 13 -9z m60 2 c0 -13 -34 -43 -49 -43 -14 1 -13 2 2 11 9 5 17 17 17 24 0 8 7 15 15 15 8 0 15 -3 15 -7z m-100 -23 c0 -13 -20 -13 -40 0 -12 8 -9 10 13 10 15 0 27 -4 27 -10z"/> <path d="M1332 1884 c-80 -56 -67 -213 23 -293 77 -67 176 -58 216 21 15 30 25 38 37 33 11 -4 7 4 -10 22 -15 16 -39 51 -54 78 -14 28 -33 62 -41 78 -34 63 -123 95 -171 61z m114 -50 c32 -21 54 -64 54 -104 0 -39 -16 -39 -25 0 -4 17 -22 51 -41 75 -35 47 -31 57 12 29z m-43 -51 c67 -105 67 -106 97 -99 52 10 64 -39 20 -79 -12 -11 -39 -20 -64 -21 -38 -2 -48 2 -74 29 -44 46 -75 123 -67 167 15 77 39 78 88 3z"/> <path d="M1550 1849 c0 -3 16 -36 35 -73 19 -37 35 -75 35 -84 0 -12 3 -13 12 -4 17 17 -8 84 -48 130 -18 20 -33 34 -34 31z"/> <path d="M1720 1733 c0 -18 5 -33 10 -33 13 0 13 30 0 50 -7 11 -10 7 -10 -17z"/> <path d="M1285 1541 c-3 -5 5 -13 17 -17 13 -4 42 -20 65 -35 50 -35 62 -37 31 -6 -60 59 -99 79 -113 58z"/> <path d="M1706 1528 c-8 -14 -16 -62 -19 -118 -6 -109 -12 -130 -38 -130 -19 0 -19 -1 1 -22 12 -13 24 -18 29 -12 19 20 35 94 40 189 4 56 10 100 16 100 15 0 18 -191 5 -255 -7 -30 -19 -68 -28 -85 l-15 -30 -43 50 c-35 39 -44 45 -44 29 0 -24 59 -84 82 -84 22 0 53 45 67 95 14 51 14 250 1 276 -14 25 -36 24 -54 -3z"/> <path d="M1802 1433 c-1 -17 -5 -40 -8 -50 -5 -14 -4 -15 5 -7 7 7 11 28 8 50 -3 35 -4 35 -5 7z"/> <path d="M493 1813 c26 -2 68 -2 95 0 26 2 4 3 -48 3 -52 0 -74 -1 -47 -3z"/> <path d="M268 1779 c-85 -29 -145 -66 -184 -112 -28 -33 -29 -40 -9 -61 23 -22 66 -28 196 -24 84 2 120 -1 128 -9 7 -8 34 -12 69 -11 l57 2 -58 3 c-35 3 -60 9 -63 17 -3 9 -21 11 -59 8 -69 -6 -109 4 -101 24 3 9 2 12 -5 9 -6 -4 -8 -13 -5 -21 4 -11 -6 -14 -44 -14 -55 0 -100 16 -100 37 0 16 60 74 70 68 4 -3 23 2 41 10 19 8 27 14 18 15 -9 0 -16 7 -16 15 0 11 6 13 20 9 14 -4 17 -3 12 6 -5 8 -2 10 11 6 11 -3 39 1 64 8 38 11 41 14 20 17 -14 2 28 5 92 6 89 2 117 0 115 -10 -1 -6 -18 -15 -37 -18 -25 -4 -16 -6 29 -6 52 1 60 2 38 10 -38 12 -24 27 28 27 24 0 46 3 48 8 3 4 -63 7 -145 8 -140 1 -157 -1 -230 -27z m140 14 c-10 -2 -26 -2 -35 0 -10 3 -2 5 17 5 19 0 27 -2 18 -5z m-113 -23 c-11 -5 -27 -9 -35 -9 -9 0 -8 4 5 9 11 5 27 9 35 9 9 0 8 -4 -5 -9z m-105 -40 c-13 -9 -13 -10 0 -10 13 0 13 -2 0 -9 -8 -6 -18 -7 -22 -4 -13 7 -76 -44 -83 -68 -4 -11 -9 -18 -12 -16 -15 16 91 116 122 117 6 0 3 -5 -5 -10z"/> <path d="M680 1804 c14 -2 63 -12 110 -21 69 -14 80 -18 60 -25 -16 -5 -9 -5 20 -2 28 3 40 2 32 -4 -9 -6 0 -12 29 -21 70 -21 75 -22 44 -7 -23 12 -25 15 -10 15 11 0 38 -9 60 -20 36 -17 37 -19 10 -14 -20 4 -25 3 -16 -3 17 -12 2 -23 -49 -34 -31 -6 -29 -7 13 -4 26 2 56 11 66 20 28 25 37 19 11 -9 -13 -14 -18 -25 -12 -25 7 0 12 5 12 11 0 6 6 9 13 6 8 -3 20 -1 28 5 11 8 9 9 -6 4 -18 -5 -18 -4 -3 6 15 11 8 16 -49 40 -47 20 -76 27 -97 23 -20 -4 -26 -3 -18 3 20 13 -173 62 -238 60 -25 0 -28 -2 -10 -4z"/> <path d="M668 1783 c12 -2 30 -2 40 0 9 3 -1 5 -23 4 -22 0 -30 -2 -17 -4z"/> <path d="M282 1738 c-71 -16 -43 -18 38 -3 42 7 60 13 40 13 -19 0 -55 -5 -78 -10z"/> <path d="M635 1740 c17 -4 44 -8 60 -8 25 0 24 2 -10 9 -51 10 -92 10 -50 -1z"/> <path d="M2120 1739 c25 -5 63 -7 85 -4 31 5 37 4 25 -5 -12 -9 -4 -10 33 -8 50 3 65 -8 20 -15 -23 -3 -21 -4 9 -6 20 0 40 4 43 9 10 16 25 11 18 -6 -5 -14 -1 -16 25 -12 18 2 33 0 35 -6 3 -6 8 -7 13 -3 12 11 -17 28 -39 23 -9 -2 -15 0 -12 4 11 17 -123 40 -224 39 -73 -1 -74 -2 -31 -10z"/> <path d="M1951 1728 c-38 -7 -50 -13 -40 -19 19 -12 42 -11 34 0 -3 6 9 7 31 4 29 -5 35 -3 29 7 -6 10 -2 12 16 7 13 -4 38 -7 54 -8 29 -1 30 -1 5 -9 -22 -7 -21 -8 13 -9 35 -1 37 1 23 14 -20 20 -97 26 -165 13z"/> <path d="M743 1723 c9 -2 25 -2 35 0 9 3 1 5 -18 5 -19 0 -27 -2 -17 -5z"/> <path d="M828 1713 c12 -2 30 -2 40 0 9 3 -1 5 -23 4 -22 0 -30 -2 -17 -4z"/> <path d="M598 1703 c34 -2 90 -2 125 0 34 2 6 3 -63 3 -69 0 -97 -1 -62 -3z"/> <path d="M850 1700 l-45 -7 45 0 c25 0 59 3 75 7 l30 8 -30 -1 c-16 0 -50 -3 -75 -7z"/> <path d="M438 1693 c17 -2 47 -2 65 0 17 2 3 4 -33 4 -36 0 -50 -2 -32 -4z"/> <path d="M950 1690 c-12 -8 -9 -10 13 -10 15 0 27 5 27 10 0 13 -20 13 -40 0z"/> <path d="M2026 1689 c11 -4 75 -7 144 -7 69 0 118 2 110 4 -32 7 -271 10 -254 3z"/> <path d="M285 1683 c-51 -11 -157 -45 -153 -49 3 -2 25 3 49 11 24 9 78 22 119 30 42 7 59 13 40 13 -19 0 -44 -2 -55 -5z"/> <path d="M1920 1682 c0 -17 58 -22 224 -20 l161 2 -165 7 c-91 3 -177 10 -192 14 -17 4 -28 3 -28 -3z"/> <path d="M2441 1683 c4 -27 -1 -35 -16 -23 -8 6 -20 10 -27 7 -8 -4 -7 -6 5 -6 33 -2 17 -21 -17 -21 -19 0 -38 5 -41 10 -3 6 -14 9 -23 9 -13 -1 -12 -3 3 -7 20 -5 20 -5 0 -13 -13 -5 3 -8 47 -8 48 -1 71 3 83 15 12 12 13 19 4 30 -13 15 -20 18 -18 7z"/> <path d="M618 1673 c57 -2 147 -2 200 0 53 1 7 3 -103 3 -110 0 -154 -2 -97 -3z"/> <path d="M2333 1673 c9 -2 25 -2 35 0 9 3 1 5 -18 5 -19 0 -27 -2 -17 -5z"/> <path d="M415 1665 c-5 -2 -32 -6 -58 -10 -27 -4 -47 -8 -45 -10 2 -2 49 2 103 9 62 9 83 14 55 14 -25 0 -49 -1 -55 -3z"/> <path d="M788 1653 c23 -2 59 -2 80 0 20 2 1 4 -43 4 -44 0 -61 -2 -37 -4z"/> <path d="M648 1643 c18 -2 45 -2 60 0 15 2 0 4 -33 4 -33 0 -45 -2 -27 -4z"/> <path d="M900 1640 l-75 -6 90 -2 c50 -1 97 3 105 8 17 11 7 11 -120 0z"/> <path d="M2113 1643 c15 -2 39 -2 55 0 15 2 2 4 -28 4 -30 0 -43 -2 -27 -4z"/> <path d="M558 1633 c12 -2 30 -2 40 0 9 3 -1 5 -23 4 -22 0 -30 -2 -17 -4z"/> <path d="M435 1615 c-39 -18 -31 -18 25 -1 25 8 36 15 25 15 -11 0 -33 -6 -50 -14z"/> <path d="M665 1589 c-60 -10 -97 -17 -82 -18 16 -1 58 3 95 8 37 6 111 12 166 15 l98 5 -20 -22 c-24 -27 -37 -51 -56 -108 -21 -61 -10 -62 15 -1 12 29 25 49 30 47 4 -3 11 0 15 6 4 8 3 9 -4 5 -21 -13 -13 11 14 43 14 17 22 32 17 33 -34 8 -197 0 -288 -13z"/> <path d="M983 1590 c-31 -12 -29 -22 1 -14 42 10 50 -5 20 -37 -15 -16 -34 -29 -41 -29 -13 0 -36 -46 -31 -61 6 -17 108 93 108 116 0 18 -21 39 -33 34 -1 0 -12 -4 -24 -9z"/> <path d="M631 1554 c-52 -8 -96 -16 -99 -18 -2 -3 3 -26 12 -52 9 -26 16 -55 15 -63 0 -9 -7 7 -16 34 -17 57 -38 87 -31 43 7 -36 -40 -83 -71 -73 -12 3 -21 2 -21 -3 0 -5 15 -14 33 -20 17 -5 24 -10 15 -11 -9 -1 -29 4 -43 9 -23 9 -25 13 -15 26 7 8 20 14 29 12 30 -4 61 21 61 50 0 16 5 33 12 40 9 9 6 12 -13 12 -19 0 -41 -17 -80 -58 -74 -80 -83 -92 -122 -166 -141 -265 -119 -582 58 -827 77 -105 215 -219 310 -255 115 -44 151 -54 240 -65 230 -28 460 50 634 215 35 34 76 80 92 103 l29 41 -38 13 c-20 6 -58 22 -84 34 l-48 23 6 -23 c4 -17 0 -26 -16 -35 -12 -6 -19 -14 -17 -17 3 -2 19 3 37 12 58 30 96 -11 70 -76 -16 -37 -68 -68 -81 -47 -15 22 -10 34 19 48 15 7 22 15 15 17 -6 2 -24 -2 -40 -11 -21 -10 -34 -11 -47 -4 -13 7 -22 6 -32 -4 -13 -12 -10 -20 21 -59 l35 -44 -21 -17 c-12 -10 -25 -18 -29 -18 -5 0 -21 20 -37 45 -15 25 -31 45 -34 45 -4 0 -27 -11 -50 -25 -41 -23 -40 -37 1 -15 15 8 20 6 25 -10 8 -24 -1 -40 -21 -40 -8 0 -14 -4 -14 -10 0 -13 6 -13 32 1 20 11 37 0 38 -23 0 -10 -75 -48 -93 -48 -15 0 -73 117 -63 127 3 3 18 -22 33 -55 l28 -60 38 15 c44 18 50 37 8 28 -51 -11 -49 30 3 48 6 2 8 8 4 12 -5 5 -19 3 -32 -3 -20 -9 -25 -8 -30 5 -7 18 -8 16 22 32 12 7 20 16 17 21 -3 6 -28 -1 -56 -15 -47 -24 -49 -28 -45 -58 3 -18 8 -53 11 -80 l6 -47 -31 0 c-21 0 -46 11 -71 31 l-39 31 0 -40 c0 -37 -3 -41 -27 -44 -28 -3 -28 -2 -39 77 -6 44 -9 83 -7 88 8 13 60 7 73 -8 7 -9 25 -24 39 -34 l26 -19 -3 39 c-3 25 0 39 8 39 6 0 36 11 66 25 30 14 58 25 62 25 4 0 36 20 71 45 48 33 67 42 73 33 5 -9 8 -4 8 13 0 18 12 37 34 57 25 22 31 32 21 36 -9 3 -38 -18 -72 -52 -186 -184 -469 -219 -693 -85 -136 80 -243 241 -263 393 -35 263 91 496 326 604 32 14 61 26 65 26 9 0 42 54 42 69 0 15 -119 12 -239 -5z m154 -33 c-6 -4 -35 -21 -65 -37 -30 -16 -66 -36 -79 -46 -35 -26 -48 -22 -53 17 -5 47 -1 52 57 63 65 13 152 15 140 3z m-252 -93 c8 -28 5 -30 -27 -22 -26 6 -26 7 -10 25 22 25 30 24 37 -3z m-65 -76 c46 -31 51 -38 38 -50 -12 -12 -20 -10 -60 17 l-45 32 -21 -21 -20 -20 38 -19 c20 -11 33 -20 27 -21 -5 0 -26 10 -45 21 -19 12 -36 17 -37 12 -7 -21 -32 -48 -33 -35 0 7 10 23 23 36 12 13 23 30 25 37 7 28 33 59 45 53 7 -4 36 -23 65 -42z m107 10 c-1 -1 -19 5 -41 13 -36 14 -37 15 -6 9 23 -4 32 -2 33 8 0 7 4 4 8 -7 5 -11 8 -21 6 -23z m-165 -107 c48 -24 64 -23 38 3 -13 13 0 16 19 4 10 -7 10 -12 0 -26 -12 -16 -16 -15 -61 10 -47 26 -49 27 -62 9 -17 -23 -18 -32 -1 -38 6 -2 -1 -2 -18 1 -42 6 -26 -7 42 -34 68 -28 63 -27 63 -13 0 5 -14 15 -31 21 -16 6 -28 12 -26 14 8 9 67 -19 67 -31 0 -26 -19 -25 -85 2 -46 19 -64 31 -60 41 3 7 5 18 5 23 0 5 7 9 15 9 9 0 18 7 21 15 8 20 17 19 74 -10z m-80 -95 c0 -11 -6 -20 -14 -20 -21 0 -30 -20 -16 -33 9 -9 16 -5 32 16 21 28 55 36 76 15 15 -15 16 -50 1 -65 -6 -6 -12 -36 -13 -68 -2 -31 -8 -60 -14 -64 -9 -5 -8 -12 3 -27 17 -22 20 -100 4 -109 -6 -4 -8 -13 -6 -20 3 -7 -14 -21 -44 -35 -27 -13 -49 -27 -49 -31 0 -5 7 -5 17 -2 11 4 14 3 9 -5 -10 -17 -33 -15 -40 3 -4 11 7 20 37 32 l42 18 -30 6 -30 7 32 1 c87 3 83 161 -4 161 -33 0 -63 -26 -63 -54 0 -20 1 -20 13 3 17 34 51 44 74 23 10 -9 14 -14 9 -9 -15 11 -51 8 -64 -5 -27 -27 -2 -98 34 -98 21 0 44 30 45 58 0 15 3 21 6 14 9 -22 -6 -61 -27 -72 -30 -16 -60 -3 -75 33 -11 24 -14 27 -15 12 0 -11 8 -32 17 -45 l17 -25 -22 19 c-22 19 -30 83 -16 121 9 22 57 45 82 38 15 -4 22 -1 22 10 0 10 -17 16 -61 21 -82 10 -75 31 12 32 38 1 46 -1 21 -3 -50 -5 -47 -23 4 -23 28 0 34 -4 35 -22 1 -22 1 -22 9 2 12 36 12 72 0 65 -5 -3 -10 1 -10 9 0 9 4 16 10 16 15 0 32 39 25 60 -9 28 -43 25 -67 -5 -22 -29 -43 -32 -52 -8 -4 10 2 25 15 40 25 26 15 32 -13 6 -21 -18 -24 -53 -6 -71 19 -19 37 -14 68 20 24 26 30 29 36 15 3 -9 4 -22 1 -29 -3 -7 -6 -2 -6 12 -1 24 -2 23 -30 -10 -26 -31 -31 -34 -57 -25 -38 13 -45 64 -15 94 27 27 51 27 51 1z m90 -378 c0 -5 -9 -35 -20 -67 -11 -32 -20 -60 -20 -62 0 -2 12 -1 28 2 15 3 20 2 12 -1 -8 -4 -22 -10 -30 -15 -23 -11 -23 23 1 83 10 27 17 54 14 59 -4 5 -1 9 4 9 6 0 11 -4 11 -8z m-48 -49 c-6 -2 -10 -9 -6 -14 3 -5 -2 -32 -11 -60 -10 -28 -15 -52 -12 -55 2 -3 31 7 63 21 41 18 55 28 45 34 -8 5 -9 11 -3 15 18 11 23 -26 5 -39 -16 -12 -133 -57 -133 -51 0 2 9 29 20 61 24 71 25 75 3 76 -15 0 -15 2 2 9 11 5 25 9 30 9 6 -1 4 -3 -3 -6z m118 -126 c0 -1 -20 -24 -45 -51 -38 -41 -47 -47 -60 -36 -18 15 -20 50 -2 50 6 1 30 9 52 20 38 18 55 24 55 17z m55 -47 c17 -19 17 -21 0 -40 -17 -19 -17 -21 0 -40 l18 -20 23 21 23 21 22 -21 c22 -20 22 -21 5 -40 -18 -19 -17 -20 36 -14 45 4 58 1 88 -19 62 -42 66 -112 9 -147 -22 -14 -39 -17 -62 -11 -93 21 -124 73 -92 155 5 13 -8 5 -36 -22 -38 -36 -46 -40 -61 -29 -22 16 -23 39 -3 56 13 10 12 15 -3 35 l-17 23 -22 -26 c-21 -27 -21 -27 -42 -8 -12 11 -21 22 -21 26 0 9 103 120 111 120 3 0 14 -9 24 -20z m413 -212 c17 -14 15 -58 -4 -79 -15 -17 -14 -20 5 -48 27 -38 27 -38 -11 -33 -20 2 -42 15 -55 30 l-23 27 0 -24 c0 -17 -4 -22 -16 -17 -9 3 -23 6 -31 6 -16 0 -15 34 3 136 l6 31 56 -10 c31 -5 63 -14 70 -19z"/> <path d="M374 1358 l-17 -33 21 19 c20 17 23 18 47 2 14 -9 36 -23 50 -32 14 -9 25 -12 25 -6 0 8 -40 39 -97 75 -8 5 -18 -4 -29 -25z"/> <path d="M473 512 c-24 -29 -38 -54 -34 -61 5 -8 13 -6 26 9 22 25 23 25 60 -5 l29 -24 -24 -26 c-21 -22 -22 -28 -10 -35 22 -14 120 84 102 102 -9 9 -17 7 -35 -10 l-23 -22 -29 30 c-27 29 -28 30 -11 49 16 18 15 41 -2 41 -4 0 -26 -22 -49 -48z"/> <path d="M639 408 c-40 -33 -29 -96 23 -128 42 -26 79 -25 112 1 33 26 33 56 -2 98 -21 26 -37 34 -72 38 -29 3 -51 0 -61 -9z m103 -35 c34 -30 17 -83 -27 -83 -50 0 -84 57 -53 88 17 17 58 15 80 -5z"/> <path d="M669 364 c-24 -29 26 -78 59 -58 28 18 27 49 -3 62 -34 16 -40 15 -56 -4z"/> <path d="M835 305 c-4 -32 -9 -64 -12 -72 -3 -8 2 -13 16 -13 14 0 21 6 21 19 0 33 18 33 36 2 19 -33 57 -51 47 -22 -3 9 -13 24 -21 34 -14 15 -13 17 2 17 9 0 22 11 28 25 16 35 -3 53 -63 61 l-46 6 -8 -57z m79 19 c20 -20 12 -34 -20 -34 -19 0 -24 5 -24 25 0 29 21 33 44 9z"/> <path d="M880 310 c0 -5 7 -10 15 -10 8 0 15 5 15 10 0 6 -7 10 -15 10 -8 0 -15 -4 -15 -10z"/> <path d="M350 1507 c-50 -59 -72 -92 -115 -172 -40 -74 -46 -91 -76 -225 -78 -351 97 -726 421 -903 181 -99 377 -130 580 -91 81 15 248 80 280 109 9 8 20 15 25 15 5 0 40 28 79 63 119 105 186 191 165 211 -8 8 -13 8 -16 -2 -3 -7 -27 -41 -54 -74 -140 -175 -328 -278 -559 -308 -153 -20 -318 12 -470 91 -95 49 -119 67 -206 156 -190 193 -269 452 -220 728 24 134 106 301 190 388 21 20 34 42 31 47 -10 16 -18 11 -55 -33z"/> <path d="M749 1417 c-164 -93 -253 -224 -280 -411 -30 -212 95 -435 296 -531 96 -45 162 -59 259 -53 132 9 288 83 358 172 41 52 15 54 -34 4 -158 -160 -407 -194 -603 -82 -286 162 -339 551 -106 783 33 33 80 70 103 82 47 23 78 47 78 61 0 13 -11 9 -71 -25z"/> <path d="M1125 1429 c-4 -11 -21 -27 -38 -34 -18 -7 -35 -16 -39 -20 -7 -7 12 -45 23 -45 8 0 79 102 79 113 0 16 -19 6 -25 -14z"/> <path d="M840 1404 c-15 -10 -47 -59 -80 -125 -30 -60 -70 -124 -87 -141 -18 -18 -33 -38 -33 -45 0 -7 -4 -13 -9 -13 -15 0 -22 -68 -11 -109 16 -59 69 -97 142 -100 45 -2 61 2 76 17 21 21 39 18 22 -3 -15 -18 21 -46 69 -52 34 -5 38 -8 26 -19 -24 -24 -77 -17 -115 16 -39 32 -75 39 -84 14 -3 -9 -6 -34 -6 -57 0 -77 -17 -75 -28 4 l-9 74 -1 -60 c-1 -61 19 -137 38 -143 6 -2 17 -20 25 -39 14 -34 83 -109 91 -100 3 2 -2 17 -11 33 -16 32 -21 104 -6 104 5 0 20 17 32 38 13 20 31 43 41 50 35 25 18 31 -18 7 -43 -29 -47 -30 -64 -10 -7 8 -20 15 -29 15 -20 0 -41 19 -41 37 0 19 27 16 39 -4 7 -13 22 -18 58 -17 58 1 75 5 96 24 46 42 43 41 109 11 385 -175 626 -271 679 -271 29 0 238 98 374 175 33 19 81 45 106 59 64 35 109 74 109 96 0 18 -32 70 -79 130 -22 28 -36 24 -107 -32 -165 -130 -293 -220 -394 -277 -30 -17 -50 -31 -43 -31 7 0 34 13 61 29 l48 28 21 -31 c32 -50 37 -75 16 -82 -10 -3 -36 -14 -59 -25 -23 -10 -52 -19 -65 -19 -29 0 -183 54 -299 105 -47 20 -105 45 -130 55 -107 43 -148 67 -141 79 6 9 10 8 15 -6 7 -17 8 -17 21 1 8 10 12 23 9 27 -7 12 0 11 30 -3 23 -10 24 -12 9 -23 -23 -17 -9 -45 22 -45 27 0 33 18 13 39 -11 10 -9 11 5 5 15 -5 18 -14 13 -36 -5 -26 -3 -29 14 -23 11 4 20 2 20 -4 0 -6 5 -11 11 -11 5 0 7 4 4 10 -3 6 -1 10 6 10 8 0 8 4 -1 15 -16 19 -5 18 45 -5 30 -14 35 -19 18 -19 -12 -1 -25 -6 -28 -11 -10 -16 14 -40 39 -39 21 0 21 0 -1 9 -13 5 -23 14 -23 20 0 14 27 13 33 -2 2 -7 8 -9 13 -5 5 4 2 12 -6 18 -11 7 -7 8 15 4 21 -4 14 2 -25 21 -30 14 -67 27 -82 27 -15 0 -25 3 -23 7 4 6 -110 60 -127 60 -3 0 -9 -8 -11 -17 -4 -14 -5 -14 -6 3 -1 16 -16 28 -62 49 -60 27 -60 27 -42 48 27 33 115 116 139 132 11 7 21 20 21 28 0 12 -11 14 -57 10 -44 -4 -65 -1 -97 15 -39 20 -86 67 -95 94 -4 10 -8 10 -21 -1 -24 -19 -21 -37 10 -77 49 -65 148 -92 216 -58 l32 16 -30 -26 c-34 -28 -97 -42 -151 -32 -39 8 -114 69 -114 94 0 12 -3 13 -11 5 -8 -8 -8 -23 2 -54 25 -78 124 -112 199 -69 l35 21 -35 -30 c-45 -39 -92 -49 -147 -29 -40 14 -43 14 -43 -1 0 -11 18 -25 50 -39 l51 -22 25 27 c23 25 24 25 10 3 -21 -32 -20 -37 4 -45 15 -5 18 -10 11 -23 -16 -31 -57 -23 -176 33 -124 58 -141 64 -109 39 18 -14 18 -15 -3 -4 -27 12 -28 19 -9 45 14 19 56 31 56 17 0 -10 45 -32 65 -32 18 0 20 47 4 103 -9 33 -7 45 12 85 12 26 47 75 77 110 l55 63 -29 30 c-60 63 -142 85 -194 53z m36 -41 c-54 -118 -80 -163 -93 -163 -17 0 -18 -4 32 108 27 59 43 82 56 82 16 0 17 -3 5 -27z m96 -37 c-10 -12 -34 -45 -53 -75 -19 -30 -37 -59 -40 -64 -4 -5 -16 -6 -27 -3 -20 7 -20 8 6 54 14 26 39 68 55 94 29 46 30 46 54 31 23 -16 23 -16 5 -37z m22 -53 c-45 -57 -64 -77 -41 -43 10 14 27 40 38 58 12 17 26 32 31 32 6 0 -7 -21 -28 -47z m-144 -112 c0 -4 -15 -6 -32 -5 l-33 3 37 -12 c52 -17 53 -22 16 -50 -32 -25 -34 -25 -96 -12 -35 7 -65 15 -68 17 -2 3 6 13 18 24 12 10 18 13 13 5 -6 -11 -4 -13 8 -8 9 3 18 1 20 -6 3 -8 11 -6 23 7 16 16 16 18 2 13 -9 -3 -24 1 -35 8 -16 13 -15 14 22 16 22 0 51 4 65 8 26 8 40 5 40 -8z m58 -106 c11 -23 9 -27 -13 -35 -26 -10 -65 4 -65 23 0 4 -4 5 -10 2 -6 -3 -7 1 -4 9 3 9 10 16 16 16 5 0 6 -4 3 -10 -10 -16 11 -12 25 5 18 22 35 18 48 -10z m-252 -17 c-6 -33 -6 -33 5 -5 6 15 17 27 25 27 12 0 14 -9 9 -37 l-6 -38 15 33 c15 32 23 36 49 26 12 -4 12 -11 -4 -45 -19 -37 -41 -50 -54 -29 -3 5 -12 7 -20 4 -19 -8 -37 39 -29 72 9 35 17 29 10 -8z m125 -61 l-23 -22 17 28 c10 15 20 25 23 22 3 -3 -5 -16 -17 -28z m1490 -10 c60 -75 59 -92 -6 -136 l-42 -29 -41 72 c-36 61 -39 72 -26 81 9 6 25 18 36 28 30 25 50 21 79 -16z m-1533 -58 c7 -12 11 -23 8 -27 -7 -6 -46 27 -46 40 0 16 25 8 38 -13z m1406 -63 c20 -35 36 -68 36 -73 0 -10 -52 73 -68 110 -20 47 -5 30 32 -37z m-23 -58 c11 -21 15 -38 9 -38 -5 0 -10 4 -10 10 0 5 -13 32 -30 58 -16 27 -30 53 -30 58 0 11 35 -39 61 -88z m-1009 65 c-5 -10 -7 -23 -5 -30 5 -13 -34 -6 -43 8 -3 5 2 6 10 3 8 -3 19 3 26 15 6 12 13 21 16 21 2 0 1 -8 -4 -17z m45 -1 c11 -7 7 -62 -6 -62 -3 0 -13 5 -21 10 -13 8 -13 10 1 10 9 0 19 7 23 15 7 18 -5 20 -22 3 -9 -9 -12 -9 -12 3 0 26 15 35 37 21z m913 -76 c18 -32 27 -56 21 -52 -6 4 -25 35 -42 69 -38 76 -23 64 21 -17z m-27 -45 c11 -19 15 -31 9 -27 -14 9 -72 106 -72 121 0 6 10 -6 21 -25 12 -19 30 -50 42 -69z m-49 -8 c28 -56 17 -50 -19 10 -19 32 -35 61 -35 64 0 10 36 -40 54 -74z m-66 26 c19 -30 8 -34 -12 -4 -9 14 -13 25 -9 25 5 0 14 -9 21 -21z m-1092 -23 c11 -8 15 -18 10 -23 -5 -4 -11 -2 -13 5 -3 6 -9 12 -15 12 -7 0 -7 -4 -1 -12 6 -8 7 -37 3 -68 l-6 -55 -18 39 c-10 21 -18 51 -18 67 -1 16 -5 26 -10 23 -10 -6 -11 10 -1 19 11 12 48 8 69 -7z m1072 -38 c17 -27 28 -48 24 -48 -9 0 -48 58 -58 85 -9 26 -4 20 34 -37z m62 -22 c0 -6 -7 -2 -15 8 -8 11 -15 25 -15 30 0 6 7 2 15 -8 8 -11 15 -25 15 -30z"/> <path d="M784 1133 c3 -4 1 -12 -5 -20 -9 -10 -8 -13 4 -13 9 0 19 5 22 10 4 6 11 7 17 4 6 -4 8 -2 5 3 -4 6 -16 13 -28 16 -11 3 -18 3 -15 0z"/> <path d="M1216 794 c-9 -22 3 -32 14 -14 12 19 12 30 1 30 -5 0 -12 -7 -15 -16z"/> <path d="M1550 694 c30 -14 67 -28 83 -31 15 -3 27 -9 27 -13 0 -4 11 -7 25 -7 35 0 22 13 -21 22 -20 3 -61 17 -92 31 -30 13 -60 24 -66 23 -6 0 14 -11 44 -25z"/> <path d="M1459 567 c-28 -21 -41 -55 -29 -77 13 -24 25 -25 64 -5 46 24 67 -8 24 -38 -28 -18 -18 -33 12 -17 39 21 50 90 16 103 -8 3 -30 -3 -50 -14 -33 -18 -37 -18 -43 -3 -4 11 2 23 17 34 12 9 19 20 14 23 -5 3 -16 0 -25 -6z"/> <path d="M1343 458 c-48 -33 -54 -43 -19 -34 20 5 28 -1 52 -39 26 -43 42 -53 57 -38 4 3 -9 28 -29 55 -32 46 -34 51 -18 62 9 7 13 15 8 18 -5 3 -28 -7 -51 -24z"/> <path d="M1137 308 l6 -53 -55 48 c-75 63 -93 58 -83 -27 7 -64 16 -83 35 -71 7 4 9 22 4 51 -3 24 -3 44 1 44 4 0 29 -19 57 -41 37 -32 53 -40 66 -33 15 8 17 17 9 72 -7 51 -12 62 -27 62 -17 0 -18 -6 -13 -52z"/> </g> </svg>