<?xml version="1.0" standalone="no"?>
<!DOCTYPE svg PUBLIC "-//W3C//DTD SVG 20010904//EN"
 "http://www.w3.org/TR/2001/REC-SVG-20010904/DTD/svg10.dtd">
<svg version="1.0" xmlns="http://www.w3.org/2000/svg"
 width="900.000000pt" height="900.000000pt" viewBox="0 0 900.000000 900.000000"
 preserveAspectRatio="xMidYMid meet">
<metadata>
Created by potrace 1.10, written by Peter Selinger 2001-2011
</metadata>
<g transform="translate(0.000000,900.000000) scale(0.100000,-0.100000)"
fill="#606060" stroke="none">
<path d="M4416 6333 c-16 -9 -46 -15 -67 -15 -21 0 -43 -6 -50 -14 -6 -8 -23
-14 -38 -14 -14 0 -35 -7 -45 -15 -11 -8 -25 -15 -32 -15 -7 0 -26 -12 -41
-26 -15 -14 -43 -32 -62 -40 -19 -8 -50 -30 -68 -49 -19 -19 -40 -35 -48 -35
-7 0 -15 -3 -17 -8 -4 -8 -114 -95 -173 -135 -130 -89 -137 -98 -104 -133 12
-13 30 -26 40 -29 24 -8 56 10 64 35 3 11 15 20 25 20 11 0 32 12 48 28 15 15
48 41 72 57 24 17 66 51 94 76 28 25 62 50 76 54 14 4 39 19 56 34 60 49 78
61 96 61 10 0 29 6 41 14 12 8 40 17 62 21 22 4 45 11 52 17 6 5 78 9 158 9
125 0 150 -2 166 -17 11 -9 34 -18 53 -18 18 -1 40 -7 47 -13 8 -6 23 -13 34
-15 11 -2 21 -12 24 -23 2 -11 13 -33 26 -50 12 -16 25 -43 29 -59 4 -16 16
-41 27 -54 41 -52 20 -65 -78 -50 -37 6 -122 8 -188 6 -117 -5 -122 -6 -180
-41 -82 -50 -205 -170 -205 -201 0 -8 -6 -21 -13 -28 -20 -21 -40 -98 -42
-161 -1 -33 -6 -62 -11 -65 -21 -15 -4 -99 22 -115 10 -6 11 -13 2 -33 -9 -20
-18 -24 -42 -22 -23 2 -31 8 -31 23 0 15 6 19 23 17 12 -2 22 0 22 5 0 15 -40
33 -85 40 -35 4 -45 3 -45 -9 0 -8 12 -19 28 -24 l27 -11 -27 -13 c-29 -14
-28 -30 1 -30 10 0 24 -7 31 -15 15 -18 71 -20 88 -3 9 9 15 3 27 -25 8 -20
15 -44 15 -54 0 -10 7 -31 15 -47 8 -15 15 -41 15 -57 0 -15 4 -30 9 -33 4 -3
21 -32 37 -63 16 -32 32 -61 37 -64 4 -3 16 -22 27 -42 11 -19 52 -68 92 -107
40 -39 88 -85 106 -103 22 -22 32 -40 32 -62 -1 -50 -61 -105 -116 -105 -18 0
-34 -5 -36 -11 -2 -6 -39 -13 -86 -16 -65 -4 -87 -2 -107 11 -13 9 -38 16 -56
16 -45 0 -134 83 -174 163 -26 51 -55 62 -55 20 0 -35 20 -66 90 -142 57 -61
148 -101 233 -101 59 0 90 -13 60 -24 -10 -4 -57 -10 -104 -13 -78 -5 -91 -3
-141 20 -64 30 -168 126 -168 156 0 43 -36 37 -63 -11 -17 -30 -17 -31 8 -70
39 -59 95 -118 113 -118 8 0 23 -6 31 -13 31 -26 98 -40 170 -35 39 3 71 3 71
-1 0 -3 -12 -14 -26 -25 -18 -13 -52 -21 -113 -26 -126 -10 -172 8 -263 104
-54 55 -88 70 -60 26 7 -11 12 -32 12 -48 0 -39 41 -94 86 -116 22 -10 46 -22
55 -27 27 -13 122 -13 148 0 42 23 45 -4 4 -32 -43 -30 -140 -46 -176 -30 -31
14 -91 33 -105 33 -7 0 -12 -10 -12 -23 0 -18 10 -27 43 -40 23 -10 59 -27 79
-37 20 -11 44 -20 53 -20 24 0 95 -48 95 -65 0 -8 -3 -15 -7 -16 -5 0 -17 -3
-28 -6 -51 -13 -85 -15 -85 -4 0 6 -10 11 -23 11 -13 0 -32 7 -43 15 -10 8
-26 15 -35 15 -9 0 -22 7 -29 15 -7 8 -21 15 -31 15 -11 0 -19 -7 -19 -15 0
-9 9 -15 25 -15 27 0 34 -17 10 -26 -9 -4 -27 5 -43 21 -18 19 -23 29 -14 32
25 9 12 30 -19 30 -18 0 -37 7 -44 16 -15 21 -33 22 -56 1 -10 -9 -23 -13 -28
-9 -16 9 -13 25 4 25 8 0 15 5 15 10 0 14 -26 13 -51 -2 -17 -11 -22 -10 -39
12 -21 27 -18 59 6 73 10 5 12 17 7 35 -6 24 -5 26 10 14 9 -8 31 -12 49 -11
26 2 41 -5 73 -35 50 -46 81 -45 108 2 20 33 20 34 -2 62 -14 20 -21 44 -21
73 0 27 -6 49 -15 57 -23 19 -18 42 15 77 17 18 30 43 30 58 0 14 7 28 15 31
8 4 15 14 15 23 0 10 20 35 45 55 25 21 45 43 45 50 0 6 23 29 50 51 34 27 50
47 50 62 0 13 -5 23 -10 23 -6 0 -27 18 -47 41 -21 23 -46 45 -58 50 -11 6
-38 21 -60 34 -30 19 -54 25 -97 25 -49 0 -58 3 -58 18 0 10 9 25 20 35 11 9
20 26 20 37 0 11 14 42 30 68 17 27 30 53 30 59 0 5 14 22 30 38 17 17 30 39
30 53 0 24 -1 25 -67 19 -36 -3 -111 -1 -166 4 -55 5 -105 5 -111 2 -6 -4 -25
-6 -42 -4 -35 3 -55 -14 -27 -23 10 -3 91 -4 181 -2 90 1 165 -1 169 -6 3 -5
-4 -19 -14 -31 -11 -12 -30 -43 -42 -69 -13 -27 -27 -50 -32 -54 -5 -3 -9 -18
-9 -33 0 -16 -7 -34 -15 -41 -9 -7 -15 -29 -15 -51 0 -31 -5 -41 -30 -55 -16
-10 -38 -38 -50 -63 -11 -25 -38 -79 -60 -120 -21 -41 -46 -94 -55 -117 -9
-23 -23 -45 -30 -48 -8 -3 -15 -12 -15 -21 0 -9 -29 -47 -65 -85 -36 -38 -65
-75 -65 -81 0 -6 -8 -18 -17 -25 -19 -13 -20 -19 -29 -119 -5 -52 -2 -68 21
-114 17 -32 39 -60 57 -70 17 -9 44 -27 60 -40 25 -21 39 -23 110 -23 97 2
115 6 151 40 34 32 55 20 36 -21 -10 -23 -9 -30 5 -46 18 -20 100 -51 136 -51
15 0 20 -5 18 -17 -2 -13 -18 -20 -61 -26 -50 -7 -64 -5 -102 14 -25 13 -45
26 -45 30 0 12 -66 49 -87 49 -11 0 -29 -10 -41 -23 -19 -20 -22 -35 -22 -105
0 -44 -4 -83 -9 -87 -16 -9 -20 8 -22 81 -2 101 -7 124 -30 124 -17 0 -19 -7
-18 -67 0 -79 19 -177 37 -195 6 -6 12 -19 12 -28 0 -9 13 -29 30 -45 17 -16
30 -37 30 -47 0 -44 141 -208 179 -208 16 0 14 45 -3 59 -18 15 -46 101 -46
143 0 25 9 42 40 72 22 21 40 44 40 52 0 7 22 34 50 61 27 26 50 53 50 59 0 6
30 38 66 70 57 50 67 55 76 41 5 -9 17 -17 27 -17 10 0 24 -7 31 -15 7 -8 20
-15 30 -15 10 0 23 -7 30 -15 7 -8 20 -15 30 -15 10 0 23 -7 30 -15 7 -8 27
-15 46 -15 18 0 35 -4 38 -9 4 -5 27 -19 54 -31 26 -11 64 -30 84 -40 20 -11
43 -17 51 -14 8 3 18 1 21 -4 3 -6 27 -20 54 -32 26 -12 54 -26 62 -31 8 -5
22 -12 30 -15 8 -3 28 -12 43 -20 16 -7 39 -14 52 -14 12 0 28 -7 35 -15 7 -8
21 -15 31 -15 11 0 45 -13 76 -30 31 -16 64 -30 74 -30 9 0 32 -7 51 -16 76
-38 90 -44 106 -44 9 0 26 -7 36 -15 11 -8 29 -15 40 -15 12 0 34 -7 50 -15
52 -28 110 -19 199 29 92 49 122 65 187 95 25 12 68 34 95 50 28 16 66 35 84
42 19 6 64 31 99 55 35 24 70 44 79 44 9 0 41 17 72 38 31 21 81 51 111 66 84
42 97 50 140 90 36 33 40 41 40 87 0 34 -5 51 -14 55 -8 3 -24 24 -36 45 -11
22 -31 52 -45 67 -14 15 -25 30 -25 33 0 13 -50 59 -63 59 -32 0 -87 -39 -189
-134 -68 -62 -164 -136 -177 -136 -6 0 -15 -8 -20 -18 -5 -10 -34 -31 -65 -47
-30 -16 -64 -41 -76 -57 -11 -15 -26 -28 -33 -28 -7 0 -42 -20 -77 -45 -35
-25 -69 -45 -76 -45 -6 0 -14 -7 -18 -15 -3 -8 -15 -15 -27 -15 -11 0 -41 -13
-66 -30 -24 -16 -49 -30 -56 -30 -21 0 -71 -46 -63 -58 10 -17 66 -15 72 3 4
8 15 15 25 15 11 0 22 7 25 15 4 8 12 15 19 15 6 0 20 9 30 20 31 35 57 25 98
-36 50 -74 48 -105 -8 -118 -22 -5 -58 -21 -80 -35 -35 -23 -50 -26 -121 -25
-58 0 -87 5 -104 17 -14 9 -35 17 -48 17 -13 0 -30 7 -38 15 -9 8 -26 15 -39
15 -12 0 -36 7 -51 15 -16 8 -37 15 -46 15 -10 0 -18 4 -18 9 0 5 -13 12 -29
16 -16 3 -35 13 -42 21 -6 8 -20 14 -31 14 -24 0 -68 29 -68 44 0 13 43 48 72
58 11 5 18 0 21 -13 3 -10 12 -19 20 -19 8 0 28 -7 43 -15 16 -8 36 -15 45
-15 9 0 19 -7 23 -15 3 -9 18 -15 40 -15 21 0 36 -6 40 -15 6 -16 61 -21 70
-6 10 16 -5 41 -24 41 -11 0 -22 4 -25 10 -3 5 -14 10 -23 10 -9 0 -43 13 -76
29 -32 17 -76 33 -97 36 -22 4 -41 11 -45 16 -3 5 -18 9 -33 9 -16 0 -34 7
-41 15 -7 8 -19 15 -28 15 -8 0 -23 6 -31 13 -23 20 -97 41 -116 33 -10 -3
-26 4 -43 19 -15 14 -34 25 -42 25 -8 0 -24 7 -34 15 -11 8 -28 15 -37 15 -10
0 -22 6 -26 14 -11 20 -47 24 -66 7 -15 -11 -18 -10 -25 8 -8 22 -74 61 -103
61 -9 0 -22 7 -29 15 -7 8 -25 15 -41 15 -16 0 -29 5 -29 10 0 18 30 70 40 70
6 0 10 6 10 13 0 14 43 57 57 57 11 0 97 79 104 95 2 6 23 22 47 38 23 15 42
31 42 36 0 5 11 12 24 15 14 3 28 15 31 26 4 11 18 22 33 25 15 3 41 10 57 16
17 6 41 13 55 16 14 2 34 8 45 13 11 5 38 11 61 14 22 3 66 19 97 36 31 16 66
30 78 30 28 0 86 -62 147 -158 94 -149 112 -153 201 -55 34 37 61 72 61 79 0
6 12 29 28 50 15 22 36 56 46 77 12 23 26 37 35 35 23 -5 25 -43 5 -81 -17
-33 -35 -112 -36 -157 0 -14 4 -52 9 -85 l8 -60 52 -3 c46 -3 52 -6 61 -30 8
-23 21 -30 90 -50 84 -24 107 -23 165 7 124 64 174 193 112 290 -13 22 -27 51
-31 65 -3 14 -32 53 -65 87 -32 34 -59 70 -59 80 0 10 -5 21 -11 24 -5 4 -15
17 -20 28 -5 12 -20 40 -34 62 -13 22 -24 50 -25 61 0 12 -7 27 -15 34 -8 7
-15 19 -15 26 0 7 -11 21 -24 29 -30 20 -37 45 -20 76 19 34 17 114 -3 147 -9
15 -30 42 -47 60 -26 28 -29 35 -18 52 6 11 12 26 12 34 0 8 5 27 12 41 10 23
13 24 32 11 39 -25 83 -29 115 -10 29 17 31 17 51 -1 19 -17 41 -19 198 -23
191 -3 224 3 230 46 3 17 -2 22 -20 22 -13 0 -29 -5 -35 -11 -19 -19 -311 -22
-391 -3 -83 19 -153 43 -171 60 -13 12 -12 16 2 32 21 22 22 42 3 42 -15 0
-30 79 -20 105 7 16 -45 104 -86 146 -14 14 -35 38 -47 53 -26 32 -77 50 -103
36 -10 -5 -20 -6 -24 -3 -11 11 -7 58 7 71 6 7 13 33 13 58 1 26 8 52 18 63 9
10 16 35 16 58 0 26 5 43 14 46 8 3 16 16 18 29 2 18 10 24 37 26 19 2 44 10
56 18 26 17 179 14 197 -4 7 -7 32 -12 56 -12 24 0 56 -6 70 -13 15 -8 45 -22
67 -33 22 -10 52 -27 66 -37 36 -26 79 -19 99 15 14 26 14 29 -9 44 -13 10
-31 25 -40 36 -8 10 -22 18 -30 18 -18 0 -99 39 -107 51 -3 5 -15 9 -27 9 -13
0 -32 7 -43 15 -23 16 -28 16 -225 15 -133 0 -137 -1 -195 -31 -32 -17 -67
-39 -76 -49 -21 -22 -57 -118 -68 -182 -5 -27 -12 -54 -17 -60 -4 -7 -10 -31
-13 -53 -5 -38 -7 -40 -38 -38 -29 1 -33 -2 -30 -20 2 -16 10 -22 28 -22 21 0
26 -6 31 -38 3 -20 8 -38 10 -40 2 -1 19 -12 37 -25 l32 -23 10 26 c12 32 54
48 100 39 34 -6 34 -7 12 -17 -21 -10 -23 -16 -19 -56 8 -72 34 -196 46 -219
6 -11 11 -35 11 -52 0 -17 4 -40 10 -50 9 -16 17 -111 23 -259 1 -36 7 -56 16
-59 11 -4 13 7 8 56 -7 82 8 95 54 44 l34 -37 0 -105 c0 -100 -10 -155 -41
-225 -40 -93 -57 -125 -65 -131 -5 -3 -9 -14 -9 -25 0 -10 -8 -27 -17 -37 -10
-10 -25 -29 -33 -42 -8 -12 -19 -28 -25 -34 -18 -21 -55 -75 -55 -81 0 -7 -8
-17 -57 -73 -25 -27 -44 -41 -53 -37 -14 5 -68 73 -80 100 -11 23 -74 105 -81
105 -4 0 -11 10 -15 22 -3 12 -31 54 -60 94 -30 40 -54 77 -54 81 0 4 -18 28
-41 53 -22 25 -46 56 -54 70 -16 30 -158 170 -172 170 -6 0 -26 13 -44 30 -40
35 -53 37 -72 9 -13 -18 -12 -25 14 -72 16 -29 29 -58 29 -65 0 -46 230 -240
272 -229 20 6 122 -98 113 -114 -8 -12 -42 -12 -50 1 -3 6 -18 10 -33 10 -98
1 -322 191 -407 345 -71 127 -78 147 -79 216 -1 59 2 69 24 87 31 26 125 30
156 7 24 -18 67 -20 62 -2 -3 6 -13 14 -24 16 -10 1 -27 10 -38 20 -11 9 -35
16 -62 16 -43 0 -44 1 -64 47 -11 26 -20 55 -20 65 0 11 -5 24 -11 30 -6 6
-13 54 -15 107 -3 79 -1 98 11 102 8 4 15 18 15 33 0 15 8 38 18 51 34 48 112
120 129 120 10 0 31 7 47 15 42 22 224 22 266 0 17 -9 39 -14 48 -11 13 4 41
-18 100 -78 45 -46 82 -91 82 -100 0 -9 4 -16 8 -16 13 0 68 -83 76 -113 4
-18 13 -27 27 -27 23 0 26 7 32 73 4 39 1 49 -14 58 -13 7 -26 6 -40 -1 -17
-10 -21 -8 -26 9 -3 12 -9 21 -13 21 -4 0 -15 12 -25 26 -12 19 -14 29 -6 37
6 6 11 19 11 28 0 21 -22 38 -28 21 -5 -17 -29 -15 -36 4 -3 9 -6 29 -6 46 0
18 -8 36 -21 47 -18 15 -20 21 -10 39 15 29 29 28 41 -4 6 -14 14 -22 20 -19
15 9 12 43 -6 100 -23 70 -22 66 -49 110 -13 22 -24 47 -25 56 0 24 -66 79
-94 79 -13 0 -29 7 -36 15 -17 20 -77 19 -88 -1 -8 -15 -11 -13 -23 12 -16 32
-18 32 -166 37 -49 1 -87 7 -94 15 -17 16 -46 14 -83 -5z m544 -158 c0 -8 -4
-15 -10 -15 -5 0 -10 7 -10 15 0 8 5 15 10 15 6 0 10 -7 10 -15z m361 -42
c-13 -23 -24 2 -16 35 l7 27 9 -23 c5 -14 5 -30 0 -39z m-21 -33 c0 -6 -7 -13
-16 -17 -8 -3 -13 -12 -9 -20 6 -18 -15 -93 -26 -93 -17 0 -3 95 16 118 21 24
35 29 35 12z m-277 -53 c13 -39 -8 -62 -22 -25 -5 15 -15 29 -21 33 -15 9 -2
27 18 23 8 -2 20 -16 25 -31z m220 -185 c-6 -75 -9 -83 -29 -75 -14 5 -15 16
-9 72 8 77 12 86 30 71 10 -8 12 -28 8 -68z m191 -215 c25 -123 27 -197 5
-197 -11 0 -11 1 -33 96 -17 75 -21 136 -9 147 11 12 31 -12 37 -46z m-1094
-139 c0 -48 4 -89 9 -92 4 -3 11 -20 15 -38 3 -17 13 -40 22 -49 15 -17 13
-21 -19 -54 -20 -20 -40 -35 -44 -32 -17 11 -22 264 -8 346 11 59 25 14 25
-81z m380 -625 c52 -58 104 -114 114 -125 13 -12 17 -21 10 -28 -10 -10 -38 7
-97 60 -16 14 -38 27 -50 30 -12 3 -24 16 -27 28 -3 13 -16 28 -29 35 -35 17
-55 107 -24 107 5 0 51 -48 103 -107z m-920 13 c0 -8 -7 -16 -15 -20 -8 -3
-15 -14 -15 -25 0 -21 -66 -158 -81 -167 -5 -3 -9 -14 -9 -25 0 -38 -29 -79
-55 -79 -14 0 -25 5 -25 11 0 13 57 130 71 144 5 5 9 18 9 28 0 10 8 31 18 45
10 15 26 44 36 65 13 28 23 37 41 37 15 0 25 -6 25 -14z m167 -51 c3 -9 -9
-31 -26 -50 -17 -20 -38 -50 -46 -68 -19 -39 -33 -63 -62 -103 -12 -17 -27
-44 -33 -59 -10 -25 -14 -27 -51 -22 -62 8 -63 2 4 118 18 31 40 70 50 87 9
17 36 56 58 86 l41 55 30 -15 c16 -8 32 -22 35 -29z m1623 -22 c-1 -24 -2 -26
-11 -10 -5 9 -7 22 -4 27 10 17 15 11 15 -17z m-1552 -45 c-6 -18 -28 -21 -28
-4 0 9 7 16 16 16 9 0 14 -5 12 -12z m1586 -13 c4 -14 11 -25 16 -25 6 0 10
-8 10 -18 0 -10 7 -28 16 -40 16 -24 10 -30 -10 -9 -15 15 -56 94 -56 107 0
20 18 9 24 -15z m-66 -39 c27 -40 26 -79 -2 -84 -35 -7 -59 54 -40 102 9 23
16 20 42 -18z m-1618 -71 c0 -8 -4 -15 -10 -15 -5 0 -10 7 -10 15 0 8 5 15 10
15 6 0 10 -7 10 -15z m1739 -51 c30 -6 31 -8 15 -25 -13 -15 -20 -16 -31 -7
-24 20 -36 -6 -12 -28 20 -18 21 -18 34 -1 13 17 14 17 32 -1 10 -11 33 -23
51 -27 54 -11 36 -22 -50 -28 -81 -7 -83 -6 -113 22 -16 16 -40 34 -52 40 -27
14 -29 24 -7 45 16 17 77 21 133 10z m-2015 -101 c106 -34 128 -55 85 -82 -13
-9 -38 -29 -56 -44 -30 -26 -36 -28 -64 -18 -18 6 -45 11 -60 11 -15 0 -30 4
-33 9 -4 5 -24 12 -46 16 -22 4 -42 11 -45 15 -10 16 37 32 73 26 59 -9 89 36
32 48 -33 6 -40 22 -12 29 36 10 76 6 126 -10z m1906 -54 c0 -22 -46 -52 -70
-44 -25 8 -32 32 -20 71 l11 32 40 -21 c22 -11 39 -28 39 -38z m211 -41 c5
-13 16 -34 23 -46 8 -13 11 -32 9 -43 -9 -34 -63 -17 -63 21 0 8 -14 28 -30
44 -35 34 -31 46 16 46 26 0 37 -5 45 -22z m63 -7 c21 -23 26 -82 9 -88 -9 -3
-13 6 -13 26 0 21 -5 31 -15 31 -9 0 -15 9 -15 25 0 30 11 32 34 6z m-207 -43
c28 -20 33 -29 33 -65 0 -37 -3 -43 -26 -49 -14 -4 -40 -2 -57 3 -29 8 -33 14
-41 62 -7 42 -6 55 5 62 23 15 51 10 86 -13z m-1810 -25 c14 -36 14 -38 -7
-55 -28 -23 -59 -23 -90 2 l-25 19 34 35 c45 47 68 46 88 -1z m-357 -22 c0
-17 -4 -33 -10 -36 -5 -3 -10 -21 -10 -39 0 -19 -6 -39 -14 -45 -22 -18 -54
32 -36 54 8 9 10 29 7 49 -4 26 -2 34 8 30 7 -3 16 -1 20 5 13 23 35 11 35
-18z m108 3 c24 -7 29 -28 10 -41 -7 -4 -25 -31 -39 -58 -31 -60 -63 -72 -79
-30 -7 20 -6 34 4 53 7 15 19 39 25 55 11 28 31 33 79 21z m2142 -76 c0 -16
-31 -48 -47 -48 -18 0 -17 19 2 26 8 4 15 12 15 20 0 8 7 14 15 14 8 0 15 -5
15 -12z m80 -21 c0 -17 -38 -52 -47 -44 -10 11 15 57 32 57 8 0 15 -6 15 -13z
m420 -59 c0 -5 7 -8 15 -8 8 0 15 -4 15 -9 0 -6 14 -30 30 -54 37 -55 37 -67
3 -102 -34 -32 -120 -95 -132 -95 -4 0 -26 34 -47 75 -54 103 -58 111 -73 128
-16 20 -5 57 17 57 10 0 32 13 50 29 43 40 72 43 99 11 12 -14 22 -28 23 -32z
m-2630 -59 c13 -24 8 -34 -15 -26 -16 7 -21 47 -5 47 5 0 14 -9 20 -21z m-56
-21 c9 -17 16 -33 16 -35 0 -10 -22 0 -47 22 -24 21 -26 26 -13 35 23 15 27
13 44 -22z m2444 -39 c9 -17 36 -60 60 -95 40 -62 51 -97 33 -108 -17 -11
-111 126 -111 163 0 10 -7 24 -15 31 -20 16 -19 40 0 40 9 0 24 -14 33 -31z
m-78 -40 c0 -6 14 -28 30 -49 30 -38 69 -115 70 -136 0 -26 -31 -23 -43 4 -6
15 -14 29 -18 32 -3 3 -16 26 -29 53 -13 26 -27 47 -31 47 -8 0 -18 48 -11 55
10 9 32 5 32 -6z m-1643 -35 c2 -5 -3 -19 -11 -29 -14 -19 -15 -19 -21 -2 -4
9 -4 24 -1 33 6 16 27 15 33 -2z m-77 -29 c0 -8 -4 -15 -10 -15 -5 0 -10 7
-10 15 0 8 5 15 10 15 6 0 10 -7 10 -15z m1695 -60 c22 -41 43 -75 47 -75 11
0 10 -48 -1 -54 -12 -8 -52 47 -89 125 -37 77 -38 79 -14 79 13 0 31 -24 57
-75z m-103 -2 c38 -53 88 -136 88 -146 0 -12 -37 -7 -48 6 -14 16 -92 169 -92
179 0 20 21 4 52 -39z m-1492 5 c0 -5 -9 -8 -20 -8 -18 0 -19 3 -9 21 9 17 13
19 20 8 5 -8 9 -17 9 -21z m-621 3 c16 -29 74 -51 135 -51 31 0 56 -4 56 -9 0
-14 -68 -51 -94 -51 -13 0 -29 7 -36 15 -7 8 -21 15 -31 15 -30 0 -99 48 -99
68 0 10 3 22 7 25 13 14 53 6 62 -12z m702 -34 c-1 -12 -15 -9 -19 4 -3 6 1
10 8 8 6 -3 11 -8 11 -12z m185 -23 c-5 -13 -10 -14 -18 -6 -6 6 -8 18 -4 28
5 13 10 14 18 6 6 -6 8 -18 4 -28z m1154 16 c28 -28 80 -126 80 -150 0 -11 -7
-20 -15 -20 -8 0 -15 6 -15 14 0 8 -6 21 -14 29 -16 15 -76 125 -76 138 0 15
19 10 40 -11z m-1272 -23 c2 -10 -3 -17 -12 -17 -18 0 -29 16 -21 31 9 14 29
6 33 -14z m1210 -27 c12 -16 22 -36 22 -44 0 -8 6 -19 13 -23 35 -22 56 -93
27 -93 -13 0 -50 51 -50 67 0 8 -11 29 -25 47 -24 32 -34 76 -17 76 5 0 18
-13 30 -30z m-1123 -1 c4 -6 5 -12 2 -15 -7 -7 -37 7 -37 17 0 13 27 11 35 -2z
m193 -5 c2 -1 -4 -16 -14 -33 -15 -25 -15 -32 -5 -45 17 -21 6 -20 -39 1 l-36
18 25 37 c19 30 29 37 45 32 12 -4 23 -8 24 -10z m-1002 -29 c4 -8 12 -15 20
-15 8 0 14 -7 14 -15 0 -19 -26 -20 -34 0 -3 8 -12 12 -21 9 -8 -3 -12 -11 -8
-17 9 -15 4 -170 -6 -180 -12 -12 -53 106 -55 153 0 22 -6 42 -13 45 -7 2 -13
11 -13 20 0 21 108 22 116 0z m877 0 c-4 -15 -36 -12 -41 3 -3 9 3 13 19 10
13 -1 23 -7 22 -13z m987 -13 c0 -5 9 -19 20 -32 11 -13 20 -29 20 -35 0 -7 7
-18 15 -25 19 -16 20 -50 1 -50 -15 0 -79 90 -90 128 -6 18 -4 22 13 22 12 0
21 -4 21 -8z m-805 -13 c10 -15 -1 -23 -20 -15 -9 3 -13 10 -10 16 8 13 22 13
30 -1z"/>
<path d="M3621 4438 c-11 -30 1 -34 34 -12 20 13 23 19 13 25 -22 15 -38 10
-47 -13z"/>
<path d="M4592 5785 c-39 -28 -72 -68 -72 -87 0 -8 -7 -23 -15 -34 -23 -31
-20 -167 6 -221 11 -23 25 -45 30 -49 5 -3 9 -15 9 -26 0 -12 19 -40 45 -65
25 -23 45 -52 45 -63 0 -12 25 -45 58 -78 57 -57 152 -177 152 -193 0 -5 9 -9
20 -9 14 0 20 -7 21 -22 0 -13 3 -18 5 -11 14 32 -19 93 -92 171 -42 45 -82
82 -90 82 -8 0 -14 6 -14 14 0 8 -9 18 -21 21 -13 5 -17 11 -12 16 6 6 23 4
44 -7 104 -51 110 -53 156 -30 15 8 45 22 66 33 25 12 44 31 57 58 30 60 45
75 73 75 42 0 39 14 -10 50 -51 38 -49 36 -92 130 -16 36 -41 82 -55 103 -14
21 -26 44 -26 51 0 16 -30 43 -93 84 -62 41 -143 44 -195 7z m198 -86 c68 -53
102 -125 98 -201 -3 -45 -6 -53 -23 -53 -14 0 -21 8 -23 25 -2 14 -7 30 -12
35 -4 6 -10 22 -14 37 -8 35 -60 112 -91 137 -30 23 -34 61 -6 61 11 0 43 -18
71 -41z m-115 -77 c-4 -22 3 -46 30 -98 52 -99 80 -126 129 -122 59 4 60 -15
4 -81 l-27 -31 -48 26 c-26 15 -56 32 -66 38 -13 8 -20 8 -27 -4 -5 -8 -12
-11 -16 -7 -4 4 2 21 14 37 27 36 27 40 2 40 -12 0 -24 10 -30 24 -5 13 -14
27 -19 31 -14 8 -14 49 -1 89 5 17 12 43 15 59 4 19 12 27 26 27 17 0 20 -4
14 -28z"/>
<path d="M3110 5684 c-36 -7 -110 -43 -110 -53 0 -25 33 -34 100 -27 70 6 70
6 70 -19 0 -23 -4 -25 -45 -25 -25 0 -45 -4 -45 -10 0 -16 66 -12 105 7 19 9
35 23 35 30 0 9 15 13 51 13 89 0 117 33 53 64 -37 17 -166 29 -214 20z"/>
<path d="M2892 5662 c-13 -2 -26 -10 -29 -17 -4 -11 -9 -12 -24 -2 -14 9 -21
9 -31 -1 -6 -6 -25 -12 -40 -12 -15 0 -28 -4 -28 -10 0 -5 -9 -10 -21 -10 -24
0 -124 -44 -134 -60 -3 -5 -11 -7 -17 -4 -5 4 -23 -3 -39 -15 -15 -11 -30 -21
-33 -21 -3 0 -21 -15 -40 -32 -20 -18 -49 -44 -65 -58 -59 -49 -59 -118 -1
-146 77 -38 93 -40 302 -38 113 1 211 5 216 8 6 4 13 2 17 -4 9 -14 35 -12 35
3 0 18 40 51 69 57 13 3 26 11 29 18 7 21 -52 14 -102 -13 -42 -22 -59 -25
-161 -25 l-114 0 6 35 c7 41 -12 48 -42 15 -14 -15 -15 -23 -6 -34 9 -11 7
-15 -9 -19 -28 -7 -129 2 -160 15 -49 20 -54 25 -54 50 0 38 77 96 143 107 35
6 56 31 26 31 -9 0 -15 5 -13 12 6 18 28 22 28 4 0 -12 11 -15 50 -13 56 2 72
20 23 25 -38 4 -39 6 -15 30 14 14 22 16 35 8 12 -8 20 -7 29 5 17 21 74 32
98 19 10 -6 20 -20 22 -32 4 -32 52 -37 68 -8 10 18 7 22 -25 36 -51 21 -40
40 21 36 40 -2 54 1 69 18 10 11 16 23 12 26 -9 10 -70 20 -95 16z"/>
<path d="M3465 5663 c-33 -7 -71 -40 -60 -52 19 -19 71 -24 86 -8 8 8 25 18
38 22 21 6 23 5 16 -24 -6 -27 -4 -31 14 -31 12 0 30 5 41 12 16 10 23 9 40
-7 21 -19 23 -19 35 -2 17 24 38 22 30 -3 -9 -28 21 -37 57 -17 27 15 29 15
41 -3 6 -11 22 -20 34 -20 12 0 25 -4 28 -10 3 -5 15 -10 26 -10 11 0 22 -7
25 -15 8 -20 30 -19 38 1 5 13 12 10 41 -17 41 -39 45 -59 10 -59 -18 0 -25 5
-25 18 0 27 -8 31 -35 18 -40 -19 -39 -45 3 -63 32 -13 34 -16 18 -25 -12 -7
-53 -8 -110 -4 -52 4 -103 3 -116 -3 l-25 -9 29 -11 c15 -6 67 -13 115 -16 47
-2 117 -9 154 -16 51 -8 71 -9 80 0 8 8 4 11 -14 11 -14 0 -33 6 -44 13 -16
13 -17 17 -4 45 7 17 22 33 34 36 25 7 45 -11 22 -20 -21 -8 -22 -24 -2 -24 8
0 15 4 15 9 0 14 57 33 79 26 33 -10 45 4 22 26 -12 11 -21 24 -21 28 0 5 -12
12 -27 16 -16 3 -35 12 -43 19 -8 7 -47 25 -87 40 -61 23 -74 25 -92 14 -18
-11 -23 -10 -36 10 -9 12 -24 22 -34 22 -9 0 -22 5 -27 10 -6 6 -34 12 -62 13
-30 1 -54 7 -57 15 -2 7 -22 12 -44 12 -22 0 -43 5 -46 11 -4 6 -21 9 -39 8
-17 -2 -41 3 -53 9 -22 12 -31 13 -68 5z m610 -193 c3 -5 -3 -10 -15 -10 -12
0 -18 5 -15 10 3 6 10 10 15 10 5 0 12 -4 15 -10z"/>
<path d="M3220 5555 c0 -9 9 -15 25 -15 16 0 25 6 25 15 0 9 -9 15 -25 15 -16
0 -25 -6 -25 -15z"/>
<path d="M3324 5555 c-8 -21 4 -35 31 -35 23 0 40 24 29 41 -9 14 -54 10 -60
-6z"/>
<path d="M5955 5553 c-13 -12 -32 -15 -91 -11 -52 4 -79 1 -92 -8 -9 -7 -36
-14 -59 -14 -23 0 -45 -5 -49 -11 -3 -6 -17 -8 -31 -5 -33 9 -48 -2 -30 -22 8
-10 17 -26 18 -36 2 -10 16 -28 32 -40 24 -17 41 -20 123 -19 69 1 101 6 113
17 21 19 173 14 259 -9 65 -16 122 -11 122 12 0 25 -65 43 -158 43 -128 0
-154 6 -150 38 3 25 3 25 106 24 80 0 108 -4 121 -16 10 -9 21 -16 26 -16 5 0
17 -8 27 -17 23 -21 75 -19 100 4 14 13 21 14 30 5 18 -18 -2 -66 -30 -70 -25
-4 -57 -45 -48 -61 6 -9 47 -12 178 -14 46 -1 86 19 103 53 11 22 11 28 -4 45
-20 24 -96 61 -145 70 -20 4 -39 11 -42 16 -3 5 -20 9 -37 9 -18 0 -40 7 -50
14 -11 9 -33 12 -63 8 -25 -2 -55 0 -67 6 -12 6 -61 13 -109 16 -71 4 -90 2
-103 -11z m-121 -58 c40 -17 52 -55 16 -55 -11 0 -20 7 -20 15 0 8 -9 15 -20
15 -22 0 -26 -10 -9 -27 22 -22 -57 -28 -102 -8 -56 26 -53 50 6 42 38 -6 48
-3 62 13 21 24 21 24 67 5z m630 -79 c-4 -17 0 -25 13 -31 16 -7 15 -9 -7 -15
-46 -14 -100 -11 -100 5 0 8 9 15 20 15 12 0 25 10 32 25 15 34 51 35 42 1z
m57 -19 c-13 -13 -26 -3 -16 12 3 6 11 8 17 5 6 -4 6 -10 -1 -17z"/>
<path d="M2743 5543 c-19 -7 -15 -30 6 -36 10 -2 26 0 35 5 14 8 15 13 5 24
-12 14 -24 16 -46 7z"/>
<path d="M3415 5530 c-3 -6 0 -13 9 -16 23 -9 69 0 74 14 5 15 -74 17 -83 2z"/>
<path d="M3552 5505 c-20 -25 -22 -25 -163 -25 -79 0 -151 -4 -159 -10 -59
-37 265 -37 348 1 43 20 46 31 12 49 -15 8 -23 5 -38 -15z"/>
<path d="M3685 5500 c-9 -14 3 -30 23 -30 23 -1 -35 -44 -63 -48 -11 -1 -47
-6 -80 -10 l-60 -7 41 -8 c22 -3 53 -18 67 -31 17 -16 27 -20 27 -12 0 14 30
26 66 26 12 0 33 9 47 20 21 16 26 29 25 58 -1 20 -6 40 -12 44 -16 11 -74 10
-81 -2z"/>
<path d="M5225 5490 c-7 -22 2 -60 14 -60 7 0 21 47 21 71 0 18 -29 8 -35 -11z"/>
<path d="M2995 5471 c-3 -6 4 -15 15 -21 l21 -11 -23 -19 -23 -18 26 -10 c33
-13 119 -3 119 13 0 7 -8 16 -17 20 -16 6 -16 8 4 25 19 15 20 19 7 24 -25 10
-122 7 -129 -3z"/>
<path d="M3827 5474 c-16 -17 -5 -25 31 -22 20 2 37 8 37 13 0 12 -57 19 -68
9z"/>
<path d="M2798 5453 c-10 -2 -18 -11 -18 -19 0 -10 13 -14 49 -14 57 0 75 15
36 30 -27 10 -38 11 -67 3z"/>
<path d="M2695 5430 c-3 -5 -21 -10 -39 -10 -38 0 -50 -8 -35 -26 7 -9 28 -11
67 -7 64 6 75 12 66 36 -7 18 -49 23 -59 7z"/>
<path d="M3230 5424 c-44 -16 -44 -17 -15 -24 17 -4 50 -8 73 -9 27 -1 54 -9
69 -21 41 -32 124 -22 110 13 -9 23 -197 55 -237 41z"/>
<path d="M2571 5391 c-8 -5 -20 -7 -27 -4 -15 6 -75 -37 -68 -49 8 -12 42 -10
46 3 2 6 22 14 43 18 25 4 40 12 40 20 0 18 -16 23 -34 12z"/>
<path d="M2875 5387 c-23 -18 -7 -29 40 -29 47 0 63 11 40 29 -11 7 -28 13
-40 13 -12 0 -29 -6 -40 -13z"/>
<path d="M2780 5375 c0 -10 -10 -15 -29 -15 -35 0 -46 -13 -26 -30 12 -10 20
-9 41 5 14 9 34 15 45 12 21 -6 44 17 34 33 -10 16 -65 12 -65 -5z"/>
<path d="M5976 5381 c-8 -12 32 -24 63 -19 12 2 23 8 24 13 3 13 -79 19 -87 6z"/>
<path d="M3075 5350 c-11 -17 5 -51 23 -48 23 4 23 52 0 56 -9 2 -19 -2 -23
-8z"/>
<path d="M3200 5347 c0 -18 34 -28 72 -20 43 9 28 28 -25 31 -36 2 -47 0 -47
-11z"/>
<path d="M3256 5261 c-7 -12 33 -25 59 -19 9 1 17 8 18 13 3 13 -69 19 -77 6z"/>
<path d="M3390 5260 c0 -12 45 -24 65 -16 29 11 15 26 -25 26 -22 0 -40 -4
-40 -10z"/>
<path d="M2998 5239 c-10 -6 -18 -14 -18 -19 0 -14 157 -13 165 1 4 6 5 12 4
13 -11 9 -137 13 -151 5z"/>
<path d="M3630 5233 c-58 -2 -109 -8 -114 -13 -6 -6 -32 -10 -59 -10 -27 0
-66 -4 -86 -10 -20 -5 -71 -12 -114 -16 -84 -6 -103 -20 -73 -53 9 -10 16 -27
16 -38 0 -12 6 -23 14 -26 21 -8 28 -77 11 -104 -13 -20 -13 -22 8 -25 18 -2
23 -10 25 -40 2 -21 -1 -38 -6 -38 -30 0 -120 35 -135 52 -13 16 -21 18 -29
10 -17 -17 -53 -15 -68 3 -15 18 -63 20 -58 3 3 -7 13 -15 24 -17 10 -2 32
-16 48 -32 17 -16 35 -29 40 -29 6 -1 29 -16 51 -35 l40 -34 -27 -28 -27 -27
-56 40 c-31 21 -64 43 -75 49 -11 5 -20 13 -20 17 0 20 -27 4 -47 -27 -23 -37
-21 -45 12 -45 11 0 26 -5 33 -12 7 -7 36 -22 65 -33 41 -17 53 -26 55 -46 3
-29 -30 -65 -50 -55 -7 3 -26 15 -43 26 -16 11 -37 23 -45 26 -8 4 -23 14 -33
22 -14 12 -22 13 -42 4 -49 -22 -18 -99 34 -85 16 4 28 1 36 -10 6 -8 27 -17
46 -19 29 -3 34 -7 37 -31 4 -33 -13 -57 -39 -57 -23 0 -25 -23 -4 -40 19 -16
16 -55 -5 -55 -8 0 -17 13 -21 30 -5 24 -7 26 -13 13 -5 -10 -1 -29 10 -48 15
-25 16 -34 6 -50 -10 -16 -10 -24 0 -40 15 -24 -1 -77 -23 -71 -8 2 -23 5 -34
6 -11 1 -13 0 -5 -2 23 -6 46 -89 30 -108 -10 -12 -7 -23 14 -59 20 -34 24
-50 17 -68 -5 -14 -4 -32 2 -45 8 -18 6 -27 -6 -41 -16 -17 -24 -82 -11 -82 3
0 14 10 24 23 17 20 19 20 25 4 4 -9 0 -35 -9 -57 -9 -22 -16 -50 -16 -62 0
-11 -6 -26 -14 -32 -21 -17 -28 -73 -11 -80 8 -3 19 2 23 11 6 10 16 14 26 10
9 -4 25 -1 36 5 15 10 23 9 39 -6 12 -11 21 -26 21 -35 -1 -21 -153 -94 -180
-86 -11 3 -22 0 -27 -8 -12 -20 -44 -29 -59 -16 -14 11 -10 53 7 74 4 6 11 30
15 52 3 23 13 44 20 47 25 10 17 55 -12 66 -33 13 -34 13 -34 -8 0 -28 -43
-44 -69 -26 -27 19 -29 64 -2 64 10 0 24 7 31 15 7 8 26 15 42 15 48 0 27 24
-27 32 -31 4 -57 15 -72 31 -22 22 -25 33 -27 126 l-3 102 39 34 c33 28 45 33
73 28 43 -7 88 4 82 20 -3 11 -57 22 -149 31 -43 5 -58 12 -58 31 0 19 17 28
64 32 134 10 176 15 176 20 0 2 -5 13 -10 23 -7 14 -7 25 1 37 7 13 7 26 0 46
-13 33 -31 36 -31 5 0 -28 -55 -68 -92 -68 -15 0 -40 12 -57 26 -63 53 -29
161 62 195 36 14 35 29 -3 29 -36 0 -38 15 -10 65 11 20 20 41 20 48 0 21 39
97 50 97 5 0 16 15 24 34 8 18 19 37 25 40 6 4 11 14 11 23 0 9 14 29 30 45
17 15 30 35 30 43 0 20 30 33 65 28 23 -3 38 3 63 26 28 27 32 35 27 64 -5 24
-2 37 9 46 26 22 19 41 -15 41 -26 0 -47 -15 -120 -87 -49 -48 -89 -91 -89
-96 0 -6 -17 -30 -37 -55 -35 -41 -94 -135 -109 -172 -3 -8 -19 -40 -35 -71
-16 -31 -29 -70 -29 -86 0 -16 -4 -33 -9 -39 -21 -22 -56 -164 -67 -274 -11
-104 -8 -318 5 -376 19 -89 41 -165 57 -202 8 -18 14 -45 14 -61 0 -16 7 -34
15 -41 8 -7 15 -19 15 -26 0 -16 38 -92 50 -99 5 -3 11 -18 15 -34 3 -16 17
-39 31 -51 13 -13 24 -28 24 -34 0 -6 10 -22 23 -36 12 -14 32 -41 44 -60 12
-20 39 -52 60 -71 21 -19 49 -49 63 -67 14 -17 30 -31 35 -32 6 0 29 -18 50
-40 22 -22 57 -50 80 -61 22 -12 56 -34 76 -50 20 -16 41 -29 47 -29 5 0 15
-7 22 -15 7 -8 19 -15 27 -15 8 0 31 -7 51 -16 21 -8 51 -21 67 -28 17 -7 47
-21 68 -30 21 -9 48 -16 60 -16 13 0 28 -5 34 -11 7 -7 31 -13 55 -15 24 -1
77 -8 118 -14 135 -21 236 -23 283 -6 23 9 80 18 127 20 83 4 126 14 183 42
16 8 35 14 43 14 8 0 22 4 32 10 25 14 110 50 118 50 3 0 26 14 51 30 24 17
46 30 48 30 17 0 160 110 240 184 94 86 219 241 209 257 -3 5 -24 14 -47 20
-40 11 -86 29 -173 70 -52 25 -54 24 -54 -11 0 -20 -9 -39 -25 -54 -14 -13
-25 -30 -25 -37 1 -11 3 -11 13 1 60 72 187 40 187 -47 0 -51 -55 -121 -124
-158 -41 -22 -51 -16 -61 37 -6 31 -4 37 14 43 12 3 21 11 21 16 0 5 7 9 15 9
8 0 15 7 15 15 0 8 -7 15 -15 15 -8 0 -15 -6 -15 -13 0 -22 -71 -39 -107 -25
-63 24 -92 -16 -46 -65 37 -40 73 -99 73 -121 0 -8 -19 -28 -41 -43 l-42 -27
-38 44 c-22 25 -39 50 -39 55 -1 6 -12 23 -25 39 l-24 30 -35 -19 c-20 -11
-36 -21 -36 -22 0 -1 11 -14 25 -29 14 -15 25 -36 25 -47 0 -11 11 -30 25 -43
35 -32 32 -58 -11 -83 -19 -12 -40 -21 -46 -21 -6 0 -19 -6 -27 -14 -20 -17
-63 -27 -78 -18 -18 11 -63 103 -63 129 0 15 -5 23 -12 21 -21 -7 -23 -137 -3
-152 14 -10 14 -13 0 -34 -13 -18 -25 -22 -68 -22 -44 0 -57 5 -87 31 -49 44
-79 63 -88 55 -3 -4 -7 -30 -7 -59 l0 -51 -40 -7 c-64 -11 -62 -18 -81 215 -7
79 -2 86 61 86 35 -1 48 -8 100 -57 l60 -56 5 61 c3 33 8 63 12 67 3 4 25 9
47 12 22 3 46 12 52 19 6 8 18 14 26 14 7 0 24 6 36 14 12 7 34 16 50 20 23 5
27 3 27 -14 0 -11 4 -20 9 -20 17 0 23 20 11 35 -9 10 -7 15 7 19 10 3 38 24
62 46 24 22 53 43 65 46 11 4 26 13 32 22 5 8 26 15 44 16 31 1 35 5 36 34 1
23 13 43 42 72 22 22 45 40 51 40 18 0 12 29 -9 40 -21 11 -23 10 -85 -61 -87
-99 -279 -232 -380 -262 -186 -56 -268 -72 -370 -70 -66 1 -176 20 -271 48
-49 15 -98 29 -109 32 -11 3 -27 11 -35 18 -8 7 -35 23 -59 36 -74 41 -82 45
-154 105 -38 33 -81 74 -96 93 -14 20 -37 47 -51 61 -71 70 -166 273 -181 385
-5 33 -13 92 -18 130 -10 77 -5 199 10 226 5 10 9 38 9 62 0 84 98 308 169
387 22 25 41 48 41 51 0 26 273 249 304 249 8 0 41 14 74 30 34 17 67 30 75
30 16 0 57 41 57 57 0 6 7 16 16 23 19 16 15 65 -6 65 -8 1 -62 -1 -120 -2z
m-290 -168 c0 -8 -4 -15 -10 -15 -5 0 -10 7 -10 15 0 8 5 15 10 15 6 0 10 -7
10 -15z m-143 -1597 c39 -38 41 -60 8 -86 -31 -25 -31 -38 -2 -63 30 -25 45
-24 69 6 24 31 28 31 72 3 37 -24 48 -61 21 -72 -8 -3 -15 -12 -15 -20 0 -8
-6 -17 -12 -20 -7 -4 -2 -3 12 0 14 4 53 9 87 11 58 4 85 -2 153 -36 8 -4 35
-33 60 -64 41 -50 45 -54 48 -32 4 33 21 44 60 38 35 -6 43 -28 12 -36 -25 -6
-42 -46 -50 -122 -4 -33 -10 -68 -14 -77 -6 -14 -3 -18 13 -18 12 0 21 5 21
11 0 15 39 69 51 69 5 0 9 -6 9 -13 0 -8 8 -23 18 -35 9 -11 24 -30 32 -41 14
-21 40 -29 40 -12 0 4 -8 19 -19 32 -10 13 -21 34 -25 47 -6 18 -4 22 13 22
19 0 61 43 61 63 0 18 -42 57 -62 57 -22 0 -23 -13 -3 -30 35 -29 8 -80 -44
-80 -33 0 -47 23 -43 72 4 43 6 46 35 52 18 3 47 8 64 12 50 10 83 -26 83 -89
0 -42 -4 -52 -31 -74 -28 -24 -29 -28 -15 -38 9 -7 16 -15 16 -20 0 -4 9 -18
20 -32 26 -34 18 -43 -40 -43 -50 0 -66 9 -97 56 -21 33 -33 30 -33 -7 0 -28
-3 -31 -22 -25 -13 3 -35 6 -50 6 -41 0 -53 31 -33 85 10 24 14 52 10 64 -7
24 -25 19 -25 -7 0 -9 -17 -31 -37 -49 -30 -26 -47 -33 -81 -33 -24 0 -58 6
-75 14 -18 8 -39 17 -47 20 -36 14 -90 59 -90 75 0 5 -7 14 -15 21 -9 8 -15
30 -15 60 0 30 6 52 15 60 8 7 15 19 15 26 0 27 -25 12 -62 -36 -55 -72 -68
-76 -112 -37 -44 39 -45 58 -6 89 l30 23 -23 33 c-12 17 -27 32 -33 32 -6 0
-24 -16 -40 -35 -16 -19 -32 -35 -35 -35 -12 0 -79 69 -79 82 0 7 38 53 85
103 47 49 85 93 85 97 0 19 37 6 67 -24z"/>
<path d="M3090 3367 c-36 -38 -66 -76 -68 -83 -6 -24 24 -15 38 12 8 14 26 28
42 31 21 4 28 11 28 29 0 13 6 27 13 31 6 4 18 15 25 24 10 14 10 18 -1 22 -7
3 -40 -25 -77 -66z"/>
<path d="M3276 3271 c-18 -19 -34 -27 -47 -24 -20 6 -26 -11 -8 -22 6 -5 -1
-19 -20 -37 -28 -28 -42 -68 -23 -68 12 0 147 148 147 162 0 22 -21 18 -49
-11z"/>
<path d="M3435 3191 c-60 -6 -60 -6 -84 -53 l-24 -46 22 -45 c24 -50 58 -77
93 -76 23 0 23 0 -2 12 -94 44 -94 152 -1 188 38 15 83 0 124 -41 26 -27 37
-47 37 -68 0 -30 -37 -82 -58 -82 -7 0 -12 -4 -12 -10 0 -5 -9 -10 -19 -10
-11 0 -23 -4 -26 -10 -10 -17 39 -11 81 9 28 14 46 31 58 59 17 37 17 41 1 73
-21 42 -94 110 -115 107 -8 -1 -42 -4 -75 -7z"/>
<path d="M3432 3117 c-28 -30 -28 -48 2 -76 18 -17 33 -22 67 -19 43 3 44 4
47 41 2 20 -1 37 -6 37 -5 0 -19 9 -32 20 -30 26 -52 25 -78 -3z"/>
<path d="M4039 5191 c-12 -22 -32 -42 -45 -45 -27 -7 -98 -91 -89 -105 17 -28
175 111 175 154 0 39 -17 38 -41 -4z"/>
<path d="M2864 5127 c-29 -28 -75 -83 -104 -122 -55 -74 -156 -269 -179 -345
-8 -25 -25 -76 -38 -115 -13 -38 -30 -117 -38 -175 -17 -132 -21 -363 -6 -410
6 -19 11 -55 11 -80 0 -40 19 -119 40 -160 4 -9 11 -34 15 -57 9 -55 116 -272
171 -348 81 -112 97 -131 164 -207 47 -53 224 -196 303 -245 68 -43 215 -113
235 -113 10 0 31 -7 47 -16 46 -24 116 -44 158 -44 21 0 51 -7 67 -15 71 -37
508 -38 549 -1 11 10 36 16 67 16 50 0 104 15 159 44 17 9 41 16 54 16 13 0
40 8 60 19 20 10 56 28 81 39 147 70 305 198 480 392 27 30 50 60 50 66 0 6
14 26 30 44 33 37 37 55 15 64 -17 6 -21 2 -92 -94 -58 -80 -249 -268 -321
-318 -73 -50 -253 -152 -268 -152 -7 0 -15 -4 -18 -9 -3 -5 -22 -12 -42 -16
-20 -3 -46 -12 -58 -20 -12 -7 -43 -16 -71 -20 -27 -3 -60 -13 -72 -21 -30
-19 -291 -45 -394 -38 -98 6 -190 21 -239 39 -19 7 -57 16 -85 20 -27 4 -66
15 -87 26 -20 10 -45 19 -54 19 -19 0 -128 54 -224 111 -122 72 -333 257 -366
320 -7 15 -20 32 -27 36 -22 14 -118 164 -162 253 -49 98 -97 248 -121 370
-25 136 -30 347 -9 460 10 52 20 111 22 130 3 19 11 49 18 65 7 17 17 44 20
60 7 30 72 183 102 240 46 86 144 222 216 298 26 28 28 47 4 47 -7 0 -35 -24
-63 -53z"/>
<path d="M5231 5143 c-5 -21 -13 -60 -16 -88 -4 -27 -13 -76 -21 -108 -8 -32
-13 -61 -10 -66 8 -13 -16 -84 -37 -108 -19 -21 -19 -23 -1 -63 14 -31 23 -40
38 -38 21 3 27 20 46 118 4 25 13 58 19 73 14 35 15 317 1 317 -5 0 -14 -17
-19 -37z"/>
<path d="M5340 4973 c0 -93 -3 -182 -9 -199 -10 -34 -4 -84 10 -84 22 0 28 99
14 237 -7 71 -5 86 10 109 15 23 16 33 6 65 -23 76 -31 41 -31 -128z"/>
<path d="M5386 5013 c-3 -16 -6 -53 -8 -83 -2 -45 0 -55 14 -58 23 -4 58 53
58 96 0 30 -28 72 -49 72 -5 0 -12 -12 -15 -27z"/>
<path d="M4217 5002 c-7 -36 -51 -80 -84 -84 -37 -4 -49 -29 -33 -67 7 -17 20
-31 29 -31 10 0 37 27 61 60 24 33 46 60 50 60 6 0 40 70 40 83 0 4 -13 7 -29
7 -23 0 -30 -5 -34 -28z"/>
<path d="M3549 4941 c-47 -25 -100 -58 -117 -73 -18 -15 -40 -29 -49 -33 -28
-10 -133 -140 -189 -235 -28 -47 -63 -121 -77 -165 -33 -100 -58 -278 -46
-337 4 -24 8 -61 9 -83 0 -38 55 -227 80 -277 105 -205 310 -390 500 -453 30
-10 64 -24 75 -31 11 -7 70 -18 130 -25 142 -15 340 0 390 31 18 11 41 20 51
20 11 0 42 11 69 25 28 13 54 25 59 25 33 1 266 209 266 237 0 29 -39 9 -103
-53 -99 -95 -240 -184 -291 -184 -12 0 -32 -7 -45 -16 -13 -9 -39 -21 -60 -26
-55 -15 -301 -27 -336 -16 -16 5 -54 11 -83 13 -29 2 -61 10 -70 18 -9 8 -28
18 -42 22 -67 18 -140 64 -254 157 -67 55 -171 175 -182 210 -4 13 -17 40 -30
60 -13 21 -38 79 -54 129 -27 80 -31 106 -32 218 -3 224 9 279 96 448 42 79
113 178 163 225 41 39 190 151 220 166 27 13 50 40 41 47 -2 1 -42 -19 -89
-44z"/>
<path d="M5300 4655 c-13 -16 -27 -95 -16 -95 3 0 15 15 26 33 31 51 23 102
-10 62z"/>
<path d="M5086 4614 c-4 -10 3 -25 19 -40 14 -13 25 -28 25 -34 0 -5 7 -10 15
-10 19 0 19 13 0 50 -20 38 -51 56 -59 34z"/>
<path d="M2820 4535 c0 -29 -24 -66 -47 -71 -31 -8 -26 -38 7 -42 19 -2 31 6
48 32 21 30 30 35 70 38 47 3 74 28 30 28 -13 0 -33 7 -44 15 -25 19 -64 19
-64 0z"/>
<path d="M2767 4052 c-26 -29 -22 -105 7 -136 29 -32 48 -33 89 -4 18 13 34
24 36 25 2 1 -2 10 -9 18 -10 12 -10 21 -1 41 15 33 16 29 -23 53 -41 26 -78
27 -99 3z"/>
<path d="M2880 3791 l-25 -7 22 -8 c24 -8 43 -1 43 15 0 10 -4 10 -40 0z"/>
<path d="M5186 3613 c-8 -21 8 -37 28 -30 21 8 20 20 -3 34 -16 10 -20 9 -25
-4z"/>
<path d="M4797 3464 c-3 -3 -3 -12 -1 -19 7 -17 44 -7 44 11 0 14 -31 20 -43
8z"/>
<path d="M4767 3413 c-13 -12 -7 -70 8 -83 18 -15 89 -4 106 16 17 20 53 17
74 -6 22 -24 35 -26 35 -5 0 19 -40 75 -53 75 -4 0 -28 -13 -52 -30 -65 -44
-95 -38 -95 21 0 19 -11 25 -23 12z"/>
<path d="M4650 3300 c0 -5 6 -10 14 -10 8 0 18 5 21 10 3 6 -3 10 -14 10 -12
0 -21 -4 -21 -10z"/>
<path d="M4940 3276 c0 -7 -10 -16 -22 -20 -17 -4 -20 -8 -11 -17 8 -8 18 -7
37 7 28 21 34 44 11 44 -8 0 -15 -6 -15 -14z"/>
<path d="M4588 3262 c-36 -22 -35 -32 0 -32 31 0 58 -26 106 -97 27 -40 56
-57 56 -32 0 6 -25 43 -55 82 -30 39 -55 76 -55 84 0 17 -18 15 -52 -5z"/>
<path d="M4382 3145 c-18 -13 -28 -26 -23 -30 6 -3 29 -44 52 -90 34 -71 45
-85 65 -85 31 0 30 17 -1 46 -14 13 -25 30 -25 39 0 8 11 20 25 25 38 15 32
33 -9 26 -32 -6 -35 -5 -41 25 -6 24 -3 34 9 41 18 10 13 29 -7 27 -7 0 -27
-11 -45 -24z"/>
<path d="M4462 3128 c5 -15 48 -18 48 -3 0 6 -11 11 -26 13 -18 3 -25 0 -22
-10z"/>
<path d="M4259 3090 c-1 -8 -1 -45 1 -81 2 -81 -9 -91 -58 -52 -20 16 -50 37
-67 48 -16 10 -38 29 -48 42 -10 13 -29 23 -43 23 -23 0 -24 -3 -24 -63 0 -35
4 -67 9 -73 5 -5 11 -27 13 -49 5 -64 23 -41 20 25 -4 66 3 100 22 100 7 0 30
-15 52 -33 21 -18 56 -44 76 -57 21 -14 38 -28 38 -32 0 -5 14 -8 31 -8 30 0
31 2 25 31 -3 17 -6 57 -6 88 0 40 -6 63 -20 81 -14 18 -20 21 -21 10z"/>
<path d="M4525 3039 c-10 -15 1 -23 20 -15 9 3 13 10 10 16 -8 13 -22 13 -30
-1z"/>
<path d="M4515 2980 c-4 -6 6 -10 22 -10 22 0 25 2 13 10 -19 12 -27 12 -35 0z"/>
</g>
</svg>
