<?xml version="1.0" standalone="no"?>
<!DOCTYPE svg PUBLIC "-//W3C//DTD SVG 20010904//EN"
 "http://www.w3.org/TR/2001/REC-SVG-20010904/DTD/svg10.dtd">
<svg version="1.0" xmlns="http://www.w3.org/2000/svg"
 width="300.000000pt" height="257.000000pt" viewBox="0 0 300.000000 257.000000"
 preserveAspectRatio="xMidYMid meet">
<metadata>
Created by potrace 1.10, written by Peter Selinger 2001-2011
</metadata>
<g transform="translate(0.000000,257.000000) scale(0.050000,-0.050000)"
fill="#606060" stroke="none">
<path d="M2680 5105 c-38 -19 -89 -65 -114 -103 -25 -37 -101 -100 -168 -140
-1016 -600 -557 -2177 632 -2169 1185 8 1613 1603 586 2185 -63 35 -126 88
-140 116 -60 121 -249 188 -260 92 -6 -53 -11 -56 -91 -50 -76 6 -85 2 -85
-36 0 -39 9 -43 85 -37 l85 7 0 -70 0 -69 -87 6 c-75 5 -86 1 -80 -30 6 -30
23 -35 94 -30 l87 6 -14 -61 c-21 -98 163 -66 237 40 l33 47 71 -38 c39 -21
103 -67 143 -101 l73 -63 -233 -321 c-443 -608 -598 -610 -1037 -12 l-242 332
47 38 c27 21 92 68 146 106 l98 68 39 -50 c45 -57 136 -108 194 -108 39 0 41
11 41 240 0 269 -3 274 -140 205z m-336 -955 c237 -416 376 -816 376 -1083 0
-103 254 -154 502 -102 l72 16 25 184 c47 340 144 610 342 945 46 77 110 192
143 256 71 135 85 131 165 -47 252 -561 5 -1209 -543 -1428 -817 -327 -1643
389 -1427 1237 40 155 140 363 162 336 6 -8 89 -149 183 -314z m506 -439 c22
1 50 -6 62 -15 13 -9 62 -11 110 -5 49 6 108 11 133 12 25 1 45 10 45 20 0 43
36 -6 47 -65 16 -80 -3 -110 -40 -64 -27 33 -27 32 -6 -11 33 -68 5 -250 -36
-234 -22 9 -25 5 -11 -14 50 -65 -35 -241 -98 -202 -13 8 -16 4 -8 -10 9 -14
0 -23 -26 -23 -22 0 -46 10 -53 21 -7 12 -26 17 -42 11 -17 -7 -24 -3 -16 10
7 11 0 31 -16 44 -40 32 -54 100 -30 144 14 24 13 31 0 23 -24 -15 -45 30 -45
97 0 26 -8 53 -18 59 -30 18 -39 111 -11 111 14 0 24 13 21 29 -6 45 -32 63
-32 23 0 -44 -32 -25 -45 26 -9 33 -3 37 32 25 24 -8 61 -13 83 -12z"/>
<path d="M2912 4449 c-246 -128 -137 -499 136 -462 248 33 290 369 59 465 -84
36 -123 35 -195 -3z m168 -229 c0 -11 -22 -20 -49 -20 -27 0 -54 9 -61 20 -7
12 13 20 49 20 33 0 61 -9 61 -20z"/>
<path d="M6 1975 c9 -189 14 -211 56 -277 58 -89 59 -139 6 -188 -30 -28 -44
-57 -36 -78 7 -18 4 -44 -6 -57 -10 -14 -21 -99 -24 -190 l-5 -165 111 0 112
0 0 240 0 240 191 0 191 0 -14 -241 -14 -241 114 6 113 6 4 555 5 555 -118 0
-118 0 14 -230 14 -230 -191 0 -191 0 0 230 0 230 -111 0 -112 0 9 -165z"/>
<path d="M1263 2124 c4 -9 83 -164 175 -344 l168 -327 -12 -217 -11 -218 111
6 111 6 -3 220 -3 220 170 330 c94 182 171 332 171 335 0 3 -53 5 -118 5
l-118 0 -97 -220 c-53 -121 -101 -220 -107 -220 -6 0 -54 99 -107 220 l-97
220 -120 0 c-66 0 -116 -7 -113 -16z"/>
<path d="M2797 2100 c-168 -89 -217 -206 -217 -520 0 -452 238 -670 576 -529
174 73 229 164 243 404 l11 185 -215 0 -215 0 0 -90 0 -90 110 0 c123 0 131
-12 82 -129 -59 -141 -275 -160 -343 -30 -37 73 -40 486 -3 558 63 126 290
114 340 -19 26 -68 234 -96 234 -31 0 239 -366 416 -603 291z"/>
<path d="M4168 2102 c-175 -80 -241 -258 -222 -604 17 -334 133 -468 403 -468
277 0 407 134 426 439 l11 171 -213 0 -213 0 0 -90 0 -90 100 0 c98 0 100 -1
100 -62 0 -156 -233 -242 -342 -126 -79 84 -74 541 7 622 99 99 266 63 317
-69 15 -39 31 -45 129 -45 125 0 127 5 49 160 -92 182 -345 256 -552 162z"/>
<path d="M5260 1580 l0 -560 370 0 370 0 0 100 0 100 -260 0 -260 0 0 143 0
143 220 -14 220 -14 0 101 0 101 -220 0 -220 0 0 130 0 130 260 0 260 0 0 100
0 100 -370 0 -370 0 0 -560z"/>
<path d="M3926 516 c-145 -38 -189 -359 -64 -464 137 -116 318 -30 318 151 l0
99 -95 -6 c-106 -7 -145 -79 -50 -92 56 -8 60 -74 6 -103 -93 -50 -141 4 -141
159 0 165 75 233 155 140 39 -46 125 -54 125 -12 0 87 -141 158 -254 128z"/>
<path d="M1280 260 l0 -260 180 0 c180 0 180 0 180 51 0 51 -3 52 -125 47
l-125 -6 -6 64 -7 64 112 0 c106 0 111 2 111 52 0 50 -4 51 -105 45 -105 -7
-105 -7 -105 53 l0 60 125 -6 c122 -5 125 -4 125 45 0 51 -1 51 -180 51 l-180
0 0 -260z"/>
<path d="M1900 260 l0 -260 50 0 c49 0 50 2 50 165 l0 164 103 -164 c163 -261
197 -244 197 95 l0 260 -50 0 c-49 0 -50 -3 -50 -151 0 -176 -7 -176 -120 11
-67 111 -95 140 -132 140 l-48 0 0 -260z"/>
<path d="M2580 260 l0 -260 180 0 c180 0 180 0 180 51 0 51 -3 52 -125 47
l-125 -6 -6 64 -7 64 112 0 c106 0 111 2 111 52 0 50 -4 51 -105 45 -105 -7
-105 -7 -105 53 l0 60 125 -6 c122 -5 125 -4 125 45 0 51 -1 51 -180 51 l-180
0 0 -260z"/>
<path d="M3200 260 l0 -260 50 0 c47 0 50 6 50 111 0 146 46 143 126 -6 49
-90 65 -105 115 -105 l59 0 -61 108 -61 108 53 54 c121 120 21 250 -193 250
l-138 0 0 -260z m249 149 c49 -50 6 -109 -80 -109 -66 0 -69 3 -69 70 0 79 85
102 149 39z"/>
<path d="M4363 505 c4 -8 41 -80 82 -160 58 -110 75 -167 75 -245 0 -93 3
-100 50 -100 48 0 50 6 50 115 1 96 14 139 80 260 l79 145 -60 0 c-53 0 -65
-12 -106 -105 l-47 -105 -45 105 c-41 93 -53 105 -105 105 -33 0 -56 -7 -53
-15z"/>
</g>
</svg>
