<?xml version="1.0" standalone="no"?>
<!DOCTYPE svg PUBLIC "-//W3C//DTD SVG 20010904//EN"
 "http://www.w3.org/TR/2001/REC-SVG-20010904/DTD/svg10.dtd">
<svg version="1.0" xmlns="http://www.w3.org/2000/svg"
 width="900.000000pt" height="507.000000pt" viewBox="0 0 900.000000 507.000000"
 preserveAspectRatio="xMidYMid meet">
<metadata>
Created by potrace 1.10, written by Peter Selinger 2001-2011
</metadata>
<g transform="translate(0.000000,507.000000) scale(0.100000,-0.100000)"
fill="#606060" stroke="none">
<path d="M1605 3763 c-62 -32 -118 -88 -259 -257 -136 -163 -441 -472 -511
-519 -18 -12 -60 -44 -93 -72 -33 -27 -95 -76 -138 -107 -44 -32 -98 -77 -121
-100 -159 -165 -129 -238 197 -478 115 -85 335 -278 445 -391 104 -108 185
-201 302 -349 98 -124 173 -180 241 -180 46 0 121 50 212 144 30 31 58 56 62
56 4 0 40 -29 79 -65 78 -72 96 -79 175 -73 62 5 109 37 159 107 26 37 30 51
30 110 0 57 -4 74 -28 109 -15 23 -49 59 -77 79 -59 45 -62 67 -17 115 88 96
350 314 496 413 56 38 134 115 168 166 58 89 12 179 -156 304 -47 35 -115 86
-150 112 -71 53 -269 224 -346 299 -90 87 -260 276 -345 384 -149 189 -236
241 -325 193z m121 -117 c19 -19 34 -37 34 -41 0 -6 31 -47 134 -176 74 -92
467 -485 560 -559 38 -30 74 -60 80 -66 6 -6 36 -28 66 -49 30 -21 59 -42 65
-47 39 -32 105 -78 113 -78 6 0 24 -13 41 -29 30 -28 41 -72 23 -96 -11 -15
-70 -55 -81 -55 -10 0 -170 -115 -186 -134 -5 -6 -39 -34 -75 -61 -36 -27 -72
-56 -81 -64 -9 -9 -61 -56 -115 -106 -110 -100 -205 -194 -307 -306 -102 -111
-109 -119 -162 -189 -27 -36 -55 -69 -62 -73 -7 -4 -13 -14 -13 -20 0 -7 -13
-27 -29 -45 -24 -25 -38 -32 -67 -32 -36 0 -84 30 -84 52 0 8 -37 65 -50 78
-3 3 -30 37 -60 75 -77 99 -105 130 -285 310 -167 168 -276 267 -360 331 -27
21 -54 43 -60 50 -5 6 -31 25 -58 42 -26 18 -53 37 -60 43 -6 6 -43 32 -82 58
-62 42 -70 51 -73 83 -2 22 3 41 12 51 18 18 146 106 182 125 13 7 24 17 24
23 0 5 7 9 15 9 8 0 15 4 15 8 0 5 21 24 47 42 158 114 448 393 623 600 25 29
50 59 57 65 7 7 36 44 64 81 111 147 136 159 195 100z m548 -1976 c43 -48 48
-96 15 -145 -23 -33 -87 -75 -114 -75 -19 0 -77 31 -100 54 -42 42 -37 137 10
180 24 22 37 26 90 26 60 0 64 -1 99 -40z"/>
<path d="M1620 3383 c-8 -3 -56 -36 -106 -74 -259 -191 -605 -536 -701 -698
-37 -64 -29 -101 45 -198 104 -136 234 -274 395 -415 45 -40 96 -85 112 -100
99 -94 262 -198 310 -198 31 0 115 42 151 75 6 5 22 17 34 25 29 19 157 128
235 200 251 232 431 443 449 525 9 41 -18 89 -125 222 -156 195 -480 500 -636
599 -53 35 -129 52 -163 37z m160 -100 c30 -21 64 -45 75 -54 11 -9 54 -45 95
-79 236 -196 530 -530 530 -603 -1 -64 -89 -177 -304 -392 -152 -152 -248
-239 -306 -276 -14 -9 -36 -26 -50 -38 -14 -11 -29 -24 -35 -29 -35 -27 -102
-53 -127 -48 -35 7 -180 105 -254 171 -6 6 -49 43 -95 84 -165 146 -315 307
-434 466 -8 10 -15 38 -15 61 0 37 9 54 63 126 70 93 300 329 423 434 114 97
126 107 155 126 14 9 32 23 40 30 38 37 86 58 134 58 41 0 59 -6 105 -37z"/>
<path d="M1637 3098 c-4 -28 -11 -56 -17 -62 -5 -5 -10 -21 -10 -35 0 -15 -7
-35 -15 -45 -8 -11 -15 -28 -15 -38 0 -9 -9 -35 -21 -57 -27 -53 -22 -77 16
-74 44 3 54 -10 44 -60 -4 -23 -8 -95 -9 -159 l0 -118 48 0 c26 0 53 5 58 10
7 7 6 59 -3 158 -7 81 -11 153 -8 160 3 9 19 12 47 10 l43 -3 -3 35 c-1 19 -9
41 -17 50 -8 9 -15 24 -15 32 0 9 -6 29 -14 45 -19 38 -36 91 -46 135 -16 81
-54 91 -63 16z"/>
<path d="M1292 2685 c-34 -17 -78 -46 -97 -63 -29 -25 -35 -37 -35 -70 0 -35
5 -44 38 -69 102 -77 240 -112 450 -112 237 -1 402 40 461 115 34 44 27 70
-38 135 -50 51 -65 60 -112 69 -29 6 -58 15 -63 20 -6 6 -18 10 -28 10 -25 0
-24 -44 2 -80 18 -26 24 -28 49 -19 23 8 37 7 63 -7 72 -36 87 -73 46 -111
-74 -66 -384 -108 -514 -68 -27 8 -57 15 -67 15 -30 0 -106 39 -117 60 -24 46
61 120 139 120 28 0 41 4 41 13 0 16 -31 47 -47 47 -6 0 -16 7 -23 15 -20 24
-79 16 -148 -20z"/>
<path d="M1615 2330 c-4 -6 -11 -63 -15 -128 -5 -64 -12 -134 -16 -156 -9 -48
2 -56 81 -56 76 0 90 9 80 46 -4 16 -11 90 -14 164 l-6 135 -52 3 c-29 2 -54
-2 -58 -8z"/>
<path d="M2163 1652 c-7 -4 -9 -13 -4 -21 6 -9 11 -10 15 -2 4 6 16 11 27 11
10 0 19 5 19 10 0 12 -40 13 -57 2z"/>
<path d="M2094 1616 c-8 -22 -1 -59 14 -64 8 -2 12 9 12 37 0 40 -15 55 -26
27z"/>
<path d="M2226 1595 c-17 -18 -22 -55 -6 -55 5 0 17 11 26 26 21 31 6 54 -20
29z"/>
<path d="M2157 1563 c-13 -12 -7 -51 8 -56 20 -8 27 7 15 37 -10 28 -13 30
-23 19z"/>
<path d="M3155 3454 c-16 -8 -47 -32 -68 -52 -77 -74 -72 -6 -75 -887 -2 -561
1 -810 9 -859 10 -63 15 -72 63 -118 77 -75 88 -78 295 -78 100 0 192 5 207
10 15 6 57 38 94 70 37 33 71 60 76 60 5 0 36 -27 70 -61 43 -43 72 -63 100
-69 44 -11 1176 -13 1239 -3 33 5 53 20 119 86 l79 81 16 -23 c9 -13 34 -43
55 -68 74 -83 26 -78 711 -81 429 -2 621 0 648 8 26 8 60 33 106 81 37 38 71
69 76 68 6 0 24 -19 40 -42 51 -70 105 -104 177 -112 35 -3 322 -5 638 -3 573
3 575 3 610 25 36 22 86 78 108 120 15 28 16 261 1 300 -17 44 -79 114 -118
131 -29 13 -95 17 -359 22 -306 5 -324 6 -338 24 -15 22 -10 52 12 76 12 12
65 16 312 20 335 6 323 3 394 92 33 42 33 42 37 171 1 70 0 144 -4 164 -6 35
-77 122 -120 146 -13 8 -115 14 -311 17 -311 5 -324 8 -324 56 0 51 19 54 345
54 169 0 316 4 336 10 38 11 113 87 136 138 15 34 17 260 2 299 -12 34 -83
109 -121 129 -39 20 -1252 21 -1301 1 -18 -8 -60 -44 -95 -81 l-63 -68 -59 65
c-97 106 -36 98 -763 95 l-634 -3 -48 -39 c-26 -22 -60 -57 -74 -77 -31 -46
-46 -48 -65 -11 -8 15 -32 44 -53 64 -73 71 -44 68 -723 68 -689 0 -646 5
-736 -80 -29 -28 -59 -50 -66 -50 -8 0 -36 22 -63 50 -77 78 -85 80 -307 80
-155 0 -199 -3 -223 -16z m466 -986 l0 -883 -243 -3 -243 -2 2 887 c2 489 3
888 3 888 0 0 108 -1 240 -2 l241 -2 0 -883z m1599 882 c4 0 4 -297 0 -340 0
-5 -335 -4 -702 3 l-148 2 0 -185 0 -186 238 3 c130 2 306 4 390 6 83 2 152 0
153 -3 6 -64 1 -350 -6 -352 -5 -2 -179 -1 -385 2 -206 3 -379 2 -383 -1 -6
-5 -12 -272 -7 -356 0 -5 192 -8 426 -8 l427 0 0 -175 0 -175 -672 0 -672 0
-2 883 c-1 485 1 883 5 885 6 1 1271 -1 1338 -3z m1613 -170 c-1 -95 -5 -176
-10 -181 -5 -5 -22 -5 -42 1 -18 5 -204 10 -414 11 l-382 1 0 -183 0 -183 345
3 c190 1 366 5 393 8 l47 6 0 -182 0 -182 -390 1 c-214 1 -394 -2 -400 -5 -6
-3 -7 -18 -4 -32 4 -15 8 -94 8 -177 l1 -150 424 0 425 -1 0 -175 0 -175 -675
-3 -674 -2 0 885 c0 760 2 885 14 887 8 2 312 2 675 1 l659 -2 0 -171z m1615
166 c6 -6 3 -337 -3 -347 -3 -3 -24 -3 -47 2 -46 8 -796 14 -804 6 -9 -9 -7
-348 2 -356 5 -4 180 -4 389 -1 209 3 385 4 390 3 6 -2 10 -70 10 -178 l0
-175 -399 -2 -398 -3 1 -175 c0 -96 1 -177 1 -180 0 -3 193 -3 430 -2 l430 4
0 -181 0 -181 -675 0 -675 0 -2 878 c-2 482 0 882 4 887 6 10 1336 11 1346 1z
m-1468 -857 c0 -485 -4 -559 -29 -559 -6 0 -37 25 -69 55 -78 72 -95 75 -444
75 -173 0 -287 4 -299 10 -24 13 -26 72 -2 91 12 11 81 15 309 19 l292 5 39
31 c21 17 53 50 71 73 l32 43 0 133 c0 74 -5 146 -11 162 -16 42 -99 122 -139
133 -19 5 -152 10 -295 10 -278 0 -307 5 -313 49 -2 12 4 31 14 42 16 18 34
19 318 19 190 0 316 4 341 11 28 8 58 30 100 74 53 56 62 61 73 47 9 -12 12
-133 12 -523z m-1622 -27 c1 -304 -1 -552 -6 -552 -4 0 -32 25 -62 56 -88 90
-79 88 -440 92 -199 2 -319 7 -327 14 -19 15 -16 73 4 89 12 11 81 15 307 19
l291 5 38 29 c21 16 52 47 70 69 32 41 32 43 35 163 4 143 -5 186 -54 242 -68
80 -76 82 -386 82 -231 0 -277 2 -296 16 -24 16 -28 44 -12 75 10 18 24 19
313 19 189 0 317 4 342 11 25 7 60 32 100 70 33 32 65 57 70 55 6 -2 11 -198
13 -554z"/>
</g>
</svg>
