<?xml version="1.0" encoding="utf-8"?>
<!-- Generator: Adobe Illustrator 28.1.0, SVG Export Plug-In . SVG Version: 6.00 Build 0)  -->
<svg version="1.1" id="Layer_1" xmlns="http://www.w3.org/2000/svg" xmlns:xlink="http://www.w3.org/1999/xlink" x="0px" y="0px"
	 viewBox="0 0 1920 1080" style="enable-background:new 0 0 1920 1080;" xml:space="preserve">
<style type="text/css">
	.st0{fill:#FFFFFF;}
</style>
<g>
	<g>
		<path d="M1600,899.99C1173.36,900,746.73,900,320,900c0-239.94,0-479.9,0-720c426.6,0,853.3,0,1280,0
			C1600,419.94,1600,659.97,1600,899.99z M873.45,422.99c0,83.59,0,166.64,0,249.6c63.63,0,126.85,0,189.95,0
			c0-16.3,0-32.18,0-48.64c-40.48,0-80.53,0-120.49,0c0-17.68,0-34.78,0-52.6c37.18,0,74.02,0,110.83,0c0-16.49,0-32.25,0-48.52
			c-37.05,0-73.79,0-110.75,0c0-17.37,0-34.22,0-51.75c40.44,0,80.48,0,120.49,0c0-16.42,0-32.16,0-48.09
			C1000.03,422.99,936.91,422.99,873.45,422.99z M1102.88,423c0,83.38,0,166.55,0,249.71c63.57,0,126.66,0,189.93,0
			c0-16.17,0-32.06,0-48.56c-40.37,0-80.42,0-120.53,0c0-17.83,0-35.05,0-52.79c37.13,0,73.88,0,110.68,0c0-16.41,0-32.29,0-48.68
			c-37.15,0-73.89,0-110.82,0c0-17.27,0-34.03,0-51.39c40.3,0,80.36,0,120.6,0c0-16.46,0-32.33,0-48.3
			C1229.25,423,1166.15,423,1102.88,423z M1522.53,423.12c-63.75,0-126.99,0-190.33,0c0,83.37,0,166.42,0,249.55
			c63.56,0,126.78,0,190.27,0c0.1-1.76,0.26-3.22,0.26-4.69c0.02-12.83-0.15-25.67,0.09-38.5c0.08-4.07-0.95-5.39-5.22-5.37
			c-36.82,0.17-73.65,0.1-110.47,0.1c-1.78,0-3.56,0-5.56,0c0-17.81,0-35.02,0-52.87c37.26,0,74.15,0,111,0c0-16.41,0-32.18,0-48.59
			c-37.16,0-74.03,0-111.06,0c0-17.39,0-34.13,0-51.61c40.48,0,80.66,0,121.02,0C1522.53,454.8,1522.53,439.19,1522.53,423.12z
			 M767.66,423.04c0,83.59,0,166.62,0,249.64c23.16,0,45.91,0,68.85,0c0-83.34,0-166.37,0-249.64
			C813.46,423.04,790.71,423.04,767.66,423.04z M558.35,375.56c-3.74,2.94-7.54,4.9-9.92,7.97c-23.37,30.24-48.53,58.84-76.5,84.93
			c-22.95,21.41-47.54,40.7-73.56,58.25c-9.87,6.65-9.56,13.49,0.29,20.15c25.42,17.2,49.6,36,72.12,56.86
			c29.03,26.89,55.93,55.67,78.13,88.62c1.1,1.63,3.2,2.95,5.12,3.58c6.72,2.21,9.54,0.9,14.62-5.97
			c26.24-35.51,56.13-67.66,89.54-96.5c19.67-16.98,39.73-33.46,62.08-46.93c5.65-3.4,7.43-8.1,4.41-13.04
			c-2.04-3.32-5.53-5.97-8.85-8.22c-24.62-16.63-48-34.81-69.62-55.18c-28.53-26.89-55.25-55.42-78.12-87.4
			C566.04,379.83,562.19,378.3,558.35,375.56z M647.81,672.91c0.01-9.63-7.35-16.77-17.26-16.76c-9.9,0.01-17.35,7.17-17.39,16.72
			c-0.04,9.7,7.59,16.86,17.83,16.72C640.63,689.45,647.81,682.34,647.81,672.91z"/>
		<path class="st0" d="M873.45,422.99c63.46,0,126.57,0,190.03,0c0,15.93,0,31.67,0,48.09c-40.01,0-80.05,0-120.49,0
			c0,17.52,0,34.38,0,51.75c36.96,0,73.7,0,110.75,0c0,16.27,0,32.04,0,48.52c-36.8,0-73.65,0-110.83,0c0,17.82,0,34.92,0,52.6
			c39.95,0,80.01,0,120.49,0c0,16.45,0,32.34,0,48.64c-63.1,0-126.32,0-189.95,0C873.45,589.63,873.45,506.58,873.45,422.99z"/>
		<path class="st0" d="M1102.88,423c63.27,0,126.38,0,189.87,0c0,15.97,0,31.84,0,48.3c-40.24,0-80.3,0-120.6,0
			c0,17.35,0,34.11,0,51.39c36.93,0,73.67,0,110.82,0c0,16.39,0,32.27,0,48.68c-36.8,0-73.55,0-110.68,0c0,17.74,0,34.96,0,52.79
			c40.11,0,80.16,0,120.53,0c0,16.49,0,32.38,0,48.56c-63.28,0-126.36,0-189.93,0C1102.88,589.56,1102.88,506.38,1102.88,423z"/>
		<path class="st0" d="M1522.53,423.12c0,16.07,0,31.68,0,48.03c-40.36,0-80.54,0-121.02,0c0,17.48,0,34.22,0,51.61
			c37.03,0,73.9,0,111.06,0c0,16.41,0,32.18,0,48.59c-36.85,0-73.74,0-111,0c0,17.85,0,35.06,0,52.87c1.99,0,3.78,0,5.56,0
			c36.83,0,73.65,0.07,110.47-0.1c4.27-0.02,5.29,1.3,5.22,5.37c-0.24,12.83-0.07,25.66-0.09,38.5c0,1.47-0.16,2.93-0.26,4.69
			c-63.48,0-126.7,0-190.27,0c0-83.13,0-166.19,0-249.55C1395.54,423.12,1458.77,423.12,1522.53,423.12z"/>
		<path class="st0" d="M767.66,423.04c23.04,0,45.8,0,68.85,0c0,83.28,0,166.31,0,249.64c-22.95,0-45.69,0-68.85,0
			C767.66,589.66,767.66,506.64,767.66,423.04z"/>
		<path class="st0" d="M558.35,375.56c3.84,2.74,7.69,4.27,9.73,7.12c22.88,31.99,49.6,60.51,78.12,87.4
			c21.62,20.38,45,38.56,69.62,55.18c3.32,2.24,6.82,4.9,8.85,8.22c3.03,4.93,1.25,9.63-4.41,13.04
			c-22.35,13.46-42.41,29.95-62.08,46.93c-33.41,28.84-63.3,60.99-89.54,96.5c-5.08,6.87-7.9,8.18-14.62,5.97
			c-1.91-0.63-4.02-1.95-5.12-3.58c-22.19-32.94-49.1-61.73-78.13-88.62c-22.52-20.86-46.7-39.66-72.12-56.86
			c-9.85-6.67-10.16-13.5-0.29-20.15c26.02-17.54,50.6-36.84,73.56-58.25c27.98-26.09,53.13-54.69,76.5-84.93
			C550.8,380.46,554.61,378.5,558.35,375.56z M557.8,417.57c-4.12,1.93-8.57,3.35-12.29,5.87c-24.1,16.3-45.87,35.46-66.11,56.22
			c-13.68,14.04-26.56,28.94-38.92,44.17c-8.42,10.37-7.66,16.21,0.11,26.95c18.87,26.08,41.7,48.38,65.91,69.39
			c13.96,12.11,27.73,24.43,44.03,33.48c5.25,2.91,10.43,3.3,15.77,0.89c3.02-1.36,5.95-3.01,8.68-4.88
			c26.9-18.49,50.76-40.51,72.98-64.25c10.54-11.27,20.33-23.36,29.41-35.84c7.33-10.07,6.46-15.35-0.89-25.36
			c-27.72-37.76-60.99-69.96-98.47-97.9C572.2,421.99,565.84,418.74,557.8,417.57z"/>
		<path class="st0" d="M647.81,672.91c-0.01,9.43-7.18,16.54-16.82,16.67c-10.24,0.14-17.87-7.02-17.83-16.72
			c0.04-9.55,7.49-16.71,17.39-16.72C640.46,656.14,647.82,663.28,647.81,672.91z M618.4,672.94c0.04,7.08,5.24,12.56,12.05,12.69
			c6.77,0.13,12.47-5.87,12.32-12.97c-0.15-6.91-5.77-12.55-12.38-12.42C623.58,660.36,618.36,665.89,618.4,672.94z"/>
		<path d="M557.8,417.57c8.04,1.17,14.39,4.42,20.2,8.75c37.48,27.94,70.75,60.13,98.47,97.9c7.35,10.01,8.22,15.28,0.89,25.36
			c-9.08,12.48-18.87,24.57-29.41,35.84c-22.22,23.74-46.08,45.77-72.98,64.25c-2.73,1.87-5.66,3.52-8.68,4.88
			c-5.33,2.4-10.52,2.02-15.77-0.89c-16.3-9.05-30.07-21.37-44.03-33.48c-24.21-21.01-47.04-43.31-65.91-69.39
			c-7.77-10.74-8.53-16.58-0.11-26.95c12.36-15.23,25.23-30.13,38.92-44.17c20.24-20.77,42.02-39.93,66.11-56.22
			C549.23,420.92,553.69,419.5,557.8,417.57z M559.07,423.86c-4.6,2.05-8.84,3.25-12.29,5.58c-25.65,17.34-48.41,38.12-69.8,60.35
			c-10.48,10.9-20.24,22.56-29.58,34.47c-7.59,9.67-6.98,15.41,0.12,25.25c15.88,22.01,34.72,41.28,55.02,59.16
			c14.99,13.2,29.62,26.84,47.02,37.04c7.04,4.13,13.53,3.84,20.21-0.14c2.43-1.44,4.77-3.06,7.08-4.69
			c23.79-16.77,45.15-36.36,64.98-57.54c10.32-11.03,19.57-23.08,28.97-34.94c6.28-7.92,5.05-15.8-0.86-23.75
			c-26.53-35.72-57.92-66.54-93.81-92.72C571.19,428.34,564.92,426.57,559.07,423.86z"/>
		<path d="M618.4,672.94c-0.04-7.05,5.18-12.58,12-12.71c6.61-0.13,12.23,5.52,12.38,12.42c0.15,7.1-5.55,13.1-12.32,12.97
			C623.63,685.5,618.43,680.03,618.4,672.94z M634.53,674.78c0.53,0.06,1.05,0.12,1.58,0.18c0.56-2.67,2.46-6.12,1.44-7.87
			c-3.12-5.39-8.68-2.56-13.46-3.18c0,6.38,0,12.1,0,17.83c6.87,0.9,1.7-5.68,4.74-7c3.65,1.33,2.6,8.96,9.31,6.65
			C636.86,679.05,635.69,676.92,634.53,674.78z"/>
		<path class="st0" d="M559.07,423.86c5.86,2.71,12.13,4.49,17.06,8.09c35.9,26.18,67.28,57,93.81,92.72
			c5.91,7.95,7.14,15.83,0.86,23.75c-9.4,11.86-18.65,23.91-28.97,34.94c-19.83,21.19-41.19,40.77-64.98,57.54
			c-2.31,1.63-4.65,3.24-7.08,4.69c-6.69,3.97-13.17,4.26-20.21,0.14c-17.4-10.2-32.03-23.84-47.02-37.04
			c-20.3-17.88-39.14-37.15-55.02-59.16c-7.11-9.85-7.71-15.58-0.12-25.25c9.34-11.9,19.1-23.57,29.58-34.47
			c21.39-22.24,44.15-43.02,69.8-60.35C550.23,427.1,554.46,425.91,559.07,423.86z M536.94,521.94c-5.28-3.33-9.74-6.2-14.27-8.96
			c-0.79-0.48-1.96-0.91-2.79-0.7c-11.74,3-23.04,7.08-31.12,16.7c-4.67,5.57-4.06,11.76,1.74,16.24c4.27,3.3,9.19,6.16,14.26,7.98
			c32.44,11.64,65.28,11.49,98.17,2.1c5.17-1.48,10.27-4.13,14.62-7.31c8.02-5.87,7.9-13.13,0.23-19.43
			c-2.62-2.15-5.63-3.81-8.61-5.79c1.55-0.83,2.75-1.48,4.27-2.29c-9.81-2.27-19.06-4.4-28.94-6.68c1.82,4.87,3.32,8.88,4.85,12.97
			c1.61-0.35,2.93-0.51,4.17-0.93c7.05-2.36,12.32,1.25,17.09,5.49c3.77,3.35,3.75,8.68-0.25,11.79c-3.6,2.79-7.78,5.27-12.1,6.63
			c-22.59,7.13-45.53,7.62-68.52,2.1c-4.95-1.19-9.95-2.96-14.36-5.46c-6.75-3.82-7.25-8.85-1.61-14.04
			c2.87-2.63,6.47-4.68,10.05-6.27C527.69,524.36,531.95,523.47,536.94,521.94z M539.85,502.03c4.19,0.22,7.94,0.41,11.98,0.63
			c0,2.12,0.07,3.92-0.01,5.71c-0.59,12.98-1.29,25.95-1.7,38.93c-0.05,1.46,1.36,4.15,2.3,4.25c4.37,0.46,8.82,0.2,13.71,0.2
			c-0.71-16.8-1.38-32.72-2.08-49.09c4.67-0.29,8.88-0.55,13.52-0.84c-6.44-17.12-12.71-33.79-19.27-51.25
			C552,468.12,546.01,484.82,539.85,502.03z M569.26,614.99c-0.82-16.96-1.61-33.3-2.41-49.74c-6.17,0-11.47,0-17.34,0
			c-0.74,16.47-1.47,32.82-2.23,49.74C554.63,614.99,561.55,614.99,569.26,614.99z"/>
		<path class="st0" d="M634.53,674.78c1.17,2.14,2.33,4.27,3.61,6.61c-6.71,2.32-5.67-5.31-9.31-6.65c-3.04,1.32,2.14,7.9-4.74,7
			c0-5.73,0-11.45,0-17.83c4.78,0.62,10.34-2.21,13.46,3.18c1.02,1.76-0.88,5.2-1.44,7.87C635.58,674.9,635.05,674.84,634.53,674.78
			z"/>
		<path d="M536.94,521.94c-4.99,1.53-9.25,2.42-13.13,4.15c-3.59,1.59-7.18,3.64-10.05,6.27c-5.65,5.18-5.14,10.22,1.61,14.04
			c4.41,2.5,9.41,4.27,14.36,5.46c22.99,5.52,45.93,5.03,68.52-2.1c4.32-1.36,8.5-3.84,12.1-6.63c4-3.11,4.03-8.44,0.25-11.79
			c-4.77-4.24-10.04-7.86-17.09-5.49c-1.23,0.41-2.55,0.58-4.17,0.93c-1.53-4.1-3.03-8.11-4.85-12.97
			c9.88,2.28,19.13,4.42,28.94,6.68c-1.52,0.82-2.72,1.46-4.27,2.29c2.98,1.98,5.99,3.64,8.61,5.79c7.67,6.3,7.79,13.56-0.23,19.43
			c-4.35,3.18-9.45,5.83-14.62,7.31c-32.89,9.39-65.73,9.54-98.17-2.1c-5.07-1.82-9.98-4.67-14.26-7.98
			c-5.8-4.49-6.41-10.68-1.74-16.24c8.08-9.62,19.37-13.71,31.12-16.7c0.83-0.21,1.99,0.22,2.79,0.7
			C527.2,515.74,531.66,518.61,536.94,521.94z"/>
		<path d="M539.85,502.03c6.17-17.21,12.15-33.91,18.45-51.47c6.57,17.46,12.84,34.14,19.27,51.25c-4.64,0.29-8.85,0.55-13.52,0.84
			c0.69,16.38,1.37,32.29,2.08,49.09c-4.89,0-9.34,0.25-13.71-0.2c-0.94-0.1-2.34-2.79-2.3-4.25c0.41-12.98,1.11-25.95,1.7-38.93
			c0.08-1.79,0.01-3.59,0.01-5.71C547.78,502.45,544.04,502.25,539.85,502.03z"/>
		<path d="M569.26,614.99c-7.71,0-14.63,0-21.98,0c0.76-16.91,1.49-33.27,2.23-49.74c5.87,0,11.17,0,17.34,0
			C567.65,581.68,568.44,598.03,569.26,614.99z"/>
	</g>
</g>
</svg>
