<?xml version="1.0" standalone="no"?>
<!DOCTYPE svg PUBLIC "-//W3C//DTD SVG 20010904//EN"
 "http://www.w3.org/TR/2001/REC-SVG-20010904/DTD/svg10.dtd">
<svg version="1.0" xmlns="http://www.w3.org/2000/svg"
 width="300.000000pt" height="300.000000pt" viewBox="0 0 300.000000 300.000000"
 preserveAspectRatio="xMidYMid meet">
<metadata>
Created by potrace 1.10, written by Peter Selinger 2001-2011
</metadata>
<g transform="translate(0.000000,300.000000) scale(0.100000,-0.100000)"
fill="#000000" stroke="none">
<path d="M1350 2557 c0 -5 14 -42 31 -83 17 -41 29 -77 26 -80 -3 -3 -31 8
-63 24 -33 16 -69 33 -81 36 l-23 7 0 -150 c0 -83 1 -151 3 -151 2 0 41 16 86
36 46 19 84 34 85 32 4 -4 -60 -136 -86 -177 -13 -21 -21 -50 -21 -76 0 -43 0
-43 -24 -28 -19 13 -29 14 -49 4 -20 -9 -28 -8 -40 4 -20 20 -53 19 -76 -2
-14 -13 -21 -14 -30 -5 -20 20 -66 14 -85 -11 -15 -21 -21 -22 -45 -13 -23 8
-32 7 -55 -10 -22 -17 -33 -19 -51 -11 -15 7 -30 7 -46 -1 -20 -9 -27 -7 -47
14 -28 30 -77 32 -113 3 -24 -19 -27 -19 -48 -5 -12 9 -32 16 -44 16 -29 0
-74 -37 -74 -61 0 -23 -8 -24 -34 -4 -24 18 -75 19 -98 1 -23 -17 -38 -59 -31
-84 5 -20 3 -20 -26 -9 -26 9 -37 9 -59 -3 -41 -24 -59 -63 -45 -100 11 -30
11 -30 -21 -30 -46 0 -76 -35 -76 -87 0 -33 6 -46 26 -62 25 -19 25 -21 6 -21
-27 0 -62 -46 -62 -82 0 -33 39 -78 67 -78 16 -1 16 -2 -2 -12 -32 -17 -45
-39 -45 -75 0 -41 38 -83 75 -83 25 0 34 -14 15 -25 -6 -3 -10 -22 -10 -41 0
-39 36 -84 67 -84 13 -1 8 -9 -21 -35 -21 -19 -36 -39 -35 -44 2 -6 46 -49 98
-96 65 -60 101 -85 118 -85 14 0 31 -6 37 -14 9 -13 21 -12 86 5 131 33 460
97 620 121 218 31 510 31 735 -1 158 -22 469 -83 615 -120 65 -17 77 -18 86
-5 6 8 23 14 37 14 19 0 53 24 122 86 52 47 95 92 95 100 0 7 -13 23 -30 36
-16 12 -30 24 -30 27 0 3 14 14 30 23 42 24 56 64 36 105 -15 33 -15 33 9 33
29 0 73 37 76 65 5 37 -11 74 -39 89 -20 11 -22 15 -9 16 28 0 67 45 67 78 0
36 -34 82 -61 82 -18 0 -17 3 7 24 57 49 22 146 -53 146 -30 0 -33 2 -23 19
38 72 -40 149 -111 110 -18 -9 -19 -7 -13 15 6 26 -9 63 -35 83 -25 19 -78 16
-101 -7 -18 -18 -20 -19 -20 -2 0 54 -77 89 -125 58 -24 -16 -27 -16 -52 4
-35 27 -78 26 -109 -5 -21 -21 -28 -23 -50 -13 -20 9 -30 9 -45 0 -17 -11 -24
-9 -47 8 -19 16 -35 20 -57 16 -23 -5 -35 -1 -48 14 -19 22 -66 27 -85 8 -9
-9 -16 -8 -30 5 -23 21 -50 22 -72 2 -14 -13 -22 -14 -42 -4 -19 8 -31 8 -47
0 -19 -11 -21 -9 -21 14 0 29 -24 92 -44 115 -15 16 -69 140 -64 145 2 2 39
-12 82 -31 44 -19 82 -34 85 -34 3 0 6 68 6 150 0 83 -3 150 -7 150 -4 0 -42
-16 -84 -35 -42 -19 -79 -34 -81 -32 -2 3 10 38 27 80 16 41 30 79 30 84 0 4
-65 8 -145 8 -80 0 -145 -4 -145 -8z m239 -69 c-41 -104 -57 -148 -54 -148 2
0 47 20 99 44 l96 45 0 -115 c0 -63 -3 -114 -8 -114 -12 0 -156 61 -170 73
-24 19 -22 -1 8 -68 17 -37 28 -70 26 -72 -2 -3 -13 0 -24 6 -12 6 -42 11 -67
11 -25 0 -55 -5 -67 -11 -11 -6 -22 -9 -24 -6 -2 2 9 34 26 70 16 37 30 69 30
71 0 2 -41 -13 -91 -35 -49 -21 -93 -39 -97 -39 -4 0 -7 50 -7 110 0 61 3 110
7 110 4 0 47 -18 94 -40 97 -45 98 -45 91 -27 -3 6 -21 51 -40 100 l-35 87
114 0 114 0 -21 -52z m-24 -382 c80 -34 114 -152 66 -230 -82 -132 -293 -76
-293 78 0 73 41 136 102 159 28 10 91 7 125 -7z m-385 -171 c20 -25 8 -50 -25
-50 -21 0 -31 5 -33 18 -4 21 14 47 33 47 7 0 18 -7 25 -15z m680 0 c20 -25 8
-50 -25 -50 -21 0 -31 5 -33 18 -4 21 14 47 33 47 7 0 18 -7 25 -15z m-785 -8
c26 -20 13 -67 -18 -67 -43 0 -60 35 -31 64 19 19 25 20 49 3z m889 0 c26 -19
18 -61 -12 -65 -45 -7 -72 46 -34 67 22 13 25 13 46 -2z m-676 -23 c2 -11 -4
-26 -12 -33 -31 -26 -71 14 -45 45 17 21 53 14 57 -12z m479 10 c8 -22 -10
-49 -32 -49 -10 0 -22 7 -28 16 -15 24 -1 49 28 49 15 0 28 -7 32 -16z m-1021
-29 c21 -33 6 -72 -31 -81 -50 -13 -86 53 -49 90 24 24 61 20 80 -9z m1575 15
c38 -21 15 -100 -28 -100 -45 0 -73 78 -35 99 22 13 39 13 63 1z m-1733 -16
c26 -18 28 -50 5 -76 -22 -25 -59 -23 -77 4 -21 30 -20 44 4 68 24 24 38 25
68 4z m390 4 c29 -29 7 -78 -34 -78 -42 0 -63 59 -30 82 17 12 51 9 64 -4z
m1114 -13 c9 -21 8 -28 -7 -45 -40 -44 -104 -3 -76 49 17 31 68 29 83 -4z
m376 9 c26 -18 28 -50 5 -76 -20 -22 -51 -23 -75 -1 -24 21 -23 48 2 73 24 24
38 25 68 4z m-1601 -20 c2 -7 -12 -14 -34 -16 -44 -6 -48 -4 -39 17 7 19 67
17 73 -1z m1330 1 c8 -21 4 -23 -39 -18 -26 4 -35 9 -31 19 7 19 62 18 70 -1z
m-513 -14 c3 -5 -10 -28 -29 -51 -19 -23 -35 -46 -35 -52 0 -5 -4 -6 -10 -3
-19 12 -10 40 27 77 41 42 40 41 47 29z m-1253 -11 c25 -14 25 -62 -1 -85 -45
-40 -109 20 -75 71 17 26 44 30 76 14z m932 -28 c34 -35 36 -40 22 -57 -11
-15 -14 -16 -15 -5 0 8 -12 29 -28 46 l-27 31 -95 -13 c-115 -15 -169 -33
-236 -79 -96 -66 -133 -177 -99 -303 23 -87 76 -202 120 -263 19 -27 35 -53
35 -57 0 -11 -90 -76 -96 -69 -3 2 13 19 35 36 l40 32 -43 62 c-93 134 -142
269 -133 373 13 172 168 284 392 284 43 0 75 4 75 10 0 19 16 10 53 -28z
m1273 13 c21 -33 6 -72 -31 -81 -50 -13 -86 53 -49 90 24 24 61 20 80 -9z
m-1758 -11 c26 -18 28 -50 5 -76 -22 -25 -59 -23 -77 4 -21 30 -20 44 4 68 24
24 38 25 68 4z m1015 0 c201 -52 291 -193 246 -382 -16 -66 -89 -218 -131
-273 l-35 -45 39 -33 c52 -44 41 -52 -14 -10 -24 19 -45 35 -47 36 -2 2 10 23
28 48 44 61 106 196 126 275 55 212 -60 345 -330 385 l-90 13 74 1 c40 1 100
-6 134 -15z m287 -4 c11 -11 20 -28 20 -37 0 -23 -30 -53 -53 -53 -26 0 -57
28 -57 52 0 22 34 58 55 58 8 0 24 -9 35 -20z m-1444 -70 c-19 -28 -40 -68
-46 -88 -22 -73 -23 -187 -5 -308 11 -73 15 -137 11 -173 -3 -31 -7 -67 -9
-80 -2 -20 5 -26 45 -37 26 -8 50 -19 54 -26 5 -8 0 -9 -17 -4 -13 5 -46 13
-72 19 -37 9 -46 15 -41 27 16 41 16 164 -1 266 -25 151 -17 247 30 357 6 14
2 17 -27 17 -44 0 -177 -34 -218 -55 -86 -45 -156 -143 -167 -235 -12 -100 70
-270 156 -325 32 -21 41 -45 17 -45 -34 0 -116 93 -158 178 -40 79 -43 91 -43
166 0 71 4 88 29 134 36 63 97 122 163 156 52 26 179 56 238 56 28 0 42 7 62
30 39 47 39 28 -1 -30z m1623 -5 c181 -17 300 -89 367 -222 23 -46 26 -62 23
-131 -3 -63 -10 -90 -37 -144 -49 -100 -155 -208 -179 -184 -3 3 21 32 54 64
115 113 162 267 115 374 -53 121 -173 197 -339 214 l-62 7 20 -54 c30 -79 35
-203 14 -333 -17 -102 -16 -192 1 -253 5 -19 2 -23 -15 -23 -11 0 -43 -9 -71
-19 -27 -11 -50 -16 -50 -12 0 9 66 41 85 41 23 0 26 17 14 79 -11 52 -10 80
6 191 29 206 12 338 -55 422 -40 49 -38 60 3 21 28 -26 42 -32 106 -38z
m-1036 31 c17 -44 29 -191 24 -290 -7 -121 -30 -221 -70 -310 -26 -55 -26 -57
-7 -69 27 -16 25 -31 -5 -47 -21 -11 -32 -11 -60 -1 -38 14 -75 2 -75 -25 0
-24 -26 -27 -70 -8 -49 22 -51 39 -5 58 19 8 35 19 35 25 0 6 -20 39 -45 75
-118 168 -164 350 -114 453 21 43 79 92 136 114 90 35 247 50 256 25z m107
-223 c0 -243 -11 -390 -30 -421 -9 -14 -10 -10 -6 18 3 19 8 171 12 338 4 166
11 302 16 302 4 0 8 -107 8 -237z m104 215 c24 -40 -44 -80 -71 -42 -17 23
-16 29 3 49 20 20 53 16 68 -7z m59 -538 c7 -135 -9 -130 -23 8 -12 105 -13
536 -2 546 4 4 10 -93 14 -216 3 -122 9 -275 11 -338z m238 546 c190 -41 259
-116 246 -270 -10 -116 -50 -213 -132 -324 -25 -35 -44 -70 -41 -77 2 -7 21
-18 40 -25 20 -6 36 -16 36 -21 0 -11 -73 -49 -95 -49 -8 0 -20 11 -24 24 -12
31 -36 39 -76 24 -28 -10 -37 -9 -59 6 -31 20 -33 32 -6 41 26 8 25 15 -6 76
-59 118 -87 330 -65 490 18 123 15 119 69 119 26 0 77 -7 113 -14z m-1529 -33
c10 -9 18 -26 18 -39 0 -23 -33 -54 -57 -54 -18 0 -53 37 -53 55 0 20 36 55
57 55 9 0 25 -7 35 -17z m2460 0 c10 -9 18 -25 18 -36 0 -26 -28 -57 -52 -57
-22 0 -58 34 -58 55 0 20 36 55 57 55 9 0 25 -7 35 -17z m-1947 -47 c32 -48
-32 -100 -75 -61 -24 22 -26 48 -4 69 23 24 61 20 79 -8z m1448 3 c28 -44 -25
-95 -72 -69 -24 12 -29 58 -9 78 17 17 68 11 81 -9z m-1616 -16 c-41 -130 -48
-237 -22 -333 20 -73 19 -197 -1 -256 -19 -55 -15 -59 62 -69 30 -3 56 -11 59
-16 8 -12 -45 -100 -56 -93 -5 3 -16 18 -24 35 -18 35 -62 40 -89 10 -14 -15
-26 -18 -59 -14 -52 7 -87 20 -87 31 0 5 18 22 40 37 22 15 40 33 40 40 0 7
-25 33 -55 57 -109 90 -146 156 -153 271 -3 57 0 89 12 122 32 82 118 147 236
179 78 21 104 20 97 -1z m1838 -13 c118 -40 184 -112 206 -222 22 -109 -37
-243 -145 -329 -72 -57 -73 -62 -24 -103 50 -43 44 -53 -33 -65 -47 -8 -57 -7
-75 10 -11 10 -32 19 -47 19 -21 0 -31 -8 -44 -35 -9 -19 -19 -35 -22 -35 -8
0 -51 82 -51 96 0 7 24 15 53 18 78 10 82 14 63 70 -20 59 -21 177 -1 253 26
100 20 202 -21 332 -7 23 -6 24 40 17 26 -4 71 -16 101 -26z m-955 -20 c15
-28 -4 -60 -35 -60 -14 0 -29 8 -35 20 -15 28 4 60 35 60 14 0 29 -8 35 -20z
m-1315 -54 c33 -50 -31 -110 -75 -71 -22 20 -26 65 -8 83 21 21 66 14 83 -12z
m2642 12 c21 -27 21 -47 2 -72 -24 -30 -45 -33 -71 -9 -20 18 -24 63 -6 81 16
16 63 15 75 0z m-2076 -18 c26 -15 25 -64 -2 -84 -23 -16 -47 -12 -66 12 -18
22 -16 39 7 62 23 23 33 24 61 10z m1493 -9 c38 -41 -5 -102 -54 -78 -14 7
-26 23 -28 36 -4 26 23 61 48 61 9 0 25 -9 34 -19z m-744 -51 c15 -28 -4 -60
-35 -60 -14 0 -29 8 -35 20 -15 28 4 60 35 60 14 0 29 -8 35 -20z m-1342 -93
c17 -13 15 -52 -4 -71 -37 -37 -103 -1 -90 49 10 40 57 51 94 22z m616 7 c34
-34 11 -84 -39 -84 -35 0 -55 20 -55 54 0 22 28 46 55 46 13 0 31 -7 39 -16z
m1464 4 c7 -7 12 -24 12 -38 0 -33 -17 -50 -49 -50 -28 0 -61 26 -61 48 0 41
69 69 98 40z m626 -31 c19 -53 -50 -90 -89 -47 -36 39 8 99 60 80 11 -4 24
-19 29 -33z m-1364 -7 c12 -22 4 -46 -17 -54 -46 -18 -81 35 -44 65 25 20 47
16 61 -11z m-700 -100 c11 -11 20 -26 20 -33 0 -23 -31 -57 -52 -57 -27 0 -58
28 -58 52 0 22 34 58 55 58 8 0 24 -9 35 -20z m1398 4 c28 -20 30 -69 3 -84
-31 -16 -59 -12 -75 12 -21 30 -20 44 4 68 24 24 38 25 68 4z m-698 -24 c12
-22 4 -46 -17 -54 -46 -18 -81 35 -44 65 25 20 47 16 61 -11z m-1330 -20 c24
-24 25 -38 4 -68 -29 -41 -94 -19 -94 33 0 24 33 55 57 55 7 0 22 -9 33 -20z
m2664 1 c26 -29 17 -73 -17 -85 -36 -13 -61 2 -65 38 -4 31 22 66 48 66 9 0
25 -9 34 -19z m-1180 -129 c3 -9 -1 -25 -9 -35 -11 -15 -17 -16 -34 -7 -18 9
-21 20 -21 84 0 40 3 76 7 80 6 5 42 -70 57 -122z m-314 43 c0 -62 -3 -76 -18
-84 -22 -12 -42 3 -42 30 0 25 41 129 51 129 5 0 9 -34 9 -75z m-437 -4 c37
-58 38 -60 22 -85 -25 -37 -43 -24 -38 28 4 36 1 47 -21 71 -23 25 -27 45 -8
45 4 0 24 -27 45 -59z m1182 50 c3 -6 -5 -19 -17 -31 -18 -16 -23 -32 -23 -70
0 -57 -10 -71 -30 -44 -21 28 -19 41 21 100 37 57 40 59 49 45z m-545 -106 c0
-6 -7 -21 -16 -33 -16 -23 -16 -23 19 -17 30 6 40 3 61 -19 64 -63 -8 -130
-95 -90 -35 15 -45 16 -72 5 -57 -24 -81 -24 -110 -1 -34 27 -34 54 -1 87 22
22 31 24 65 19 l39 -6 -20 20 c-28 28 -25 47 9 64 16 9 31 22 35 31 5 14 13
11 46 -17 22 -18 40 -38 40 -43z m-708 53 c32 -25 23 -82 -15 -92 -29 -7 -67
19 -67 46 0 45 48 72 82 46z m1330 -5 c26 -23 23 -59 -7 -79 -23 -15 -27 -15
-50 0 -44 29 -28 95 24 96 8 0 23 -7 33 -17z m-1905 -59 c15 -24 15 -29 2 -53
-18 -32 -54 -39 -80 -15 -23 21 -24 51 -2 76 24 26 59 23 80 -8z m2510 -3 c26
-54 -40 -107 -81 -65 -21 21 -20 70 2 83 28 17 65 8 79 -18z m-2414 -56 c37
-26 37 -26 21 -56 -8 -17 -18 -29 -22 -27 -4 2 -23 12 -43 21 l-37 16 17 35
c9 20 18 35 21 36 3 0 22 -11 43 -25z m2290 -10 l17 -35 -38 -17 c-20 -9 -40
-19 -44 -21 -4 -2 -13 9 -21 25 -15 27 -14 29 16 55 42 36 50 35 70 -7z
m-1779 0 c35 -15 47 -37 26 -50 -19 -12 -11 -26 9 -15 46 24 91 6 91 -36 0
-36 -37 -55 -90 -48 -38 5 -48 3 -64 -15 -28 -31 -79 -28 -94 4 -11 23 -9 29
13 50 13 14 34 25 46 25 l21 0 -22 18 -23 19 23 31 c13 18 25 32 26 32 1 0 18
-7 38 -15z m1264 -15 c28 -37 27 -44 0 -58 -18 -8 -19 -11 -6 -11 29 -1 67
-23 73 -42 17 -53 -61 -82 -101 -38 -16 18 -26 20 -66 15 -39 -6 -51 -3 -68
14 -24 24 -25 43 -4 64 18 19 47 20 76 5 17 -9 20 -9 15 2 -3 8 -8 22 -12 31
-5 13 1 21 27 32 44 19 41 20 66 -14z m-870 -76 c19 -25 31 -48 28 -51 -3 -4
-32 -2 -63 4 -53 10 -61 8 -117 -18 -58 -28 -86 -35 -86 -24 0 11 74 105 83
105 4 0 17 -5 28 -11 26 -13 56 -3 64 22 10 30 27 22 63 -27z m487 20 c12 -18
22 -24 36 -20 10 3 27 9 38 12 14 4 27 -7 56 -46 20 -28 35 -54 31 -57 -3 -4
-37 7 -74 23 -61 27 -72 28 -125 20 -31 -5 -60 -7 -63 -3 -7 7 64 97 76 97 4
0 15 -12 25 -26z m-1452 -15 c38 -10 46 -26 25 -47 -20 -20 -1 -25 26 -6 21
13 34 15 59 8 40 -12 44 -31 15 -75 -36 -52 -55 -49 -133 23 -64 60 -67 65
-54 86 16 26 13 25 62 11z m2409 -12 c15 -21 12 -25 -55 -85 -80 -71 -99 -75
-134 -23 -29 43 -29 55 2 69 35 16 55 15 77 -5 22 -19 36 -10 18 12 -21 25 5
46 66 54 7 0 18 -9 26 -22z m-2152 -72 c14 -17 56 -20 65 -5 10 16 33 11 75
-16 63 -42 46 -61 -24 -27 -35 16 -35 16 -71 -15 -28 -26 -45 -32 -80 -32 -24
0 -47 4 -50 10 -7 11 51 100 64 100 5 0 14 -7 21 -15z m1870 6 c0 -5 12 -23
26 -40 35 -42 26 -61 -30 -61 -36 0 -52 6 -81 31 -35 31 -36 31 -69 15 -45
-21 -73 -22 -56 -1 7 8 28 25 47 36 29 18 39 20 54 11 26 -16 54 -15 69 3 14
17 40 20 40 6z"/>
<path d="M1204 2320 c0 -52 1 -74 3 -47 2 26 2 68 0 95 -2 26 -3 4 -3 -48z"/>
<path d="M1370 839 c-234 -17 -494 -58 -762 -120 -92 -22 -138 -37 -138 -46 0
-16 5 -16 66 2 238 70 730 145 957 145 212 0 549 -47 842 -116 169 -41 184
-43 185 -29 3 31 -595 143 -855 160 -49 3 -110 7 -135 9 -25 2 -97 -1 -160 -5z"/>
<path d="M1262 784 c-226 -25 -537 -81 -729 -133 l-40 -11 28 -57 c16 -32 29
-64 29 -70 0 -17 -10 -18 154 16 328 68 678 107 876 98 199 -10 528 -57 758
-108 51 -12 95 -19 96 -17 2 1 17 33 34 70 l31 68 -37 9 c-264 69 -477 107
-757 136 -167 17 -278 17 -443 -1z m133 -25 c10 -16 -4 -76 -21 -94 -13 -12
-19 -13 -30 -4 -18 15 -18 31 0 74 15 34 38 45 51 24z m145 -28 c0 -44 -29
-89 -50 -76 -15 9 -8 78 10 100 23 28 40 17 40 -24z m146 13 c8 -31 -19 -94
-40 -94 -30 0 -29 67 2 103 21 24 31 21 38 -9z m-432 -38 c-11 -42 -28 -67
-43 -64 -30 6 -26 72 6 103 16 16 17 16 30 -1 7 -10 11 -27 7 -38z m576 5 c0
-42 -29 -89 -48 -77 -17 10 -15 68 4 94 24 35 44 28 44 -17z m-722 -4 c4 -32
-23 -87 -43 -87 -21 0 -20 69 1 98 20 29 38 24 42 -11z m870 -10 c4 -32 -23
-87 -43 -87 -20 0 -28 40 -15 75 19 51 53 58 58 12z m-1018 -26 c0 -44 -29
-89 -50 -76 -15 9 -8 78 10 100 23 28 40 17 40 -24z m1158 -3 c2 -23 -3 -43
-16 -58 -27 -33 -46 -18 -39 32 10 71 49 91 55 26z m-1303 1 c13 -39 -13 -99
-41 -99 -20 0 -18 70 2 98 19 28 31 28 39 1z m1455 -21 c0 -28 -28 -78 -44
-78 -30 0 -29 67 2 102 18 21 42 7 42 -24z m-1602 -22 c5 -39 -17 -88 -37 -84
-22 4 -25 50 -6 88 19 37 39 35 43 -4z m1740 -18 c3 -38 -26 -86 -46 -74 -29
18 1 123 31 113 7 -2 13 -19 15 -39z"/>
<path d="M1321 599 c-171 -15 -404 -49 -580 -85 -96 -19 -177 -37 -179 -39 -3
-2 -2 -11 1 -19 5 -12 13 -13 39 -5 49 14 337 65 468 83 163 22 332 36 426 36
202 0 753 -76 917 -126 12 -4 17 0 17 14 0 23 8 20 -200 61 -261 51 -615 92
-755 90 -33 -1 -102 -5 -154 -10z"/>
</g>
</svg>
