<?xml version="1.0" standalone="no"?>
<!DOCTYPE svg PUBLIC "-//W3C//DTD SVG 20010904//EN"
 "http://www.w3.org/TR/2001/REC-SVG-20010904/DTD/svg10.dtd">
<svg version="1.0" xmlns="http://www.w3.org/2000/svg"
 width="612.000000pt" height="612.000000pt" viewBox="0 0 612.000000 612.000000"
 preserveAspectRatio="xMidYMid meet">
<metadata>
Created by potrace 1.10, written by Peter Selinger 2001-2011
</metadata>
<g transform="translate(0.000000,612.000000) scale(0.100000,-0.100000)"
fill="#606060" stroke="none">
<path d="M2901 5258 c-85 -69 -135 -165 -511 -978 -34 -74 -86 -184 -115 -245
-108 -225 -184 -391 -200 -441 -19 -60 -12 -85 40 -143 62 -68 85 -73 376 -69
l256 3 37 28 c64 50 90 100 94 184 3 40 1 85 -3 100 -3 14 -38 59 -77 99 -62
65 -70 76 -64 100 4 15 45 108 92 206 46 98 84 181 84 185 0 15 52 73 66 73
16 0 178 -322 208 -413 26 -78 22 -93 -38 -148 -70 -64 -91 -115 -83 -205 6
-75 34 -124 100 -178 l39 -31 267 0 268 0 42 30 c53 36 91 90 91 128 0 45 -36
142 -112 297 -38 80 -99 208 -134 285 -78 169 -71 154 -189 398 -52 109 -95
200 -95 203 0 2 -32 71 -71 152 -39 81 -84 176 -101 210 -48 100 -156 212
-204 212 -6 0 -35 -19 -63 -42z m104 -80 c34 -81 53 -123 88 -198 19 -42 45
-100 57 -130 13 -30 29 -62 37 -71 7 -8 13 -20 13 -26 0 -6 25 -59 54 -119 74
-147 158 -328 181 -387 10 -26 22 -50 26 -53 5 -3 9 -13 9 -23 0 -10 7 -24 15
-31 8 -7 15 -21 15 -31 0 -9 7 -24 15 -33 8 -8 15 -21 15 -29 0 -8 7 -20 15
-27 8 -7 15 -18 15 -25 0 -6 10 -32 23 -56 21 -39 51 -104 142 -304 15 -33 31
-62 34 -65 4 -3 12 -18 19 -34 16 -36 2 -49 -42 -41 -16 3 -150 5 -298 5
l-269 0 3 118 3 117 50 0 c28 0 85 -4 127 -8 l77 -9 -6 24 c-4 13 -14 34 -25
47 -10 13 -18 30 -18 37 0 8 -4 14 -8 14 -8 0 -19 22 -65 130 -34 79 -58 131
-142 305 -126 261 -128 265 -155 344 -28 82 -45 98 -55 52 -4 -17 -11 -31 -16
-31 -5 0 -9 -9 -9 -19 0 -11 -6 -32 -14 -48 -15 -28 -69 -145 -120 -256 -14
-32 -26 -60 -26 -63 0 -12 -213 -436 -236 -470 -29 -42 -28 -70 1 -66 107 14
217 23 229 19 11 -4 14 -31 14 -121 l0 -115 -307 -3 c-207 -2 -310 0 -319 8
-10 8 -9 15 6 35 24 30 112 196 112 210 0 6 7 17 15 25 8 9 15 24 15 33 0 10
7 24 15 31 8 7 15 17 15 23 0 5 12 35 26 66 31 66 82 175 114 246 12 28 65
136 116 242 52 106 94 195 94 198 0 3 14 36 31 73 37 81 64 142 73 162 3 8 10
22 15 30 5 8 12 22 15 30 3 8 10 22 15 30 5 8 12 22 15 30 3 8 10 22 15 30 5
8 12 22 15 30 3 8 10 22 14 30 26 47 42 84 42 99 0 22 28 61 44 61 7 0 21 -19
31 -42z"/>
<path d="M1137 3323 c-155 -116 -208 -154 -221 -159 -8 -3 -37 16 -66 41 -89
79 -123 80 -196 6 -23 -22 -50 -41 -61 -41 -11 0 -45 20 -77 44 -104 81 -144
81 -228 -1 -64 -63 -71 -98 -65 -333 5 -228 12 -259 68 -316 74 -76 117 -75
194 5 21 22 47 41 57 41 9 0 32 -13 50 -29 61 -53 110 -81 142 -81 37 0 85 33
136 92 l36 41 41 -29 c22 -16 69 -49 104 -73 35 -24 84 -59 108 -78 24 -18 54
-33 66 -33 12 0 52 21 89 48 36 26 100 69 142 96 l75 49 27 -22 c124 -100 135
-101 214 -31 31 28 62 50 70 50 22 0 118 -90 118 -111 0 -11 -21 -45 -46 -76
-56 -69 -74 -109 -74 -165 0 -75 19 -118 77 -179 65 -68 100 -83 193 -77 81 4
121 30 178 115 32 49 37 63 37 117 0 89 -51 188 -120 233 -55 37 -79 71 -63
90 16 20 40 15 82 -17 62 -47 98 -42 161 23 61 63 75 111 75 263 0 85 3 106
15 111 9 3 19 2 23 -1 4 -4 9 -69 13 -145 5 -132 7 -140 38 -195 18 -31 31
-63 28 -70 -3 -7 -20 -16 -38 -20 -103 -20 -181 -158 -165 -290 15 -114 115
-221 182 -195 18 6 55 8 95 4 l66 -7 41 39 c47 45 60 84 42 127 -7 17 -16 64
-21 105 -6 61 -14 82 -46 130 -21 31 -40 60 -41 64 -2 4 18 29 45 55 26 26 62
65 79 86 l31 39 40 -54 c22 -30 52 -65 67 -78 32 -30 33 -48 2 -80 -14 -15
-41 -53 -60 -85 -58 -96 -49 -179 31 -272 58 -69 123 -98 210 -92 77 5 128 37
185 118 54 77 61 142 24 220 -36 76 -91 130 -173 170 -45 22 -50 27 -42 48 11
30 60 29 102 -1 45 -34 107 -56 189 -67 40 -6 73 -12 75 -14 2 -2 -10 -32 -27
-67 -26 -55 -30 -76 -30 -145 0 -70 4 -89 28 -135 54 -104 164 -154 255 -115
44 18 124 109 137 154 13 47 13 147 0 193 -12 42 -84 129 -107 129 -9 0 -31
-9 -49 -21 -39 -23 -61 -20 -94 17 l-24 25 61 61 c72 72 80 72 163 3 37 -30
78 -53 125 -68 74 -23 90 -43 62 -75 -38 -45 -48 -159 -23 -266 11 -47 23 -68
59 -104 36 -35 50 -43 69 -39 31 8 80 56 152 147 103 133 107 169 26 265 -28
33 -50 65 -50 71 0 17 48 54 70 54 9 0 34 -11 54 -25 21 -14 51 -25 69 -25 43
0 105 45 151 110 20 28 42 50 49 50 8 0 38 -28 67 -61 89 -102 138 -119 224
-77 l44 21 51 -27 c47 -24 54 -25 84 -13 60 26 127 121 127 183 0 43 29 94 59
100 14 4 41 16 59 27 47 28 55 14 62 -96 5 -86 7 -96 41 -142 57 -81 92 -95
234 -95 155 0 182 8 239 71 62 69 63 102 1 172 -25 29 -45 60 -45 69 0 10 16
42 35 72 35 51 36 55 25 98 -10 40 -9 50 9 86 35 68 29 103 -27 160 -57 58
-102 72 -240 72 -111 0 -140 -9 -201 -60 -56 -47 -67 -47 -126 0 -51 41 -97
53 -200 54 -97 1 -107 -3 -171 -61 -49 -44 -64 -75 -77 -159 -13 -85 -27 -101
-47 -55 -22 54 -114 178 -158 215 -64 53 -85 49 -160 -31 -50 -53 -76 -94
-127 -198 -35 -73 -70 -137 -77 -142 -9 -8 -25 -7 -57 4 -43 14 -46 14 -124
-17 -49 -19 -89 -29 -103 -26 -25 7 -74 54 -74 71 0 13 39 78 52 86 14 9 97
-9 143 -31 57 -28 73 -25 129 18 109 82 112 127 15 227 -91 95 -205 131 -332
105 -73 -15 -129 -45 -198 -106 -27 -24 -56 -44 -63 -44 -7 0 -39 24 -72 54
-139 125 -283 127 -435 5 -33 -26 -57 -20 -111 29 -60 55 -98 51 -172 -15 -74
-66 -88 -69 -128 -30 -99 95 -134 106 -187 61 -35 -29 -70 -27 -107 7 -30 28
-138 43 -258 36 -87 -6 -104 -10 -139 -34 -87 -61 -78 -60 -135 -21 -35 25
-71 39 -115 47 -132 23 -180 14 -252 -50 -31 -27 -62 -49 -69 -49 -13 0 -174
104 -250 163 -27 20 -54 37 -61 37 -6 0 -46 -26 -88 -57z m118 -67 l0 -69 50
-12 c94 -21 146 -65 195 -160 26 -51 29 -215 5 -235 -8 -7 -15 -19 -15 -26 0
-20 -107 -124 -128 -124 -10 0 -27 -6 -38 -14 -11 -8 -31 -16 -44 -18 -24 -3
-25 -6 -22 -60 4 -64 -8 -79 -48 -58 -18 10 -21 17 -16 43 13 66 12 72 -14 75
-13 2 -33 10 -44 18 -11 8 -28 14 -38 14 -32 0 -133 110 -151 164 -59 173 38
342 218 382 43 10 45 15 29 93 -5 27 -3 37 12 48 37 27 49 13 49 -61z m2875
-79 c61 -16 157 -73 163 -97 6 -24 -19 -56 -50 -65 -18 -5 -30 1 -52 26 -74
80 -205 77 -286 -7 -36 -37 -65 -99 -65 -139 0 -31 32 -113 51 -134 48 -51 95
-71 168 -71 69 0 70 0 114 45 50 50 57 52 92 29 52 -34 26 -78 -79 -133 -51
-27 -69 -31 -135 -31 -51 1 -82 5 -95 15 -11 8 -27 15 -35 15 -27 0 -108 78
-129 123 -26 57 -42 146 -31 175 5 13 9 36 9 51 0 16 7 34 15 41 8 7 15 17 15
22 0 19 62 89 93 105 48 24 150 52 172 46 11 -3 40 -10 65 -16z m-3679 -30
c10 -12 18 -26 19 -30 0 -5 14 -28 30 -52 17 -24 30 -49 30 -55 0 -6 6 -13 14
-16 8 -3 17 -13 20 -22 7 -21 22 -45 59 -93 15 -20 27 -41 27 -45 1 -5 12 -22
25 -39 21 -24 27 -27 34 -15 6 8 8 17 5 21 -2 4 -8 87 -14 185 -10 199 -11
196 55 192 l40 -3 -1 -285 0 -285 -49 0 c-47 0 -49 1 -73 45 -14 25 -38 61
-53 81 -16 20 -29 40 -29 44 0 4 -13 24 -28 44 -16 20 -32 43 -35 51 -9 20
-29 51 -44 68 -7 7 -13 19 -13 26 0 19 -47 59 -54 47 -4 -5 -2 -29 3 -53 5
-24 11 -113 13 -198 l3 -155 -49 0 -49 0 -1 282 c-1 180 3 285 9 288 23 10 88
-7 106 -28z m1469 1 c41 -32 60 -70 60 -119 0 -51 -18 -81 -60 -102 -14 -7
-24 -20 -24 -29 1 -8 24 -44 53 -80 28 -36 51 -70 51 -76 0 -6 6 -15 13 -19
28 -18 89 -103 83 -118 -9 -24 -69 -19 -98 8 -39 36 -178 232 -191 270 -5 12
-17 17 -44 17 l-38 0 4 -150 c3 -145 3 -150 -17 -150 -11 0 -26 -2 -34 -5 -38
-14 -40 3 -39 291 1 153 4 280 6 283 2 3 59 4 126 2 104 -3 128 -6 149 -23z
m581 15 c6 -6 9 -26 7 -44 l-3 -34 -84 -1 -84 0 2 -241 c2 -226 1 -242 -16
-247 -10 -3 -31 -2 -48 2 l-30 8 3 195 c2 107 5 213 9 237 l5 42 -76 0 c-64 0
-77 3 -86 19 -14 26 -13 47 3 63 17 16 382 17 398 1z m215 -81 c0 -51 5 -96
10 -100 5 -4 65 -6 132 -4 l124 3 -7 62 c-3 34 -8 74 -11 89 -5 23 -1 30 19
39 14 6 40 9 59 5 l33 -6 -1 -282 -1 -283 -33 -6 c-19 -4 -44 -3 -57 2 -22 8
-24 13 -19 66 3 32 8 98 11 146 l6 88 -132 -3 -133 -3 3 -146 3 -147 -36 -4
c-20 -2 -41 -1 -47 3 -8 5 -15 402 -9 567 0 9 13 12 43 10 l42 -3 1 -93z m839
65 c38 -15 61 -30 63 -41 4 -20 -27 -86 -41 -86 -11 0 -60 32 -72 48 -7 8 -36
14 -78 15 -62 2 -70 0 -87 -23 -24 -31 -25 -63 -4 -81 23 -19 82 -40 129 -46
22 -3 49 -12 60 -19 11 -8 25 -14 32 -14 35 0 93 -83 93 -134 0 -49 -51 -115
-113 -145 -52 -25 -151 -28 -181 -6 -11 8 -28 15 -38 15 -10 0 -36 11 -58 25
-46 29 -53 62 -18 95 27 25 29 25 58 -2 91 -85 250 -74 250 18 0 38 -38 74
-79 74 -14 1 -37 7 -51 15 -14 8 -39 14 -55 15 -17 0 -36 5 -42 11 -6 6 -22
17 -35 23 -54 27 -74 129 -35 186 61 91 165 110 302 57z m1099 8 c9 -13 16
-33 16 -43 0 -11 7 -25 15 -32 8 -7 15 -23 15 -35 0 -12 7 -28 15 -35 8 -7 15
-20 15 -30 0 -10 7 -23 15 -30 8 -7 15 -20 15 -30 0 -10 7 -23 15 -30 8 -7 15
-20 15 -29 0 -9 4 -21 9 -26 5 -6 23 -44 41 -85 18 -41 39 -82 46 -91 19 -21
18 -55 -2 -63 -9 -4 -32 -4 -50 0 -27 5 -37 14 -52 48 -31 67 -89 208 -105
256 -18 53 -39 94 -50 100 -5 3 -19 -26 -31 -65 -13 -38 -49 -129 -80 -201
l-58 -132 -40 -6 c-67 -11 -73 5 -30 86 16 29 34 69 42 88 17 44 60 140 111
246 22 44 39 83 39 86 0 3 7 22 15 42 18 42 36 46 59 11z m517 15 l96 0 47
-41 c44 -39 46 -43 46 -94 0 -48 -3 -56 -41 -93 -41 -41 -41 -41 -127 -44
l-87 -3 5 -100 c2 -55 4 -120 5 -145 l0 -45 -48 -3 c-40 -3 -48 0 -55 17 -4
11 -4 82 0 158 4 76 4 194 1 261 -6 132 -2 148 42 137 11 -2 63 -5 116 -5z
m704 -40 l0 -45 -132 -1 c-73 0 -135 -3 -139 -6 -11 -12 -12 -77 0 -91 9 -12
30 -12 119 -5 60 6 111 7 114 4 4 -3 7 -25 7 -48 l1 -43 -125 0 c-94 0 -125
-3 -124 -12 1 -7 2 -54 3 -104 l1 -91 129 3 c87 3 134 0 141 -7 6 -6 10 -27 8
-45 l-3 -34 -182 -3 -183 -2 0 283 c0 156 2 286 4 288 2 2 85 4 183 4 l178 -1
0 -44z m-3745 -229 c18 -77 -4 -116 -43 -73 -36 40 -28 122 12 122 15 0 22
-11 31 -49z m8 -491 c9 -5 30 -15 45 -20 39 -14 35 -54 -7 -58 -16 -2 -33 1
-39 7 -6 6 -30 11 -52 11 -47 0 -79 -26 -90 -73 -21 -81 88 -154 145 -97 32
32 22 56 -25 62 -24 2 -31 8 -33 31 l-3 28 73 -3 73 -3 3 -58 c5 -95 -46 -147
-146 -147 -49 0 -55 3 -102 49 -50 49 -50 50 -50 113 l0 64 55 52 c48 45 62
52 96 52 21 0 47 -4 57 -10z m1050 -17 c66 -47 85 -78 85 -139 0 -136 -139
-211 -248 -133 -75 54 -96 144 -50 212 58 84 146 109 213 60z m410 -88 c2 -84
7 -113 19 -127 21 -24 56 -23 78 2 15 17 17 33 13 114 -6 103 1 126 36 126 32
0 36 -15 36 -125 0 -109 -6 -129 -51 -173 -57 -56 -144 -39 -184 38 -9 18 -15
64 -16 135 -1 113 4 128 46 123 18 -3 20 -12 23 -113z m599 90 c96 -40 69
-139 -42 -155 -33 -4 -39 -9 -37 -25 14 -96 14 -102 -3 -119 -10 -9 -25 -16
-34 -14 -14 3 -16 24 -19 151 -3 176 1 187 60 180 24 -3 57 -11 75 -18z
m-1572 5 c33 -12 64 -48 65 -73 0 -10 -13 -30 -30 -45 l-30 -28 60 -59 c63
-63 73 -87 40 -105 -31 -16 -52 1 -100 80 -29 48 -48 70 -62 70 -18 0 -19 -5
-13 -62 7 -74 -1 -91 -41 -86 l-29 3 -2 145 c0 87 3 150 9 158 13 15 96 16
133 2z"/>
<path d="M1259 3103 c-1 -4 -2 -99 -3 -210 -1 -200 -1 -203 20 -203 28 0 92
47 128 95 26 34 29 45 28 112 -1 72 -2 77 -39 121 -21 25 -45 48 -53 52 -8 4
-30 15 -47 24 -18 9 -33 14 -34 9z"/>
<path d="M1128 3071 c-75 -48 -93 -82 -93 -177 0 -76 2 -83 35 -127 19 -25 40
-47 46 -47 6 0 17 -7 24 -15 14 -16 65 -20 74 -6 4 5 1 22 -5 38 -12 32 -15
220 -4 306 7 52 6 57 -12 57 -10 0 -40 -13 -65 -29z"/>
<path d="M1731 3077 c-15 -15 -14 -84 2 -94 17 -10 129 -4 145 9 6 6 12 26 12
45 0 18 -6 35 -12 38 -35 10 -137 12 -147 2z"/>
<path d="M5113 3083 c-16 -6 -17 -89 -1 -99 16 -10 117 -5 140 7 21 12 24 61
4 78 -14 11 -122 22 -143 14z"/>
<path d="M3052 2317 c-44 -46 -43 -85 3 -126 40 -35 57 -37 107 -17 46 19 67
76 45 119 -35 67 -103 77 -155 24z"/>
<path d="M4112 2328 c2 -18 9 -23 33 -23 23 0 30 4 30 20 0 15 -8 21 -33 23
-30 3 -33 1 -30 -20z"/>
<path d="M2552 2328 c2 -19 9 -23 38 -23 28 0 35 4 35 20 0 16 -8 21 -38 23
-35 3 -38 1 -35 -20z"/>
</g>
</svg>
