<?xml version="1.0" standalone="no"?>
<!DOCTYPE svg PUBLIC "-//W3C//DTD SVG 20010904//EN"
 "http://www.w3.org/TR/2001/REC-SVG-20010904/DTD/svg10.dtd">
<svg version="1.0" xmlns="http://www.w3.org/2000/svg"
 width="300.000000pt" height="400.000000pt" viewBox="0 0 300.000000 300.000000"
 preserveAspectRatio="xMidYMid meet">
<metadata>
Created by potrace 1.10, written by Peter Selinger 2001-2011
</metadata>
<g transform="translate(0.000000,300.000000) scale(0.050000,-0.050000)"
fill="#000000" stroke="none">
<path d="M2863 5265 c-123 -59 -192 -176 -549 -934 -379 -804 -390 -838 -312
-964 53 -87 26 -99 -130 -58 -126 32 -210 24 -301 -32 -59 -36 -60 -35 -183
34 -154 86 -348 62 -418 -51 -19 -31 -100 -24 -168 15 -59 33 -65 33 -124 0
-79 -45 -100 -44 -187 7 -94 55 -145 41 -248 -71 l-83 -90 0 -278 0 -277 81
-92 c101 -115 136 -126 226 -73 l72 43 68 -42 c86 -53 141 -53 228 1 l69 43
136 -73 c163 -88 201 -90 330 -13 114 68 149 72 231 29 53 -27 65 -27 122 3
60 31 62 30 47 -5 -138 -320 245 -676 471 -436 58 62 81 61 155 -1 85 -72 243
-71 338 2 74 56 56 60 202 -45 84 -61 209 -44 313 41 l91 75 84 -72 c116 -99
218 -99 336 -1 l84 70 76 -60 c42 -33 87 -60 100 -60 41 0 141 82 127 105 -7
12 -4 15 9 8 29 -18 163 186 177 271 16 94 195 209 257 165 108 -78 153 -93
208 -70 39 17 70 17 111 1 75 -28 115 -13 197 78 100 111 99 111 218 -8 l110
-110 136 0 c249 0 412 173 330 351 -20 43 -31 87 -24 99 7 11 18 60 26 110 7
49 20 119 28 155 45 198 -336 356 -554 229 -49 -28 -60 -28 -130 1 -170 71
-280 59 -398 -44 -84 -73 -108 -75 -181 -14 -95 79 -128 80 -236 3 l-98 -70
-61 50 c-132 108 -159 119 -294 127 -134 7 -135 8 -117 56 47 124 37 151 -380
1037 -388 821 -456 914 -618 835z m336 -721 c149 -315 324 -686 390 -824 66
-137 124 -257 127 -265 4 -8 -128 -15 -294 -15 l-302 0 0 110 0 110 129 0 128
0 -151 315 c-84 173 -186 391 -228 485 l-76 169 -39 -89 c-21 -50 -121 -264
-221 -477 -100 -213 -182 -390 -182 -395 0 -4 54 -8 120 -8 l120 0 0 -110 0
-110 -300 0 -301 0 60 118 c114 225 721 1525 721 1544 0 65 60 -47 299 -558z
m-204 -576 c61 -107 57 -169 -14 -237 l-59 -56 -61 67 c-70 77 -72 92 -31 192
63 149 95 156 165 34z m-94 -691 c-150 -86 -168 -59 -48 72 l72 79 38 -47 38
-47 -100 -57z m-1661 -97 c0 -44 9 -60 35 -60 257 -1 296 -415 50 -529 -64
-30 -85 -51 -85 -85 0 -60 -40 -60 -41 -1 0 34 -24 56 -95 89 -234 110 -219
460 23 522 48 13 64 29 69 70 9 74 44 69 44 -6z m2821 -60 c92 -25 177 -109
130 -127 -18 -7 -61 6 -96 27 -152 93 -314 2 -315 -177 0 -172 193 -267 327
-162 53 42 93 38 93 -8 0 -89 -247 -139 -355 -73 -286 174 -105 609 216 520z
m-3507 -200 c71 -104 135 -197 144 -206 8 -8 11 79 6 195 -9 205 -8 211 33
211 42 0 43 -8 43 -280 0 -363 -16 -368 -217 -65 l-143 215 0 -215 c0 -202 -2
-215 -40 -215 -38 0 -40 13 -40 281 0 358 21 366 214 79z m1346 160 c52 -52
51 -136 -3 -193 l-42 -45 102 -131 c117 -147 120 -156 59 -147 -29 4 -80 57
-145 150 -137 195 -171 194 -171 -4 0 -137 -4 -150 -40 -150 -38 0 -40 13 -40
280 l0 280 120 0 c93 0 129 -9 160 -40z m540 0 c0 -32 -13 -40 -70 -40 l-70 0
0 -240 c0 -227 -2 -240 -40 -240 -38 0 -40 13 -40 240 l0 240 -70 0 c-57 0
-70 8 -70 40 0 37 13 40 180 40 167 0 180 -3 180 -40z m220 -60 l0 -100 142 0
142 0 -7 95 c-6 77 -1 95 28 101 32 6 35 -16 35 -255 0 -143 0 -268 0 -276 0
-8 -16 -15 -35 -15 -30 0 -35 20 -35 140 l0 140 -135 6 -135 6 0 -153 c0 -134
-4 -151 -35 -145 -58 11 -64 556 -6 556 36 0 41 -13 41 -100z m822 69 c65 -34
69 -83 6 -72 -147 26 -181 25 -208 -7 -42 -51 -2 -95 120 -130 186 -54 233
-196 92 -282 -107 -65 -380 3 -306 76 25 26 37 26 91 -2 78 -41 151 -41 192
-1 62 63 30 114 -89 139 -165 35 -224 104 -180 209 40 97 168 129 282 70z
m1189 -221 c140 -303 141 -308 93 -308 -31 0 -58 44 -125 200 -47 110 -87 200
-90 200 -2 0 -43 -90 -91 -200 -63 -146 -97 -200 -122 -200 -50 0 -48 10 56
233 50 108 104 228 120 265 36 85 29 92 159 -190z m540 203 c100 -101 41 -211
-114 -211 l-101 0 7 -145 c6 -127 3 -145 -28 -145 -19 0 -35 7 -35 15 0 8 0
132 0 275 l0 260 111 0 c91 0 120 -9 160 -49z m549 9 c0 -36 -13 -40 -135 -40
l-135 0 -4 -60 -4 -60 130 0 c114 0 130 -5 124 -35 -6 -28 -28 -35 -121 -35
-63 0 -115 -7 -115 -15 0 -8 0 -55 0 -105 l0 -90 130 0 c117 0 130 -4 130 -40
0 -37 -13 -40 -170 -40 l-170 0 0 280 0 280 170 0 c157 0 170 -3 170 -40z
m-3632 -732 c61 -24 31 -48 -44 -36 -90 14 -130 -21 -120 -104 8 -68 54 -98
123 -81 65 17 76 93 13 93 -22 0 -40 9 -40 20 0 11 27 20 60 20 55 0 60 -6 60
-69 0 -110 -152 -157 -230 -71 -109 120 23 288 178 228z m490 -24 c12 -22 11
-48 -2 -72 -16 -28 -11 -50 22 -93 49 -66 51 -79 17 -79 -14 0 -45 32 -70 70
-58 89 -85 89 -85 0 0 -38 -9 -70 -20 -70 -11 0 -20 60 -20 140 l0 140 69 0
c46 0 76 -12 89 -36z m561 -17 c78 -99 16 -227 -110 -227 -86 0 -149 59 -149
140 0 134 175 193 259 87z m365 -62 c10 -191 115 -173 116 20 0 52 9 95 20 95
28 0 25 -227 -4 -256 -83 -83 -196 2 -196 149 0 158 56 151 64 -8z m606 45 c0
-51 -9 -61 -55 -66 -48 -6 -55 -15 -55 -75 0 -38 -9 -69 -20 -69 -11 0 -20 60
-20 141 l0 141 75 -6 c69 -5 75 -11 75 -66z"/>
<path d="M1107 3021 c-125 -76 -131 -248 -12 -342 95 -74 105 -58 105 171 0
228 0 228 -93 171z"/>
<path d="M1230 2850 c0 -115 6 -210 14 -210 159 0 230 230 108 352 -111 111
-122 97 -122 -142z"/>
<path d="M1700 2980 c0 -67 110 -90 158 -33 41 50 4 93 -80 93 -73 0 -78 -4
-78 -60z"/>
<path d="M5000 2981 c0 -56 6 -61 65 -61 146 1 164 106 20 116 -83 6 -85 5
-85 -55z"/>
<path d="M2500 2290 c0 -17 18 -30 40 -30 22 0 40 13 40 30 0 17 -18 30 -40
30 -22 0 -40 -13 -40 -30z"/>
<path d="M2993 2283 c-43 -47 -42 -89 4 -130 73 -66 163 -29 163 67 0 98 -101
136 -167 63z"/>
<path d="M4040 2291 c0 -18 17 -31 42 -31 48 0 42 47 -9 56 -19 4 -33 -6 -33
-25z"/>
</g>
</svg>
