<?xml version="1.0" encoding="utf-8"?>
<!-- Generator: Adobe Illustrator 28.1.0, SVG Export Plug-In . SVG Version: 6.00 Build 0)  -->
<svg version="1.1" id="Layer_1" xmlns="http://www.w3.org/2000/svg" xmlns:xlink="http://www.w3.org/1999/xlink" x="0px" y="0px"
	 viewBox="0 0 1920 1080" style="enable-background:new 0 0 1920 1080;" xml:space="preserve">
<style type="text/css">
	.st0{fill:#373737;}
	.st1{fill:#FEFEFE;}
	.st2{fill:#A9A9A9;}
	.st3{fill:#383838;}
	.st4{fill:#A6A6A6;}
	.st5{fill:#A4A4A4;}
	.st6{fill:#9C9C9C;}
	.st7{fill:#8E8E8E;}
	.st8{fill:#A8A8A8;}
	.st9{fill:#9F9F9F;}
	.st10{fill:#A2A2A2;}
</style>
<g>
	<g>
		<path class="st0" d="M920.01,303.1c12.33,0,24.66,0,36.98,0c5.28,1.16,10.72,1.29,16.04,1.48c19.95,0.68,38.2,7.42,56.06,15.32
			c26.81,11.85,50.41,28.52,70.48,49.88c27.6,29.37,46.32,63.65,55.39,103.02c1.91,8.3,1.68,16.9,2.43,25.36
			c0.09,0.97-0.26,2.01,0.5,2.86c0,14.99,0,29.99,0,44.98c-1.3,5.44-1.23,11.03-1.6,16.54c-1.11,16.93-6.94,32.52-13.33,47.9
			c-12.47,30.01-31.25,55.69-55.15,77.55c-25.74,23.55-55.59,39.83-89.13,49.59c-11.79,3.43-23.83,3.77-35.86,4.83
			c-0.97,0.09-2.01-0.26-2.86,0.5c-14.99,0-29.99,0-44.98,0c-5.26-1.41-10.7-0.99-16.05-1.46c-17.46-1.51-33.78-7.16-49.63-14.13
			c-27.44-12.07-51.82-28.72-72.43-50.56c-28.17-29.85-47.02-64.81-55.94-104.93c-1.92-8.65-1.69-17.64-2.37-26.48
			c-0.09-1.13,0.36-2.34-0.49-3.36c0-12.66,0-25.32,0-37.98c1.39-8.5,0.83-17.19,2.29-25.67c3.77-21.95,11.83-42.38,22.32-61.91
			c10-18.63,22.76-35.25,37.62-50.19c30.23-30.4,66.32-50.48,108.11-60.09c9.22-2.12,18.8-1.91,28.23-2.56
			C917.78,303.51,918.99,303.95,920.01,303.1z"/>
		<path class="st1" d="M920.01,303.1c-7.1,2.39-14.61,2.29-21.89,3.69c-53.52,10.29-97.42,36.65-131.65,78.88
			c-27.12,33.46-42.48,71.97-47.28,114.74c-0.14,1.24,0.38,2.74-1.09,3.6c0-65.56,0.04-131.11-0.1-196.67
			c-0.01-3.6,0.74-4.35,4.34-4.34C788.23,303.13,854.12,303.1,920.01,303.1z"/>
		<path class="st1" d="M718.1,541.99c2.51,7.07,2.26,14.61,3.8,21.87c16.38,77.31,60.95,131.58,133.29,163.02
			c17.31,7.53,35.55,12.09,54.33,14.37c1.84,0.22,4.06-0.21,5.49,1.65c-65.64,0-131.27,0-196.91,0
			C718.1,675.93,718.1,608.96,718.1,541.99z"/>
		<path class="st1" d="M1157.9,501.01c-2.45-6.38-2.48-13.22-3.72-19.83c-16.7-89.48-90.78-161.32-180.76-175.26
			c-5.48-0.85-11.18-0.59-16.44-2.82c65.64,0,131.28,0.03,196.91-0.1c3.42-0.01,4.1,0.67,4.09,4.1
			C1157.87,371.73,1157.9,436.37,1157.9,501.01z"/>
		<path class="st1" d="M959.99,742.9c6.59-2.25,13.56-2.46,20.33-3.74c88.86-16.81,159.88-89.49,174.73-178.77
			c0.8-4.81,0.38-9.91,2.84-14.41c0,64.3-0.03,128.61,0.1,192.91c0.01,3.42-0.67,4.1-4.1,4.1
			C1089.27,742.87,1024.63,742.9,959.99,742.9z"/>
		<path class="st2" d="M938.24,324.52c109.14-0.26,198.46,89,198.58,198.44c0.12,109.6-89.06,198.84-198.71,198.85
			c-109.39,0.01-198.02-88.59-198.55-198.49C739.03,414.05,828.24,324.79,938.24,324.52z"/>
		<path class="st0" d="M879.2,409.06c-2.26,6.29-4.46,12.33-6.61,18.38c-10.74,30.27-21.39,60.58-32.27,90.8
			c-1.48,4.1-0.92,7.08,1.64,10.52c27.63,37.21,64.8,58.52,110.11,66.22c29.38,4.99,58.67,3.94,87.83-2.03
			c1.22-0.25,2.47-1.21,3.8-0.23c-18.03,31.38-65.25,61.16-118.52,54.95c-61.52-7.17-107.7-55.86-112.98-115.4
			C806.58,468.78,847.22,423.44,879.2,409.06z"/>
		<path class="st0" d="M945.37,393c45.57,3.06,82.59,25.25,106.84,68.17c1.88,3.33,1.38,5.62-1.7,7.52
			c-1.97,1.22-3.9,2.64-6.05,3.44c-42.23,15.73-84.46,31.48-127.65,44.42c-5.88,1.76-11.93,3.01-17.96,4.2
			c-4.73,0.93-5.66-0.16-5.09-4.84c2.09-17.31,8.19-33.56,13.33-50.05c6.73-21.6,13.81-43.08,22.17-64.12
			C933.37,391.38,931.8,393.28,945.37,393z"/>
		<path class="st0" d="M978.48,699.95c-2.07,2.48-4.13,5.23-6.47,7.69c-3.81,4.01-6.63,4.06-9.75-0.54
			c-2.44-3.6-4.04-3.17-6.76-0.54c-3.12,3.02-6.89,5.23-10.84,7.07c-2.12,0.99-4.31,2.13-6.56,0.41c-2.19-1.67-2.1-3.96-1.51-6.36
			c0.19-0.77,0.15-1.6,0.25-2.83c-3.67,0.45-5.53,3.23-7.96,4.93c-6.16,4.32-8.62,4.12-12.42-2.31c-1.8-3.03-3.2-3.56-6.12-1.62
			c-2.19,1.45-4.72,2.51-7.24,3.29c-8.75,2.7-14.17-2.08-12.74-11.17c0.95-6,3.07-11.63,6.63-16.56
			c6.64-9.21,14.97-16.5,25.43-21.14c1.29-0.57,2.75-1.74,4.17-0.49c1.48,1.29,0.98,3.03,0.56,4.67
			c-1.63,6.38-5.39,11.45-10.22,15.67c-4.51,3.94-9.32,7.53-14.08,11.16c-2.77,2.12-4.54,4.62-3.03,8.11
			c1.57,3.63,4.64,2.33,7.37,1.72c4.34-0.97,7.81-3.02,10.76-6.62c6.25-7.63,14.91-11.57,24.24-14.03c3.36-0.89,7.75-1.96,9.48,1.78
			c1.51,3.27,1.61,7.59-0.63,11.15c-1.42,2.25-3.12,4.32-4.58,6.54c-0.63,0.97-1.12,2.17-0.3,3.27c0.85,1.13,2.22,0.97,3.21,0.47
			c3.95-2,7.89-3.69,9.72-8.58c3.71-9.89,10.65-16.79,21.24-19.14c2.71-0.6,2.92-2.41,3.42-4.23c1.44-5.31,2.72-10.67,5.39-15.53
			c1.38-2.52,3.07-5.33,6.53-3.86c3.16,1.34,2.62,4.51,1.8,7.01c-2.37,7.28-5,14.47-7.64,21.66c-1.63,4.43-2.61,8.95-2.3,13.68
			c0.08,1.28,0.25,2.82,1.84,3.24c1.28,0.33,2.18-0.63,3-1.46c4.11-4.14,7.65-8.14,7.75-14.87c0.12-8.55,5.12-14.94,12.62-19.1
			c2.19-1.22,4.64-2.24,7.04-0.43c2.48,1.88,2.54,4.62,1.92,7.29c-1.37,5.91-5.26,10.29-9.24,14.59c-1.38,1.49-3.97,2.92-1.91,5.34
			c1.91,2.25,4.37,1.11,6.32-0.25c4.25-2.97,7.22-7.08,8.24-12.12c1.6-7.9,5.41-15.41,4.14-23.86c-0.31-2.07,1.08-3.84,3.07-4.74
			c2.03-0.91,3.43,0.31,4.86,1.57c7.8,6.89,9.11,10.31,8.48,23.01c3.63-2.84,3.87-6.99,5.42-10.44c0.55-1.21,0.31-3.51,2.43-3.11
			c1.82,0.34,2.53,2.02,2.2,3.92c-1.38,7.92-4.47,15.1-10.47,20.54c-3.68,3.34-8.46,4-13.14,2.14c-3-1.2-4.6-0.3-6.04,2.29
			c-1.96,3.52-4.72,6.44-7.77,9.06c-4.81,4.13-10.24,4.2-14.69-0.38c-2.42-2.49-3.49-2.09-5.12,0.52c-1.94,3.11-4.24,6-7.16,8.28
			c-5.34,4.18-9.02,3.03-11.2-3.47C979.83,701.45,979.9,700.53,978.48,699.95z"/>
		<path class="st0" d="M874.79,664.48c5.97,1.76,11.66,3.29,17.65,1.96c4.07-0.91,5.05-4.15,1.65-6.29
			c-9.4-5.91-19.5-9.28-30.98-7.46c-6.12,0.97-12.15-1.24-18.02-2.83c-2.3-0.62-1.83-3-0.24-4.44c4.57-4.12,9.8-7.4,16.1-6.84
			c12.35,1.09,24.29,4.16,35.33,9.99c8.04,4.24,11.29,9.52,9.86,15.04c-1.48,5.69-7.11,8.6-16.34,8.53
			c-6.05-0.05-11.88-1.38-17.72-2.74c-1.86-0.43-3.66-1.55-6.33-0.68c3.8,3.01,7.42,5.57,10.68,8.54c3.27,2.98,7.45,6.11,5.87,11.24
			c-1.53,4.96-6.54,5.76-10.97,6.56c-10.96,1.99-21.29-0.48-30.83-5.69c-9.97-5.45-9.84-14.12-0.14-19.84c1-0.59,2.01-1.2,3.06-1.69
			c3-1.41,5.46-2.52,1.64-6.17c-2.19-2.09-1.08-4.32,2.23-4.68c0.49-0.05,1.08-0.15,1.48,0.05c7.67,3.71,15.12,1.18,22.64-0.63
			c2.78-0.67,5.64-0.32,8.42,0.34c0.93,0.22,2.23,0.18,2.35,1.41c0.11,1.1-1.06,1.54-1.83,2.16
			C878.72,661.62,876.32,661.84,874.79,664.48z"/>
		<path class="st0" d="M1068.83,429.6c4.47-2.29,7.88-5.74,11.73-8.55c2.02-1.47,3.7-2.76,5.84,0.01c2.06,2.67,0.26,3.83-1.49,5.19
			c-6.31,4.91-12.59,9.84-18.95,14.69c-1.34,1.02-2.78,2.97-4.71,1.07c-1.76-1.73-3.58-3.49-2.39-6.5c1.9-4.8,3.6-9.67,5.34-14.53
			c0.54-1.51,1.53-2.95,0.92-5.82c-4.24,3.25-8.09,6.2-11.94,9.16c-1.85,1.42-3.48,3.22-5.76,0.26c-2.22-2.89-0.29-4.1,1.61-5.57
			c6.05-4.69,12.05-9.46,18.17-14.06c1.42-1.07,2.78-3.59,5.03-1.74c2.26,1.85,3.66,4.14,2.3,7.44c-2.08,5.08-3.85,10.29-5.71,15.45
			C1068.5,427,1067.91,427.91,1068.83,429.6z"/>
		<path class="st3" d="M984.93,373.88c0.09-9.93,7.71-18.5,16.5-18.55c8.99-0.05,16.5,7.25,16.4,15.93
			c-0.11,9.93-7.82,18.58-16.54,18.54C992.13,389.76,984.85,382.68,984.93,373.88z"/>
		<path class="st0" d="M1020.9,395.01c-0.05-9.4,8.42-18.24,17.48-18.26c8.66-0.02,16.11,7.22,16.1,15.67
			c-0.01,9.3-8.68,18.45-17.5,18.44C1028.61,410.85,1020.94,403.29,1020.9,395.01z"/>
		<path class="st0" d="M888.74,362.87c3.47-3.94,4.9-7.88,7.01-11.38c0.94-1.55,1.54-3.48,3.48-4.05c1.71-0.5,3.87-2.01,5.16-0.8
			c1.7,1.59-0.55,3.27-1.35,4.72c-5.54,9.94-5.58,9.91,3.22,17.2c1.54,1.27,3.26,2.39,4.54,3.89c1.22,1.44,5.08,2.27,3.17,4.4
			c-1.66,1.86-5.26,3.15-8.16,0.77c-2.83-2.32-5.49-4.84-8.31-7.18c-1.07-0.89-2.12-2.66-3.77-1.58c-1.55,1.01-2.51,2.76-2.2,4.74
			c0.3,1.97,0.89,3.89,1.38,5.82c0.53,2.07,0.16,3.52-2.22,4.12c-2.22,0.56-3.96,0.57-4.66-2.09c-2.24-8.52-4.51-17.04-6.75-25.57
			c-0.69-2.62,0.83-3.49,3.07-4.08c2.37-0.62,3.37,0.3,3.91,2.47C886.91,356.83,887.72,359.34,888.74,362.87z"/>
		<path class="st3" d="M859.33,361.92c2.06,0.02,3.73,0.12,5.21,1.01c1.54,0.93,3.84,1.95,2.94,3.96c-0.94,2.1-3.26,3.58-5.77,2.21
			c-3.12-1.7-5.75-1.05-8.28,0.97c-1.27,1.02-1.78,2.41-1.24,4.01c0.6,1.78,2.11,2.09,3.65,1.83c3.11-0.53,6.17-1.38,9.28-1.85
			c4.57-0.69,8.7-0.04,10.96,4.73c2.04,4.3,0.81,8.88-3.32,12.48c-5.43,4.74-12.8,6.24-17.49,3.42c-1.63-0.98-4.2-2.26-2.97-4.4
			c1.15-2.01,3.53-3.57,6.34-1.6c3.7,2.59,6.95,1.07,9.96-1.41c1.37-1.12,2.15-2.62,1.43-4.42c-0.75-1.88-2.49-2.17-4.18-1.94
			c-2.96,0.4-5.9,0.95-8.82,1.57c-4.7,0.99-8.65,0.11-11.04-4.44c-2.05-3.91-0.76-8.52,3.29-11.99
			C852.26,363.51,855.72,362.02,859.33,361.92z"/>
		<path class="st0" d="M808.45,443.27c-2.13-0.47-5.44,0.25-5.34-2.92c0.07-2.31,1.83-4.62,5.19-3.94c2.98,0.6,5.16-0.96,6.76-3.26
			c1.43-2.05,3.02-4.4,0.84-6.75c-2.37-2.56-4.56-0.53-6.56,0.88c-2.45,1.72-4.7,3.72-7.21,5.32c-3.18,2.02-6.6,2.31-9.82,0.02
			c-3.18-2.26-4.1-5.5-3.54-9.24c1-6.75,7.52-13,13.35-12.71c1.76,0.09,4.35,0.07,4.37,2.28c0.02,2.23-1.36,4.69-4.26,4.47
			c-3.86-0.29-5.87,1.77-7.2,4.89c-0.62,1.46-0.44,2.98,0.94,4.06c1.23,0.97,2.56,0.7,3.7-0.13c2.55-1.86,4.97-3.88,7.52-5.74
			c3.79-2.76,7.79-3.83,11.95-0.83c3.92,2.83,5.05,7.51,2.83,12.52C819.34,438.06,815.51,442.65,808.45,443.27z"/>
		<path class="st3" d="M946.04,375.94c-2.79,0.52-4.08-1.13-4.68-3.41c-1.15-4.39-4.61-3.51-7.68-3.5
			c-2.95,0.01-6.16-0.54-7.14,3.59c-0.42,1.77-1.11,3.5-3.41,3.79c-2.98,0.37-5.17,0.26-3.72-3.78c3.1-8.61,6.14-17.23,9.11-25.89
			c0.83-2.43,2.39-3.33,4.85-3.41c2.49-0.09,4.03,0.78,4.97,3.18c3.34,8.52,6.8,16.99,10.23,25.47
			C949.63,374.57,949.4,376.28,946.04,375.94z"/>
		<path class="st0" d="M852.08,401.49c-0.05,2.52-4.68,5.01-6.6,3.53c-4.06-3.12-6.53-0.69-9.44,1.74
			c-2.77,2.32-4.73,4.49-2.64,8.35c1.65,3.04-0.59,4.87-2.9,5.82c-2.76,1.13-2.66-1.84-3.2-3.24c-3.1-8.05-5.97-16.19-9.01-24.26
			c-0.9-2.39-1-4.24,1.22-6.15c2.26-1.94,4.12-2.04,6.66-0.6c7.65,4.34,15.42,8.45,23.13,12.69
			C850.42,399.97,851.77,400.39,852.08,401.49z"/>
		<path class="st3" d="M958.17,344.22c6.31,1.07,12.71,2.14,19.11,3.24c2.01,0.35,3.38,1.13,2.94,3.65c-0.45,2.6-2.04,2.84-4,2.24
			c-5.05-1.55-6.79,0.7-7.28,5.49c-0.56,5.45-1.81,10.83-2.64,16.27c-0.37,2.42-1.33,3.48-3.96,3.13c-2.89-0.39-3.58-1.92-3.15-4.48
			c0.95-5.58,1.58-11.24,2.89-16.73c1.09-4.55-0.36-6.55-4.84-6.8c-2.29-0.13-3.83-0.9-3.34-3.71
			C954.38,343.86,956.21,344.11,958.17,344.22z"/>
		<path class="st4" d="M939.75,691.6c-3.73,4.96-8.16,9.07-13.23,12.49c-1.1,0.74-2.48,1.62-3.66,0.59c-1.48-1.3-0.42-2.91,0.4-4.03
			C927.32,695.15,933.43,693.23,939.75,691.6z"/>
		<path class="st5" d="M1039.23,670.52c-0.18,1.9-0.15,3.94-2,4.86c-1.67,0.83-3.67,0.57-5.19-0.41c-1.8-1.17-0.48-2.97-0.31-4.51
			c0.06-0.49,0.08-1.01,0.29-1.44c0.92-1.95,0.08-5.92,2.52-5.65C1037.77,663.73,1038.94,667.32,1039.23,670.52z"/>
		<path class="st4" d="M978.48,686.91c-1.44,5.14-4.68,8.76-8.08,12.26c-0.54,0.55-1.31,1.4-2.08,0.63
			c-0.48-0.49-0.63-1.48-0.62-2.25C967.72,693.64,972.45,688.89,978.48,686.91z"/>
		<path class="st6" d="M1013.56,669.48c-0.32,4.64-1.69,7.79-5.27,10.8C1008.48,675.64,1009.84,672.48,1013.56,669.48z"/>
		<path class="st7" d="M908.1,679.78c1.16-2.74,2.88-4.87,6.46-6.48C912.9,676.87,910.87,678.7,908.1,679.78z"/>
		<path class="st8" d="M865.22,685.75c-6.41-0.61-12.07-1.15-16.63-5.06c-3.57-3.07-3.33-5.61,0.91-7.43
			c2.79-1.2,5.62-3.67,8.88-1.99c5.16,2.65,10.25,5.55,13.74,10.42c1.05,1.47,0.17,2.64-1.3,3.03
			C868.76,685.26,866.61,685.51,865.22,685.75z"/>
		<path class="st2" d="M991.99,374.21c0.27-6.82,5.19-12.55,10.62-12.36c4.89,0.17,8.34,3.89,8.2,8.84
			c-0.21,7.04-5.32,12.92-10.93,12.59C994.96,382.99,991.79,379.34,991.99,374.21z"/>
		<path class="st2" d="M1039.39,383.14c4.31,0.03,8.29,3.96,8.34,8.25c0.07,5.9-6.27,12.78-11.74,12.75
			c-4.6-0.03-8.16-3.57-8.21-8.17C1027.7,389.94,1033.89,383.11,1039.39,383.14z"/>
		<path class="st9" d="M933.52,353.35c1.97,1.66,2.12,4.11,2.99,6.18c0.48,1.14,1.34,2.64-0.17,3.55c-1.61,0.97-3.54,1.01-5.21,0.1
			c-1.58-0.87-0.74-2.36-0.34-3.53C931.54,357.52,931.65,355.1,933.52,353.35z"/>
		<path class="st10" d="M826.26,394.75c2.44,0.19,3.98,1.54,5.59,2.57c1.2,0.77,3.72,1.01,2.75,3.27c-0.69,1.6-2.23,3.09-3.99,3.41
			c-2.29,0.41-2.21-1.99-2.78-3.34C827.07,398.91,825.89,397.22,826.26,394.75z"/>
	</g>
</g>
</svg>
