 <svg  version="1.0" xmlns="http://www.w3.org/2000/svg"  width="300.000000pt" height="220.000000pt" viewBox="0 0 300.000000 200.000000"  preserveAspectRatio="xMidYMid meet">  <g transform="translate(0.000000,200.000000) scale(0.050000,-0.050000)" fill="#7a7a7a" stroke="none"> <path d="M870 2468 c-266 -138 -214 -395 114 -560 157 -79 194 -128 149 -197 -57 -86 -211 -81 -369 11 -78 45 -85 46 -74 13 4 -14 18 -62 29 -108 47 -185 525 -173 641 17 107 177 42 332 -198 469 -299 171 -197 333 124 197 33 -14 36 -6 30 72 -5 73 -14 89 -56 100 -97 27 -328 19 -390 -14z"/> <path d="M1713 2211 c-418 -149 -277 -715 176 -709 225 3 254 20 300 173 l13 44 -86 -39 c-181 -82 -376 -16 -376 128 l0 52 223 0 222 0 -10 88 c-24 218 -241 341 -462 263z m196 -142 c60 -61 38 -89 -69 -89 -73 0 -100 8 -100 29 0 40 56 91 100 91 20 0 51 -14 69 -31z"/> <path d="M3293 2211 c-313 -112 -331 -554 -28 -680 86 -36 301 -41 393 -9 61 21 76 43 110 151 l14 44 -101 -39 c-193 -73 -361 -15 -361 124 l0 58 220 0 220 0 0 65 c-1 217 -244 365 -467 286z m180 -126 c67 -43 38 -95 -58 -101 -73 -5 -95 1 -95 23 0 67 95 115 153 78z"/> <path d="M4150 2221 c-464 -113 -391 -721 86 -721 174 0 233 27 257 116 20 74 20 74 41 24 51 -120 304 -202 331 -107 6 20 17 52 24 70 11 25 2 36 -32 40 -78 11 -77 126 1 166 83 43 82 44 82 -74 1 -157 80 -235 236 -235 70 0 167 100 122 126 -5 2 -26 14 -48 26 -35 19 -41 49 -50 224 -12 239 -43 298 -182 340 -151 45 -284 17 -325 -68 -43 -90 -42 -114 2 -91 123 63 282 29 233 -51 -12 -19 -48 -42 -80 -51 -32 -8 -95 -23 -140 -35 -97 -24 -188 -107 -188 -170 0 -90 -237 -135 -319 -61 -197 178 -35 467 204 362 30 -13 35 -4 35 74 0 110 -99 143 -290 96z"/> <path d="M2254 2181 c20 -40 21 -601 1 -641 -13 -26 10 -30 155 -30 159 0 198 10 150 40 -30 18 -26 476 4 506 32 32 86 30 115 -5 28 -34 31 -455 3 -507 -16 -31 -1 -34 158 -34 170 0 175 1 153 40 -13 22 -27 155 -33 295 -10 242 -13 257 -63 307 -68 68 -204 86 -294 40 -55 -29 -63 -29 -63 -3 0 24 -29 29 -151 27 -129 -3 -148 -8 -135 -35z"/> </g> </svg>