 <svg  version="1.0" xmlns="http://www.w3.org/2000/svg"  width="204.000000pt" height="204.000000pt" viewBox="0 0 204.000000 204.000000"  preserveAspectRatio="xMidYMid meet">  <g transform="translate(0.000000,204.000000) scale(0.100000,-0.100000)" fill="#a8a4a4" stroke="none"> <path d="M880 2029 c-177 -24 -378 -114 -518 -233 -283 -240 -416 -631 -336 -986 15 -66 63 -220 69 -220 4 0 118 42 123 46 1 1 -10 35 -26 75 -44 110 -56 180 -55 319 1 143 20 232 77 355 65 140 153 250 271 338 335 251 764 244 1093 -18 84 -67 181 -184 227 -275 112 -221 129 -463 51 -693 l-34 -99 42 -17 c87 -38 80 -42 114 61 46 141 56 201 55 343 0 192 -44 355 -139 515 -177 297 -485 479 -834 494 -58 3 -139 0 -180 -5z"/> <path d="M790 1309 c-54 -22 -60 -35 -60 -138 l0 -96 85 -82 85 -82 0 -66 0 -65 -30 0 -30 0 0 69 c0 77 -4 81 -72 81 l-40 0 3 -97 3 -98 -34 -3 -35 -3 3 291 3 290 -61 0 -60 0 0 -266 0 -265 -27 3 -28 3 -3 263 -2 262 -61 0 -60 0 3 -273 c3 -298 2 -291 62 -328 21 -13 26 -20 15 -23 -8 -3 -77 -26 -154 -51 -77 -25 -162 -57 -190 -71 -61 -30 -43 -27 107 20 506 154 1129 153 1639 -4 56 -18 109 -34 118 -36 9 -3 -5 6 -31 20 -47 26 -307 116 -334 116 -12 0 -14 45 -14 280 l0 280 45 0 c45 0 45 0 45 35 l0 35 -150 0 -150 0 0 -35 c0 -26 4 -35 18 -36 74 -4 67 6 70 -97 3 -92 2 -93 -20 -90 -21 3 -24 10 -28 73 l-6 70 -4 -70 -5 -70 -35 -6 -35 -6 35 -4 35 -4 6 -65 5 -65 5 65 c3 57 7 65 24 65 19 0 20 -8 23 -150 1 -82 1 -154 -2 -160 -3 -9 -21 -9 -66 -2 -51 8 -60 13 -53 26 4 9 9 48 11 88 5 93 -10 124 -99 203 l-69 62 0 69 0 70 28 -3 c26 -3 27 -6 30 -66 l3 -63 52 3 52 3 3 50 c5 77 -13 124 -53 141 -48 20 -142 18 -185 -4 -44 -21 -60 -53 -60 -117 0 -89 14 -116 100 -197 l80 -75 0 -66 0 -67 -30 0 -29 0 -3 73 -3 72 -55 0 -55 0 0 -88 c1 -87 0 -88 -24 -85 -24 3 -24 5 -22 78 1 42 -3 89 -9 105 -6 17 -47 64 -91 106 l-80 75 3 60 c3 58 3 59 33 59 30 0 30 0 33 -62 l3 -63 49 0 50 0 1 38 c3 116 -4 140 -47 158 -38 16 -137 18 -174 3z"/> <path d="M188 556 c-32 -11 -58 -24 -58 -28 0 -20 108 -163 172 -226 345 -345 882 -396 1290 -122 114 76 253 224 304 323 l15 27 -57 25 c-31 14 -57 25 -59 25 -1 0 -32 -41 -70 -91 -110 -148 -249 -247 -431 -308 -228 -77 -477 -55 -695 61 -98 51 -214 152 -280 241 -33 45 -64 85 -67 88 -4 4 -33 -3 -64 -15z"/> </g> </svg> 