<?xml version="1.0" standalone="no"?>
<!DOCTYPE svg PUBLIC "-//W3C//DTD SVG 20010904//EN"
 "http://www.w3.org/TR/2001/REC-SVG-20010904/DTD/svg10.dtd">
<svg version="1.0" xmlns="http://www.w3.org/2000/svg"
 width="300.000000pt" height="227.000000pt" viewBox="0 0 300.000000 227.000000"
 preserveAspectRatio="xMidYMid meet">
<metadata>
Created by potrace 1.10, written by Peter Selinger 2001-2011
</metadata>
<g transform="translate(0.000000,227.000000) scale(0.050000,-0.050000)"
fill="#606060" stroke="none">
<path d="M4460 4400 c-282 -70 -738 -283 -1204 -563 -170 -102 -201 -114 -246
-97 -29 11 -77 20 -106 20 -43 0 -63 17 -100 86 -193 364 -742 84 -677 -346 6
-36 -11 -70 -58 -120 -149 -156 -320 -534 -345 -759 l-14 -128 -297 -92 -297
-91 11 -139 11 -139 -175 -181 c-1114 -1154 -1133 -1902 -43 -1724 240 40
4435 1340 4483 1390 7 7 53 130 103 273 50 143 141 403 203 577 63 174 110
321 106 325 -4 4 -115 -28 -246 -72 -246 -83 -300 -94 -279 -59 13 19 362 988
385 1067 9 30 4 36 -21 26 -18 -6 -300 -98 -628 -202 -328 -105 -663 -213
-744 -241 -175 -60 -189 -56 -88 21 133 100 468 433 592 588 360 449 212 713
-326 580z m325 -81 c283 -79 -178 -668 -1029 -1317 l-173 -132 -354 -775
c-195 -427 -364 -782 -377 -790 -12 -8 -109 -42 -215 -77 l-193 -63 -42 183
c-23 100 -56 248 -74 328 l-33 145 -235 -424 -235 -424 -237 -75 c-130 -42
-238 -74 -240 -72 -2 2 -18 175 -36 384 -17 209 -37 430 -43 492 l-10 112 235
212 236 212 10 -330 10 -331 285 457 286 456 114 34 c138 40 112 76 185 -255
77 -346 71 -331 99 -259 13 33 69 161 125 285 l102 225 231 164 c127 91 386
288 576 440 1308 1045 1321 1470 24 813 -319 -162 -465 -250 -307 -185 365
149 550 186 550 110 0 -90 -604 -582 -616 -503 -12 73 -118 141 -221 141 -61
1 -110 14 -143 40 -55 43 -202 54 -289 20 -48 -18 -51 -15 -51 41 0 260 -263
328 -380 99 -37 -72 -33 -250 6 -314 8 -13 -14 -39 -55 -63 -65 -38 -191 -188
-191 -226 0 -10 -22 -51 -49 -92 -108 -164 -186 -511 -126 -567 16 -15 25 -43
19 -63 -9 -37 52 -100 81 -82 8 5 15 66 15 136 0 230 124 518 327 757 115 137
133 174 133 282 0 89 25 133 51 90 10 -16 19 -14 31 5 13 20 17 16 18 -14 0
-64 133 -172 192 -157 26 7 48 19 48 28 0 32 266 -80 307 -130 10 -13 20 -11
26 5 14 34 40 31 55 -6 6 -18 3 -26 -8 -19 -11 7 -20 2 -20 -11 0 -12 -31 -59
-70 -104 -76 -89 -106 -193 -78 -270 16 -43 6 -62 -75 -144 -86 -88 -135 -196
-109 -238 6 -10 -6 -33 -27 -52 -20 -19 -49 -61 -62 -94 -32 -77 -43 -56 -90
169 -21 106 -44 172 -57 168 -12 -5 -99 -34 -193 -64 l-171 -55 -179 -287
c-250 -402 -228 -378 -228 -237 -1 81 10 136 33 168 24 34 27 51 10 56 -13 5
-24 34 -24 65 0 32 -9 63 -20 70 -114 70 144 780 337 926 l67 52 -13 135 c-22
225 60 340 262 367 145 19 267 -81 267 -219 0 -24 17 -28 86 -19 55 8 111 2
156 -18 l72 -29 248 148 c704 420 1240 628 1463 566z m-336 -226 c105 -76
-106 -324 -609 -715 -294 -229 -700 -518 -700 -499 0 66 106 175 306 317 749
529 986 800 740 843 l-76 14 130 32 c165 40 165 40 209 8z m1042 -668 c-116
-321 -371 -1045 -371 -1052 0 -6 119 30 264 78 144 49 266 86 269 83 3 -4 -28
-94 -69 -202 l-74 -195 -500 -158 c-275 -87 -506 -158 -514 -158 -8 -1 9 60
37 134 28 74 149 413 269 753 120 341 221 622 225 626 8 8 455 162 477 164 8
1 2 -32 -13 -73z m-707 -379 c-44 -119 -163 -455 -266 -748 l-187 -532 -246
-81 c-135 -45 -245 -79 -245 -76 0 3 50 143 110 311 61 168 110 308 110 311 0
4 -47 -9 -105 -29 l-104 -36 -110 -311 -110 -312 -241 -78 c-132 -43 -242 -77
-245 -75 -5 3 531 1513 540 1520 10 7 485 166 488 163 1 -2 -41 -118 -93 -258
-52 -140 -89 -255 -81 -255 8 0 55 14 106 31 l92 32 79 223 c43 123 83 238 88
254 10 32 481 201 492 176 4 -8 -29 -111 -72 -230z m-3044 -678 c0 -6 -94
-107 -208 -225 -502 -514 -900 -1075 -943 -1327 -35 -205 229 -233 721 -77 66
21 331 105 590 187 568 181 1079 342 1680 532 248 77 774 243 1170 368 396
125 722 222 725 215 3 -7 -30 -111 -72 -231 l-78 -219 -2070 -654 c-2214 -699
-2304 -724 -2595 -725 -705 -1 -583 529 356 1543 l227 245 -5 114 -6 113 219
75 c213 73 289 90 289 66z m-508 -1257 c-41 -64 -186 -130 -341 -157 -137 -23
-150 -37 -151 -161 0 -108 335 14 469 171 l71 83 0 -56 c0 -111 -207 -250
-449 -300 -149 -32 -151 -31 -151 88 0 201 7 212 159 235 194 30 312 88 366
180 l45 76 6 -56 c4 -31 -7 -77 -24 -103z"/>
<path d="M3570 3723 c-121 -53 -245 -109 -276 -123 l-55 -27 64 -27 c35 -15
76 -45 92 -67 32 -45 91 -12 326 183 214 178 163 199 -151 61z"/>
<path d="M5180 1900 c-93 -32 -516 -167 -940 -300 -423 -134 -878 -278 -1010
-320 -132 -43 -483 -154 -780 -247 -297 -94 -729 -230 -960 -303 -1073 -340
-1255 -80 -564 808 148 190 77 128 -118 -105 -796 -946 -680 -1338 322 -1089
126 31 1508 464 4083 1278 55 17 167 236 167 326 0 18 -14 14 -200 -48z"/>
<path d="M5860 2828 c-67 -27 -32 -25 75 4 38 11 44 7 33 -25 -10 -30 -8 -32
10 -7 48 67 3 78 -118 28z"/>
<path d="M1023 2121 c-2 -32 -49 -98 -128 -180 l-125 -131 137 132 c110 106
135 141 128 180 l-10 48 -2 -49z"/>
</g>
</svg>
